# Wavefront OBJ file written 2026-08-17T15:04:42
o fixed_edgeMesh

# points : 2508
# lines  : 2508

# <points count="2508">
v -1.24793 -2 0.0719863
v -1.24755 -2 0.0782381
v -1.24714 2 0.084488
v -1.24755 2 0.0782381
v -1.24714 -2 0.084488
v -1.2467 -2 0.0907357
v -3.06162e-16 -2 1.25
v 0.00626312 -2 1.24998
v -1.2467 2 0.0907357
v 0.0125261 -2 1.24994
v 0.00626312 2 1.24998
v -3.06162e-16 2 1.25
v -1.24623 2 0.0969812
v -1.24623 -2 0.0969812
v 0.0187887 -2 1.24986
v -1.24573 2 0.103224
v 0.0125261 2 1.24994
v -1.24573 -2 0.103224
v 0.0187887 2 1.24986
v -1.2452 2 0.109465
v -1.2452 -2 0.109465
v -1.24463 -2 0.115702
v 0.0250509 2 1.24975
v 0.0250509 -2 1.24975
v -1.24463 2 0.115702
v 0.0313124 -2 1.24961
v -1.24404 2 0.121937
v 0.0313124 2 1.24961
v -1.24404 -2 0.121937
v 0.0375732 -2 1.24944
v 0.0375732 2 1.24944
v -1.24341 -2 0.128169
v 0.043833 -2 1.24923
v -1.24341 2 0.128169
v -1.24275 2 0.134397
v 0.043833 2 1.24923
v -1.24275 -2 0.134397
v 0.0500917 -2 1.249
v -1.24206 -2 0.140622
v -1.24206 2 0.140622
v 0.0500917 2 1.249
v -1.24134 2 0.146844
v 0.0563492 2 1.24873
v -1.24134 -2 0.146844
v 0.0563492 -2 1.24873
v -1.24059 2 0.153062
v 0.0626052 2 1.24843
v -1.24059 -2 0.153062
v 0.0626052 -2 1.24843
v 0.0688597 -2 1.2481
v -1.23981 -2 0.159276
v -1.239 -2 0.165486
v -1.23981 2 0.159276
v 0.0688597 2 1.2481
v -1.239 2 0.165486
v 0.0751124 2 1.24774
v 0.0751124 -2 1.24774
v -1.23815 -2 0.171692
v -1.23815 2 0.171692
v 0.0813633 2 1.24735
v 0.0813633 -2 1.24735
v 0.0876121 -2 1.24693
v -1.23728 -2 0.177894
v -1.23728 2 0.177894
v 0.0876121 2 1.24693
v -1.23637 -2 0.184091
v -1.23543 -2 0.190283
v -1.23637 2 0.184091
v 0.0938587 2 1.24647
v 0.0938587 -2 1.24647
v -1.23543 2 0.190283
v -1.23446 -2 0.196471
v 0.100103 2 1.24599
v 0.100103 -2 1.24599
v 0.106345 -2 1.24547
v -1.23446 2 0.196471
v -1.23346 -2 0.202654
v 0.106345 2 1.24547
v -1.23346 2 0.202654
v -1.23243 -2 0.208831
v 0.112584 -2 1.24492
v -1.23137 -2 0.215004
v -1.23243 2 0.208831
v 0.112584 2 1.24492
v 0.11882 -2 1.24434
v -1.23137 2 0.215004
v 0.11882 2 1.24434
v -1.23028 -2 0.221171
v 0.125053 -2 1.24373
v -1.23028 2 0.221171
v 0.131283 -2 1.24309
v 0.125053 2 1.24373
v -1.22915 -2 0.227333
v -1.22915 2 0.227333
v 0.131283 2 1.24309
v -1.228 -2 0.233488
v -1.22681 -2 0.239638
v -1.228 2 0.233488
v 0.13751 2 1.24241
v 0.13751 -2 1.24241
v 0.143734 -2 1.24171
v -1.22681 2 0.239638
v 0.143734 2 1.24171
v -1.2256 -2 0.245782
v -1.2256 2 0.245782
v 0.149953 -2 1.24097
v 0.156169 -2 1.24021
v 0.149953 2 1.24097
v -1.22435 -2 0.25192
v -1.22435 2 0.25192
v 0.162382 -2 1.23941
v 0.156169 2 1.24021
v -1.22307 -2 0.258051
v -1.22177 -2 0.264176
v -1.22307 2 0.258051
v 0.16859 -2 1.23858
v 0.162382 2 1.23941
v -1.22177 2 0.264176
v 0.174793 -2 1.23772
v -1.22043 -2 0.270295
v 0.16859 2 1.23858
v -1.22043 2 0.270295
v 0.174793 2 1.23772
v 0.180993 -2 1.23683
v -1.21906 -2 0.276406
v -1.21906 2 0.276406
v 0.180993 2 1.23683
v 0.187188 -2 1.2359
v -1.21766 -2 0.282511
v -1.21623 -2 0.288608
v -1.21766 2 0.282511
v 0.187188 2 1.2359
v -1.21623 2 0.288608
v 0.193378 2 1.23495
v 0.193378 -2 1.23495
v -1.21476 -2 0.294699
v 0.199563 -2 1.23397
v -1.21476 2 0.294699
v -1.21327 2 0.300782
v 0.199563 2 1.23397
v 0.205743 -2 1.23295
v -1.21327 -2 0.300782
v -1.21175 2 0.306857
v 0.205743 2 1.23295
v -1.21175 -2 0.306857
v 0.211918 -2 1.23191
v -1.2102 -2 0.312924
v -1.2102 2 0.312924
v 0.211918 2 1.23191
v 0.218088 -2 1.23083
v -1.20861 2 0.318984
v 0.218088 2 1.23083
v -1.20861 -2 0.318984
v 0.224252 -2 1.22972
v -1.207 2 0.325036
v -1.207 -2 0.325036
v 0.224252 2 1.22972
v 0.230411 -2 1.22858
v -1.20536 2 0.33108
v -1.20536 -2 0.33108
v 0.230411 2 1.22858
v -1.20368 -2 0.337115
v -1.20368 2 0.337115
v 0.236564 2 1.22741
v 0.236564 -2 1.22741
v 0.242711 -2 1.22621
v -1.20198 -2 0.343142
v -1.20198 2 0.343142
v 0.242711 2 1.22621
v 0.248852 -2 1.22498
v -1.20024 -2 0.34916
v -1.20024 2 0.34916
v 0.248852 2 1.22498
v 0.254987 -2 1.22372
v -1.19848 -2 0.355169
v -1.19669 -2 0.36117
v -1.19848 2 0.355169
v 0.254987 2 1.22372
v 0.261115 -2 1.22242
v -1.19669 2 0.36117
v 0.261115 2 1.22242
v 0.267236 -2 1.2211
v -1.19486 -2 0.367161
v -1.19486 2 0.367161
v 0.267236 2 1.2211
v 0.273351 -2 1.21975
v -1.19301 -2 0.373144
v -1.19301 2 0.373144
v 0.273351 2 1.21975
v 0.279459 -2 1.21836
v -1.19112 -2 0.379116
v -1.18921 -2 0.38508
v -1.19112 2 0.379116
v 0.279459 2 1.21836
v -1.18921 2 0.38508
v 0.285561 2 1.21695
v 0.285561 -2 1.21695
v 0.291654 -2 1.2155
v -1.18726 -2 0.391033
v -1.18726 2 0.391033
v 0.291654 2 1.2155
v 0.297741 -2 1.21402
v -1.18529 -2 0.396977
v -1.18529 2 0.396977
v 0.297741 2 1.21402
v 0.30382 -2 1.21252
v -1.18328 -2 0.402911
v -1.18125 -2 0.408835
v -1.18328 2 0.402911
v 0.30382 2 1.21252
v 0.309892 -2 1.21098
v -1.18125 2 0.408835
v 0.309892 2 1.21098
v 0.315955 -2 1.20941
v -1.17919 -2 0.414748
v -1.17919 2 0.414748
v 0.322011 -2 1.20781
v 0.315955 2 1.20941
v -1.17709 -2 0.420652
v -1.17709 2 0.420652
v 0.328059 -2 1.20618
v -1.17497 -2 0.426544
v 0.322011 2 1.20781
v -1.17282 -2 0.432426
v -1.17497 2 0.426544
v 0.328059 2 1.20618
v 0.334098 -2 1.20452
v -1.17282 2 0.432426
v 0.334098 2 1.20452
v 0.340129 -2 1.20283
v -1.17064 -2 0.438297
v -1.17064 2 0.438297
v 0.340129 2 1.20283
v 0.346152 -2 1.20112
v -1.16843 2 0.444157
v -1.16843 -2 0.444157
v -1.16619 2 0.450006
v 0.346152 2 1.20112
v 0.352166 -2 1.19937
v -1.16619 -2 0.450006
v 0.358171 -2 1.19759
v 0.352166 2 1.19937
v -1.16392 2 0.455843
v -1.16392 -2 0.455843
v -1.16162 -2 0.461669
v 0.364167 -2 1.19578
v 0.358171 2 1.19759
v -1.16162 2 0.461669
v 0.370154 -2 1.19394
v 0.364167 2 1.19578
v -1.15929 2 0.467484
v -1.15929 -2 0.467484
v 0.376131 -2 1.19207
v 0.370154 2 1.19394
v -1.15694 2 0.473287
v -1.15694 -2 0.473287
v 0.376131 2 1.19207
v -1.15455 2 0.479077
v -1.15455 -2 0.479077
v -1.15213 -2 0.484856
v 0.382099 -2 1.19017
v 0.388058 -2 1.18824
v -1.15213 2 0.484856
v 0.382099 2 1.19017
v 0.394007 -2 1.18628
v -1.14969 2 0.490623
v 0.388058 2 1.18824
v -1.14969 -2 0.490623
v 0.399945 -2 1.18429
v -1.14722 2 0.496377
v 0.394007 2 1.18628
v -1.14722 -2 0.496377
v 0.405874 -2 1.18227
v -1.14472 2 0.502119
v 0.399945 2 1.18429
v -1.14472 -2 0.502119
v -1.14219 -2 0.507849
v 0.411793 -2 1.18022
v -1.14219 2 0.507849
v 0.405874 2 1.18227
v -1.13963 2 0.513565
v 0.417701 -2 1.17814
v -1.13963 -2 0.513565
v 0.411793 2 1.18022
v -1.13704 2 0.519269
v 0.423599 -2 1.17604
v -1.13704 -2 0.519269
v 0.417701 2 1.17814
v -1.13442 2 0.524959
v 0.429486 -2 1.1739
v -1.13442 -2 0.524959
v -1.13178 -2 0.530637
v 0.423599 2 1.17604
v -1.13178 2 0.530637
v 0.435363 -2 1.17173
v 0.429486 2 1.1739
v -1.12911 -2 0.536301
v 0.441228 -2 1.16954
v -1.12911 2 0.536301
v 0.435363 2 1.17173
v -1.12641 -2 0.541952
v 0.447083 -2 1.16731
v -1.12641 2 0.541952
v 0.441228 2 1.16954
v -1.12368 -2 0.547589
v -1.12092 -2 0.553212
v 0.452926 -2 1.16506
v -1.12368 2 0.547589
v 0.447083 2 1.16731
v -1.12092 2 0.553212
v 0.458758 -2 1.16277
v 0.452926 2 1.16506
v -1.11813 -2 0.558821
v -1.11813 2 0.558821
v 0.464578 -2 1.16046
v 0.458758 2 1.16277
v -1.11532 -2 0.564417
v -1.11532 2 0.564417
v 0.470387 -2 1.15812
v 0.464578 2 1.16046
v -1.11248 -2 0.569998
v -1.10961 -2 0.575565
v 0.476184 -2 1.15575
v -1.11248 2 0.569998
v 0.470387 2 1.15812
v -1.10961 2 0.575565
v 0.481968 -2 1.15335
v 0.476184 2 1.15575
v -1.10671 -2 0.581117
v 0.481968 2 1.15335
v -1.10671 2 0.581117
v 0.487741 -2 1.15092
v -1.10378 2 0.586655
v -1.10378 -2 0.586655
v 0.487741 2 1.15092
v 0.493502 -2 1.14846
v -1.10083 2 0.592178
v -1.10083 -2 0.592178
v -1.09785 -2 0.597687
v 0.493502 2 1.14846
v 0.49925 -2 1.14597
v -1.09785 2 0.597687
v 0.49925 2 1.14597
v 0.504986 -2 1.14346
v -1.09484 2 0.60318
v -1.09484 -2 0.60318
v 0.504986 2 1.14346
v 0.510708 -2 1.14091
v -1.0918 2 0.608658
v -1.0918 -2 0.608658
v 0.510708 2 1.14091
v 0.516419 -2 1.13834
v -1.08874 2 0.614121
v -1.08874 -2 0.614121
v -1.08565 -2 0.619568
v 0.516419 2 1.13834
v -1.08565 2 0.619568
v 0.522116 2 1.13574
v 0.522116 -2 1.13574
v 0.5278 -2 1.13311
v -1.08253 2 0.625
v -1.08253 -2 0.625
v 0.533471 -2 1.13045
v -1.07939 2 0.630416
v 0.5278 2 1.13311
v -1.07939 -2 0.630416
v 0.539128 -2 1.12776
v -1.07621 2 0.635817
v 0.533471 2 1.13045
v -1.07621 -2 0.635817
v -1.07302 -2 0.641201
v 0.544772 -2 1.12504
v 0.539128 2 1.12776
v -1.07302 2 0.641201
v 0.544772 2 1.12504
v -1.06979 2 0.646569
v -1.06979 -2 0.646569
v 0.550402 -2 1.1223
v 0.556018 -2 1.11953
v -1.06654 2 0.651921
v 0.550402 2 1.1223
v -1.06654 -2 0.651921
v -1.06326 2 0.657257
v 0.556018 2 1.11953
v -1.06326 -2 0.657257
v -1.05995 -2 0.662576
v 0.561621 -2 1.11673
v 0.567209 -2 1.1139
v -1.05995 2 0.662576
v 0.561621 2 1.11673
v -1.05662 2 0.667879
v -1.05662 -2 0.667879
v 0.567209 2 1.1139
v -1.05326 2 0.673164
v 0.572783 -2 1.11104
v 0.578343 -2 1.10816
v -1.05326 -2 0.673164
v 0.572783 2 1.11104
v -1.04987 2 0.678433
v -1.04987 -2 0.678433
v -1.04646 -2 0.683685
v 0.578343 2 1.10816
v -1.04646 2 0.683685
v 0.583888 -2 1.10525
v 0.589419 -2 1.10231
v 0.583888 2 1.10525
v -1.04302 2 0.68892
v -1.04302 -2 0.68892
v 0.589419 2 1.10231
v -1.03955 2 0.694137
v -1.03955 -2 0.694137
v 0.594934 -2 1.09934
v 0.594934 2 1.09934
v -1.03606 2 0.699337
v -1.03606 -2 0.699337
v -1.03255 -2 0.70452
v 0.600435 -2 1.09635
v 0.605921 -2 1.09333
v 0.600435 2 1.09635
v -1.03255 2 0.70452
v 0.605921 2 1.09333
v -1.029 2 0.709684
v -1.029 -2 0.709684
v 0.611391 -2 1.09028
v 0.616846 -2 1.0872
v 0.611391 2 1.09028
v -1.02543 -2 0.714831
v -1.02543 2 0.714831
v -1.02184 2 0.71996
v 0.616846 2 1.0872
v -1.02184 -2 0.71996
v -1.01822 -2 0.725071
v 0.622286 2 1.08409
v 0.622286 -2 1.08409
v -1.01822 2 0.725071
v 0.62771 -2 1.08096
v -1.01457 2 0.730164
v 0.62771 2 1.08096
v -1.01457 -2 0.730164
v -1.0109 2 0.735238
v 0.633118 2 1.0778
v 0.633118 -2 1.0778
v 0.638511 -2 1.07462
v -1.0109 -2 0.735238
v -1.00721 -2 0.740294
v -1.00348 -2 0.745331
v -1.00721 2 0.740294
v 0.638511 2 1.07462
v -1.00348 2 0.745331
v 0.643887 2 1.07141
v 0.643887 -2 1.07141
v 0.649247 -2 1.06817
v -0.999737 -2 0.75035
v -0.999737 2 0.75035
v 0.649247 2 1.06817
v -0.995965 -2 0.75535
v -0.995965 2 0.75535
v 0.654591 2 1.0649
v 0.654591 -2 1.0649
v 0.659919 -2 1.06161
v -0.992168 -2 0.76033
v -0.988346 -2 0.765292
v -0.992168 2 0.76033
v 0.659919 2 1.06161
v -0.988346 2 0.765292
v 0.665229 2 1.05829
v 0.665229 -2 1.05829
v -0.984499 -2 0.770235
v -0.984499 2 0.770235
v 0.670524 2 1.05494
v 0.670524 -2 1.05494
v -0.980627 -2 0.775158
v 0.675801 -2 1.05157
v -0.980627 2 0.775158
v 0.675801 2 1.05157
v -0.976731 -2 0.780062
v -0.972811 -2 0.784946
v -0.976731 2 0.780062
v 0.681061 2 1.04817
v 0.681061 -2 1.04817
v 0.686305 -2 1.04474
v -0.972811 2 0.784946
v -0.968865 -2 0.78981
v 0.686305 2 1.04474
v -0.968865 2 0.78981
v -0.964896 -2 0.794655
v 0.691531 2 1.04129
v 0.691531 -2 1.04129
v -0.964896 2 0.794655
v 0.696739 -2 1.03781
v -0.960902 -2 0.799479
v -0.960902 2 0.799479
v 0.696739 2 1.03781
v -0.956884 -2 0.804284
v -0.952842 -2 0.809068
v 0.701931 -2 1.03431
v 0.707104 -2 1.03078
v -0.956884 2 0.804284
v 0.701931 2 1.03431
v -0.952842 2 0.809068
v 0.707104 2 1.03078
v -0.948777 -2 0.813832
v 0.71226 -2 1.02722
v -0.948777 2 0.813832
v 0.717398 -2 1.02364
v 0.71226 2 1.02722
v -0.944687 -2 0.818576
v -0.944687 2 0.818576
v 0.717398 2 1.02364
v -0.940574 -2 0.823299
v -0.936437 -2 0.828001
v -0.940574 2 0.823299
v 0.722518 2 1.02003
v 0.722518 -2 1.02003
v 0.72762 -2 1.0164
v -0.936437 2 0.828001
v 0.72762 2 1.0164
v -0.932276 -2 0.832683
v -0.932276 2 0.832683
v 0.732703 -2 1.01274
v 0.737768 -2 1.00906
v 0.732703 2 1.01274
v -0.928092 -2 0.837344
v -0.928092 2 0.837344
v 0.737768 2 1.00906
v -0.923885 -2 0.841983
v -0.919655 -2 0.846602
v -0.923885 2 0.841983
v 0.742815 -2 1.00535
v 0.747843 -2 1.00161
v 0.742815 2 1.00535
v -0.919655 2 0.846602
v 0.747843 2 1.00161
v -0.915401 -2 0.851199
v -0.915401 2 0.851199
v 0.752852 -2 0.997854
v 0.757842 -2 0.99407
v -0.911125 2 0.855775
v -0.911125 -2 0.855775
v 0.752852 2 0.997854
v -0.906826 2 0.86033
v 0.757842 2 0.99407
v -0.906826 -2 0.86033
v -0.902504 -2 0.864863
v -0.902504 2 0.864863
v 0.762814 2 0.99026
v 0.762814 -2 0.99026
v 0.767766 -2 0.986426
v -0.898159 2 0.869374
v -0.898159 -2 0.869374
v 0.767766 2 0.986426
v -0.893792 2 0.873863
v -0.893792 -2 0.873863
v 0.772699 2 0.982566
v 0.772699 -2 0.982566
v 0.777612 -2 0.978682
v -0.889402 -2 0.87833
v -0.889402 2 0.87833
v -0.88499 -2 0.882776
v 0.777612 2 0.978682
v -0.88499 2 0.882776
v 0.782506 2 0.974774
v 0.782506 -2 0.974774
v -0.880556 -2 0.887199
v -0.880556 2 0.887199
v 0.78738 2 0.970841
v 0.78738 -2 0.970841
v 0.792235 -2 0.966884
v -0.876099 -2 0.8916
v -0.876099 2 0.8916
v 0.792235 2 0.966884
v -0.871621 -2 0.895978
v -0.867121 -2 0.900334
v -0.871621 2 0.895978
v 0.797069 2 0.962902
v 0.797069 -2 0.962902
v 0.801884 -2 0.958896
v -0.867121 2 0.900334
v 0.801884 2 0.958896
v -0.862599 -2 0.904668
v -0.862599 2 0.904668
v 0.806679 2 0.954866
v -0.858055 -2 0.908978
v 0.806679 -2 0.954866
v 0.811453 -2 0.950812
v -0.858055 2 0.908978
v -0.85349 -2 0.913266
v 0.811453 2 0.950812
v -0.848903 -2 0.917531
v -0.85349 2 0.913266
v 0.816207 2 0.946735
v -0.848903 2 0.917531
v 0.816207 -2 0.946735
v 0.82094 -2 0.942633
v -0.844295 -2 0.921773
v 0.82094 2 0.942633
v -0.844295 2 0.921773
v -0.839666 -2 0.925992
v 0.825653 2 0.938508
v -0.839666 2 0.925992
v 0.825653 -2 0.938508
v 0.830345 -2 0.934359
v -0.835016 -2 0.930187
v -0.830345 -2 0.934359
v -0.835016 2 0.930187
v 0.830345 2 0.934359
v -0.830345 2 0.934359
v 0.835016 2 0.930187
v 0.835016 -2 0.930187
v 0.839666 -2 0.925992
v -0.825653 -2 0.938508
v -0.825653 2 0.938508
v 0.839666 2 0.925992
v -0.82094 -2 0.942633
v -0.82094 2 0.942633
v 0.844295 2 0.921773
v 0.844295 -2 0.921773
v 0.848903 -2 0.917531
v -0.816207 -2 0.946735
v -0.811453 -2 0.950812
v -0.816207 2 0.946735
v 0.848903 2 0.917531
v -0.811453 2 0.950812
v 0.85349 2 0.913266
v 0.85349 -2 0.913266
v 0.858055 -2 0.908978
v -0.806679 2 0.954866
v -0.806679 -2 0.954866
v 0.858055 2 0.908978
v -0.801884 2 0.958896
v -0.801884 -2 0.958896
v 0.862599 -2 0.904668
v 0.862599 2 0.904668
v -0.797069 2 0.962902
v 0.867121 -2 0.900334
v -0.797069 -2 0.962902
v -0.792235 -2 0.966884
v -0.792235 2 0.966884
v 0.867121 2 0.900334
v 0.871621 2 0.895978
v 0.871621 -2 0.895978
v -0.78738 2 0.970841
v 0.876099 -2 0.8916
v -0.78738 -2 0.970841
v -0.782506 2 0.974774
v 0.876099 2 0.8916
v -0.782506 -2 0.974774
v -0.777612 2 0.978682
v 0.880556 2 0.887199
v 0.880556 -2 0.887199
v -0.777612 -2 0.978682
v 0.88499 -2 0.882776
v -0.772699 -2 0.982566
v -0.772699 2 0.982566
v 0.88499 2 0.882776
v -0.767766 2 0.986426
v -0.767766 -2 0.986426
v 0.889402 2 0.87833
v 0.889402 -2 0.87833
v -0.762814 2 0.99026
v 0.893792 -2 0.873863
v -0.762814 -2 0.99026
v 0.898159 -2 0.869374
v 0.893792 2 0.873863
v -0.757842 2 0.99407
v -0.757842 -2 0.99407
v 0.898159 2 0.869374
v -0.752852 -2 0.997854
v -0.752852 2 0.997854
v 0.902504 -2 0.864863
v 0.906826 -2 0.86033
v 0.902504 2 0.864863
v -0.747843 2 1.00161
v -0.747843 -2 1.00161
v 0.906826 2 0.86033
v -0.742815 2 1.00535
v -0.742815 -2 1.00535
v 0.911125 -2 0.855775
v 0.915401 -2 0.851199
v 0.911125 2 0.855775
v -0.737768 2 1.00906
v -0.737768 -2 1.00906
v -0.732703 -2 1.01274
v 0.915401 2 0.851199
v -0.732703 2 1.01274
v 0.919655 -2 0.846602
v 0.923885 -2 0.841983
v -0.72762 -2 1.0164
v 0.919655 2 0.846602
v -0.72762 2 1.0164
v -0.722518 -2 1.02003
v 0.923885 2 0.841983
v -0.722518 2 1.02003
v 0.928092 -2 0.837344
v 0.932276 -2 0.832683
v -0.717398 -2 1.02364
v -0.71226 -2 1.02722
v 0.928092 2 0.837344
v -0.717398 2 1.02364
v 0.932276 2 0.832683
v -0.71226 2 1.02722
v -0.707104 -2 1.03078
v 0.936437 -2 0.828001
v 0.940574 -2 0.823299
v -0.707104 2 1.03078
v 0.936437 2 0.828001
v -0.701931 -2 1.03431
v -0.701931 2 1.03431
v 0.940574 2 0.823299
v -0.696739 -2 1.03781
v -0.691531 -2 1.04129
v 0.944687 -2 0.818576
v 0.948777 -2 0.813832
v -0.696739 2 1.03781
v 0.944687 2 0.818576
v -0.691531 2 1.04129
v 0.948777 2 0.813832
v -0.686305 -2 1.04474
v 0.952842 -2 0.809068
v 0.956884 -2 0.804284
v -0.686305 2 1.04474
v 0.952842 2 0.809068
v -0.681061 2 1.04817
v -0.681061 -2 1.04817
v 0.956884 2 0.804284
v -0.675801 2 1.05157
v -0.675801 -2 1.05157
v -0.670524 -2 1.05494
v 0.960902 -2 0.799479
v 0.964896 -2 0.794655
v 0.960902 2 0.799479
v -0.670524 2 1.05494
v 0.964896 2 0.794655
v -0.665229 2 1.05829
v -0.665229 -2 1.05829
v 0.968865 -2 0.78981
v 0.972811 -2 0.784946
v 0.968865 2 0.78981
v -0.659919 2 1.06161
v -0.659919 -2 1.06161
v 0.972811 2 0.784946
v -0.654591 2 1.0649
v -0.654591 -2 1.0649
v -0.649247 -2 1.06817
v 0.976731 2 0.780062
v 0.976731 -2 0.780062
v 0.980627 -2 0.775158
v -0.649247 2 1.06817
v 0.980627 2 0.775158
v -0.643887 2 1.07141
v -0.643887 -2 1.07141
v 0.984499 2 0.770235
v -0.638511 2 1.07462
v 0.984499 -2 0.770235
v 0.988346 -2 0.765292
v -0.638511 -2 1.07462
v -0.633118 2 1.0778
v 0.988346 2 0.765292
v 0.992168 -2 0.76033
v -0.633118 -2 1.0778
v -0.62771 2 1.08096
v 0.992168 2 0.76033
v 0.995965 -2 0.75535
v -0.62771 -2 1.08096
v -0.622286 -2 1.08409
v -0.622286 2 1.08409
v 0.995965 2 0.75535
v -0.616846 2 1.0872
v 0.999737 2 0.75035
v -0.616846 -2 1.0872
v 0.999737 -2 0.75035
v 1.00348 -2 0.745331
v -0.611391 2 1.09028
v -0.611391 -2 1.09028
v 1.00721 -2 0.740294
v 1.00348 2 0.745331
v -0.605921 2 1.09333
v -0.605921 -2 1.09333
v 1.0109 -2 0.735238
v -0.600435 -2 1.09635
v 1.00721 2 0.740294
v -0.600435 2 1.09635
v 1.0109 2 0.735238
v -0.594934 2 1.09934
v -0.594934 -2 1.09934
v 1.01457 -2 0.730164
v 1.01822 -2 0.725071
v 1.01457 2 0.730164
v -0.589419 2 1.10231
v -0.589419 -2 1.10231
v 1.02184 -2 0.71996
v 1.01822 2 0.725071
v -0.583888 2 1.10525
v -0.583888 -2 1.10525
v 1.02543 -2 0.714831
v -0.578343 -2 1.10816
v 1.02184 2 0.71996
v -0.578343 2 1.10816
v 1.02543 2 0.714831
v -0.572783 2 1.11104
v -0.572783 -2 1.11104
v 1.029 -2 0.709684
v 1.03255 -2 0.70452
v 1.029 2 0.709684
v -0.567209 2 1.1139
v -0.567209 -2 1.1139
v 1.03606 -2 0.699337
v 1.03255 2 0.70452
v -0.561621 2 1.11673
v -0.561621 -2 1.11673
v -0.556018 -2 1.11953
v 1.03606 2 0.699337
v -0.556018 2 1.11953
v 1.03955 -2 0.694137
v 1.04302 -2 0.68892
v 1.03955 2 0.694137
v -0.550402 -2 1.1223
v -0.550402 2 1.1223
v 1.04646 -2 0.683685
v -0.544772 2 1.12504
v 1.04302 2 0.68892
v -0.544772 -2 1.12504
v 1.04987 -2 0.678433
v 1.04646 2 0.683685
v -0.539128 2 1.12776
v -0.539128 -2 1.12776
v -0.533471 -2 1.13045
v -0.533471 2 1.13045
v 1.04987 2 0.678433
v 1.05326 -2 0.673164
v 1.05662 -2 0.667879
v -0.5278 2 1.13311
v 1.05326 2 0.673164
v -0.5278 -2 1.13311
v 1.05995 -2 0.662576
v 1.05662 2 0.667879
v -0.522116 2 1.13574
v -0.522116 -2 1.13574
v -0.516419 -2 1.13834
v 1.06326 -2 0.657257
v -0.510708 -2 1.14091
v 1.05995 2 0.662576
v -0.516419 2 1.13834
v -0.510708 2 1.14091
v 1.06326 2 0.657257
v -0.504986 -2 1.14346
v 1.06654 -2 0.651921
v -0.504986 2 1.14346
v 1.06979 -2 0.646569
v 1.06654 2 0.651921
v -0.49925 -2 1.14597
v 1.06979 2 0.646569
v -0.49925 2 1.14597
v 1.07302 -2 0.641201
v -0.493502 -2 1.14846
v -0.487741 -2 1.15092
v -0.493502 2 1.14846
v 1.07302 2 0.641201
v 1.07621 -2 0.635817
v -0.487741 2 1.15092
v 1.07621 2 0.635817
v -0.481968 -2 1.15335
v -0.481968 2 1.15335
v 1.07939 2 0.630416
v 1.07939 -2 0.630416
v 1.08253 -2 0.625
v -0.476184 -2 1.15575
v -0.476184 2 1.15575
v 1.08253 2 0.625
v 1.08565 -2 0.619568
v -0.470387 -2 1.15812
v -0.464578 -2 1.16046
v -0.470387 2 1.15812
v 1.08565 2 0.619568
v 1.08874 -2 0.614121
v -0.464578 2 1.16046
v 1.08874 2 0.614121
v -0.458758 -2 1.16277
v -0.458758 2 1.16277
v 1.0918 2 0.608658
v 1.0918 -2 0.608658
v 1.09484 -2 0.60318
v -0.452926 -2 1.16506
v -0.452926 2 1.16506
v 1.09484 2 0.60318
v 1.09785 -2 0.597687
v -0.447083 -2 1.16731
v -0.441228 -2 1.16954
v -0.447083 2 1.16731
v 1.09785 2 0.597687
v 1.10083 -2 0.592178
v -0.441228 2 1.16954
v 1.10083 2 0.592178
v -0.435363 -2 1.17173
v -0.435363 2 1.17173
v 1.10378 2 0.586655
v -0.429486 -2 1.1739
v 1.10378 -2 0.586655
v 1.10671 -2 0.581117
v -0.429486 2 1.1739
v -0.423599 -2 1.17604
v 1.10671 2 0.581117
v -0.417701 -2 1.17814
v 1.10961 -2 0.575565
v -0.423599 2 1.17604
v 1.10961 2 0.575565
v 1.11248 -2 0.569998
v -0.417701 2 1.17814
v -0.411793 -2 1.18022
v 1.11248 2 0.569998
v -0.411793 2 1.18022
v 1.11532 -2 0.564417
v -0.405874 -2 1.18227
v 1.11813 -2 0.558821
v 1.11532 2 0.564417
v -0.405874 2 1.18227
v 1.12092 -2 0.553212
v -0.399945 -2 1.18429
v -0.394007 -2 1.18628
v 1.11813 2 0.558821
v -0.399945 2 1.18429
v -0.394007 2 1.18628
v 1.12368 -2 0.547589
v 1.12092 2 0.553212
v -0.388058 -2 1.18824
v 1.12368 2 0.547589
v -0.388058 2 1.18824
v -0.382099 2 1.19017
v 1.12641 2 0.541952
v 1.12641 -2 0.541952
v -0.382099 -2 1.19017
v 1.12911 -2 0.536301
v -0.376131 2 1.19207
v 1.13178 -2 0.530637
v -0.376131 -2 1.19207
v -0.370154 -2 1.19394
v 1.12911 2 0.536301
v -0.370154 2 1.19394
v 1.13442 -2 0.524959
v 1.13178 2 0.530637
v -0.364167 2 1.19578
v -0.364167 -2 1.19578
v 1.13442 2 0.524959
v -0.358171 2 1.19759
v -0.358171 -2 1.19759
v 1.13704 -2 0.519269
v 1.13963 -2 0.513565
v 1.13704 2 0.519269
v -0.352166 -2 1.19937
v -0.352166 2 1.19937
v -0.346152 -2 1.20112
v 1.14219 -2 0.507849
v 1.13963 2 0.513565
v -0.346152 2 1.20112
v 1.14219 2 0.507849
v 1.14472 -2 0.502119
v -0.340129 -2 1.20283
v -0.340129 2 1.20283
v 1.14472 2 0.502119
v -0.334098 -2 1.20452
v -0.334098 2 1.20452
v 1.14722 2 0.496377
v 1.14722 -2 0.496377
v 1.14969 -2 0.490623
v -0.328059 -2 1.20618
v -0.322011 -2 1.20781
v -0.328059 2 1.20618
v 1.14969 2 0.490623
v 1.15213 -2 0.484856
v -0.322011 2 1.20781
v 1.15213 2 0.484856
v -0.315955 -2 1.20941
v 1.15455 -2 0.479077
v -0.315955 2 1.20941
v 1.15455 2 0.479077
v -0.309892 -2 1.21098
v -0.309892 2 1.21098
v 1.15694 2 0.473287
v -0.30382 -2 1.21252
v 1.15694 -2 0.473287
v -0.297741 -2 1.21402
v 1.15929 -2 0.467484
v -0.30382 2 1.21252
v 1.15929 2 0.467484
v -0.297741 2 1.21402
v 1.16162 -2 0.461669
v -0.291654 -2 1.2155
v 1.16162 2 0.461669
v 1.16392 -2 0.455843
v -0.291654 2 1.2155
v -0.285561 -2 1.21695
v 1.16392 2 0.455843
v -0.285561 2 1.21695
v -0.279459 -2 1.21836
v -0.273351 -2 1.21975
v 1.16619 2 0.450006
v 1.16619 -2 0.450006
v -0.279459 2 1.21836
v -0.273351 2 1.21975
v 1.16843 2 0.444157
v 1.16843 -2 0.444157
v 1.17064 -2 0.438297
v -0.267236 -2 1.2211
v -0.267236 2 1.2211
v 1.17064 2 0.438297
v 1.17282 -2 0.432426
v -0.261115 -2 1.22242
v -0.261115 2 1.22242
v 1.17282 2 0.432426
v 1.17497 -2 0.426544
v -0.254987 -2 1.22372
v -0.254987 2 1.22372
v 1.17497 2 0.426544
v -0.248852 -2 1.22498
v -0.242711 -2 1.22621
v 1.17709 2 0.420652
v 1.17709 -2 0.420652
v -0.248852 2 1.22498
v 1.17919 -2 0.414748
v -0.242711 2 1.22621
v 1.17919 2 0.414748
v 1.18125 -2 0.408835
v -0.236564 2 1.22741
v -0.236564 -2 1.22741
v 1.18125 2 0.408835
v 1.18328 -2 0.402911
v -0.230411 2 1.22858
v -0.230411 -2 1.22858
v 1.18328 2 0.402911
v -0.224252 2 1.22972
v -0.224252 -2 1.22972
v -0.218088 -2 1.23083
v 1.18529 2 0.396977
v 1.18529 -2 0.396977
v 1.18726 -2 0.391033
v -0.218088 2 1.23083
v 1.18726 2 0.391033
v 1.18921 -2 0.38508
v -0.211918 2 1.23191
v -0.211918 -2 1.23191
v 1.18921 2 0.38508
v 1.19112 -2 0.379116
v -0.205743 2 1.23295
v -0.205743 -2 1.23295
v 1.19112 2 0.379116
v -0.199563 2 1.23397
v -0.199563 -2 1.23397
v -0.193378 -2 1.23495
v 1.19301 -2 0.373144
v 1.19301 2 0.373144
v 1.19486 -2 0.367161
v -0.193378 2 1.23495
v 1.19669 -2 0.36117
v -0.187188 2 1.2359
v 1.19486 2 0.367161
v -0.187188 -2 1.2359
v 1.19669 2 0.36117
v 1.19848 -2 0.355169
v -0.180993 2 1.23683
v -0.180993 -2 1.23683
v 1.19848 2 0.355169
v -0.174793 2 1.23772
v -0.174793 -2 1.23772
v -0.16859 -2 1.23858
v 1.20024 2 0.34916
v -0.16859 2 1.23858
v 1.20024 -2 0.34916
v 1.20198 -2 0.343142
v -0.162382 2 1.23941
v -0.162382 -2 1.23941
v 1.20198 2 0.343142
v 1.20368 -2 0.337115
v -0.156169 2 1.24021
v 1.20536 -2 0.33108
v -0.156169 -2 1.24021
v 1.20368 2 0.337115
v -0.149953 2 1.24097
v -0.149953 -2 1.24097
v -0.143734 -2 1.24171
v 1.20536 2 0.33108
v 1.207 -2 0.325036
v 1.20861 -2 0.318984
v -0.143734 2 1.24171
v 1.207 2 0.325036
v -0.13751 -2 1.24241
v 1.2102 -2 0.312924
v -0.13751 2 1.24241
v 1.20861 2 0.318984
v -0.131283 -2 1.24309
v 1.21175 -2 0.306857
v -0.131283 2 1.24309
v 1.2102 2 0.312924
v -0.125053 -2 1.24373
v -0.11882 -2 1.24434
v -0.125053 2 1.24373
v 1.21175 2 0.306857
v -0.11882 2 1.24434
v 1.21327 -2 0.300782
v 1.21476 -2 0.294699
v 1.21327 2 0.300782
v -0.112584 -2 1.24492
v -0.112584 2 1.24492
v 1.21623 -2 0.288608
v 1.21476 2 0.294699
v -0.106345 -2 1.24547
v -0.106345 2 1.24547
v 1.21766 -2 0.282511
v 1.21623 2 0.288608
v -0.100103 -2 1.24599
v -0.0938587 -2 1.24647
v -0.100103 2 1.24599
v 1.21766 2 0.282511
v -0.0938587 2 1.24647
v 1.21906 -2 0.276406
v 1.22043 -2 0.270295
v 1.21906 2 0.276406
v -0.0876121 2 1.24693
v -0.0876121 -2 1.24693
v 1.22177 -2 0.264176
v 1.22043 2 0.270295
v -0.0813633 2 1.24735
v -0.0813633 -2 1.24735
v 1.22307 -2 0.258051
v 1.22177 2 0.264176
v -0.0751124 2 1.24774
v -0.0751124 -2 1.24774
v -0.0688597 -2 1.2481
v 1.22307 2 0.258051
v -0.0688597 2 1.2481
v 1.22435 -2 0.25192
v 1.2256 -2 0.245782
v 1.22435 2 0.25192
v -0.0626052 2 1.24843
v -0.0626052 -2 1.24843
v 1.22681 -2 0.239638
v 1.2256 2 0.245782
v -0.0563492 2 1.24873
v -0.0563492 -2 1.24873
v 1.228 -2 0.233488
v 1.22681 2 0.239638
v -0.0500917 2 1.249
v -0.0500917 -2 1.249
v -0.043833 -2 1.24923
v 1.228 2 0.233488
v -0.043833 2 1.24923
v 1.22915 -2 0.227333
v 1.23028 -2 0.221171
v -0.0375732 2 1.24944
v 1.22915 2 0.227333
v -0.0375732 -2 1.24944
v 1.23137 -2 0.215004
v -0.0313124 2 1.24961
v 1.23028 2 0.221171
v -0.0313124 -2 1.24961
v 1.23243 -2 0.208831
v -0.0250509 2 1.24975
v 1.23137 2 0.215004
v -0.0250509 -2 1.24975
v -0.0187887 -2 1.24986
v -0.0187887 2 1.24986
v 1.23243 2 0.208831
v -0.0125261 2 1.24994
v 1.23346 2 0.202654
v -0.0125261 -2 1.24994
v 1.23346 -2 0.202654
v 1.23446 -2 0.196471
v -0.00626312 2 1.24998
v -0.00626312 -2 1.24998
v 1.23446 2 0.196471
v 1.23543 -2 0.190283
v 1.23543 2 0.190283
v 1.23637 -2 0.184091
v 1.23637 2 0.184091
v 1.23728 2 0.177894
v 1.23728 -2 0.177894
v 1.23815 -2 0.171692
v 1.23815 2 0.171692
v 1.239 -2 0.165486
v 1.239 2 0.165486
v 1.23981 2 0.159276
v 1.23981 -2 0.159276
v 1.24059 -2 0.153062
v 1.24134 -2 0.146844
v 1.24059 2 0.153062
v 1.24206 -2 0.140622
v 1.24134 2 0.146844
v 1.24206 2 0.140622
v 1.24275 -2 0.134397
v 1.24341 -2 0.128169
v 1.24275 2 0.134397
v 1.24404 -2 0.121937
v 1.24341 2 0.128169
v 1.24463 -2 0.115702
v 1.24404 2 0.121937
v 1.24463 2 0.115702
v 1.2452 -2 0.109465
v 1.24573 -2 0.103224
v 1.2452 2 0.109465
v 1.24623 -2 0.0969812
v 1.24573 2 0.103224
v 1.2467 -2 0.0907357
v 1.24623 2 0.0969812
v 1.2467 2 0.0907357
v 1.24714 -2 0.084488
v 1.24755 -2 0.0782381
v 1.24714 2 0.084488
v 1.24793 -2 0.0719863
v 1.24755 2 0.0782381
v 1.24827 -2 0.0657327
v 1.24793 2 0.0719863
v 1.24827 2 0.0657327
v 1.24858 -2 0.0594774
v 1.24887 -2 0.0532206
v 1.24858 2 0.0594774
v 1.24912 -2 0.0469625
v 1.24887 2 0.0532206
v 1.24912 2 0.0469625
v 1.24934 -2 0.0407032
v 1.24934 2 0.0407032
v 1.24953 2 0.0344429
v 1.24953 -2 0.0344429
v 1.24968 -2 0.0281818
v 1.24968 2 0.0281818
v 1.24981 -2 0.0219199
v 1.24981 2 0.0219199
v 1.2499 -2 0.0156574
v 1.2499 2 0.0156574
v 1.24996 2 0.00939463
v 1.24996 -2 0.00939463
v 1.25 -2 0.00313157
v 1.25 2 0.00313157
v 1.25 -2 -0.00313157
v 1.25 2 -0.00313157
v 1.24996 -2 -0.00939463
v 1.24996 2 -0.00939463
v 1.2499 2 -0.0156574
v 1.2499 -2 -0.0156574
v 1.24981 -2 -0.0219199
v 1.24981 2 -0.0219199
v 1.24968 -2 -0.0281818
v 1.24968 2 -0.0281818
v 1.24953 -2 -0.0344429
v 1.24953 2 -0.0344429
v 1.24934 -2 -0.0407032
v 1.24934 2 -0.0407032
v 1.24912 -2 -0.0469625
v 1.24887 -2 -0.0532206
v 1.24912 2 -0.0469625
v 1.24858 -2 -0.0594774
v 1.24887 2 -0.0532206
v 1.24858 2 -0.0594774
v 1.24827 -2 -0.0657327
v 1.24793 -2 -0.0719863
v 1.24827 2 -0.0657327
v 1.24755 -2 -0.0782381
v 1.24793 2 -0.0719863
v 1.24714 -2 -0.084488
v 1.24755 2 -0.0782381
v 1.24714 2 -0.084488
v 1.2467 -2 -0.0907357
v 1.24623 -2 -0.0969812
v 1.2467 2 -0.0907357
v 1.24573 -2 -0.103224
v 1.24623 2 -0.0969812
v 1.2452 -2 -0.109465
v 1.24573 2 -0.103224
v 1.2452 2 -0.109465
v 1.24463 2 -0.115702
v 1.24463 -2 -0.115702
v 1.24404 2 -0.121937
v 1.24404 -2 -0.121937
v 1.24341 -2 -0.128169
v 1.24341 2 -0.128169
v 1.24275 -2 -0.134397
v 1.24275 2 -0.134397
v 1.24206 -2 -0.140622
v 1.24206 2 -0.140622
v 1.24134 2 -0.146844
v 1.24134 -2 -0.146844
v 1.24059 -2 -0.153062
v 1.24059 2 -0.153062
v 1.23981 -2 -0.159276
v 1.23981 2 -0.159276
v 1.239 -2 -0.165486
v 1.239 2 -0.165486
v 1.23815 2 -0.171692
v 1.23815 -2 -0.171692
v 1.23728 -2 -0.177894
v 1.23728 2 -0.177894
v 1.23637 -2 -0.184091
v 1.23637 2 -0.184091
v 1.23543 -2 -0.190283
v 1.23543 2 -0.190283
v 1.23446 2 -0.196471
v 1.23446 -2 -0.196471
v 1.23346 -2 -0.202654
v 1.23346 2 -0.202654
v 1.23243 -2 -0.208831
v 1.23243 2 -0.208831
v 1.23137 -2 -0.215004
v 1.23137 2 -0.215004
v 1.23028 2 -0.221171
v 1.23028 -2 -0.221171
v 1.22915 -2 -0.227333
v 1.22915 2 -0.227333
v 1.228 -2 -0.233488
v 1.228 2 -0.233488
v 1.22681 -2 -0.239638
v 1.22681 2 -0.239638
v 1.2256 2 -0.245782
v 1.2256 -2 -0.245782
v 1.22435 -2 -0.25192
v 1.22307 -2 -0.258051
v 1.22435 2 -0.25192
v 1.22177 -2 -0.264176
v 1.22307 2 -0.258051
v 1.22177 2 -0.264176
v 1.22043 2 -0.270295
v 1.22043 -2 -0.270295
v 1.21906 -2 -0.276406
v 1.21906 2 -0.276406
v 1.21766 -2 -0.282511
v 1.21766 2 -0.282511
v 1.21623 -2 -0.288608
v 1.21623 2 -0.288608
v 1.21476 -2 -0.294699
v 1.21327 -2 -0.300782
v 1.21476 2 -0.294699
v 1.21327 2 -0.300782
v 1.21175 -2 -0.306857
v 1.21175 2 -0.306857
v 1.2102 -2 -0.312924
v 1.20861 -2 -0.318984
v 1.2102 2 -0.312924
v 1.20861 2 -0.318984
v 1.207 -2 -0.325036
v 1.20536 -2 -0.33108
v 1.207 2 -0.325036
v 1.20536 2 -0.33108
v 1.20368 -2 -0.337115
v 1.20368 2 -0.337115
v 1.20198 -2 -0.343142
v 1.20024 -2 -0.34916
v 1.20198 2 -0.343142
v 1.20024 2 -0.34916
v 1.19848 -2 -0.355169
v 1.19848 2 -0.355169
v 1.19669 -2 -0.36117
v 1.19486 -2 -0.367161
v 1.19669 2 -0.36117
v 1.19486 2 -0.367161
v 1.19301 -2 -0.373144
v 1.19112 -2 -0.379116
v 1.19301 2 -0.373144
v 1.19112 2 -0.379116
v 1.18921 -2 -0.38508
v 1.18921 2 -0.38508
v 1.18726 -2 -0.391033
v 1.18529 -2 -0.396977
v 1.18726 2 -0.391033
v 1.18529 2 -0.396977
v 1.18328 -2 -0.402911
v 1.18328 2 -0.402911
v 1.18125 -2 -0.408835
v 1.17919 -2 -0.414748
v 1.18125 2 -0.408835
v 1.17919 2 -0.414748
v 1.17709 2 -0.420652
v 1.17709 -2 -0.420652
v 1.17497 -2 -0.426544
v 1.17497 2 -0.426544
v 1.17282 2 -0.432426
v 1.17282 -2 -0.432426
v 1.17064 2 -0.438297
v 1.17064 -2 -0.438297
v 1.16843 -2 -0.444157
v 1.16843 2 -0.444157
v 1.16619 2 -0.450006
v 1.16619 -2 -0.450006
v 1.16392 -2 -0.455843
v 1.16162 -2 -0.461669
v 1.16392 2 -0.455843
v 1.16162 2 -0.461669
v 1.15929 -2 -0.467484
v 1.15694 -2 -0.473287
v 1.15929 2 -0.467484
v 1.15694 2 -0.473287
v 1.15455 -2 -0.479077
v 1.15455 2 -0.479077
v 1.15213 -2 -0.484856
v 1.14969 -2 -0.490623
v 1.15213 2 -0.484856
v 1.14969 2 -0.490623
v 1.14722 -2 -0.496377
v 1.14722 2 -0.496377
v 1.14472 -2 -0.502119
v 1.14219 -2 -0.507849
v 1.14472 2 -0.502119
v 1.14219 2 -0.507849
v 1.13963 -2 -0.513565
v 1.13963 2 -0.513565
v 1.13704 -2 -0.519269
v 1.13704 2 -0.519269
v 1.13442 -2 -0.524959
v 1.13178 -2 -0.530637
v 1.13442 2 -0.524959
v 1.13178 2 -0.530637
v 1.12911 -2 -0.536301
v 1.12911 2 -0.536301
v 1.12641 -2 -0.541952
v 1.12641 2 -0.541952
v 1.12368 -2 -0.547589
v 1.12092 -2 -0.553212
v 1.12368 2 -0.547589
v 1.12092 2 -0.553212
v 1.11813 -2 -0.558821
v 1.11813 2 -0.558821
v 1.11532 -2 -0.564417
v 1.11532 2 -0.564417
v 1.11248 2 -0.569998
v 1.11248 -2 -0.569998
v 1.10961 -2 -0.575565
v 1.10961 2 -0.575565
v 1.10671 2 -0.581117
v 1.10671 -2 -0.581117
v 1.10378 2 -0.586655
v 1.10378 -2 -0.586655
v 1.10083 2 -0.592178
v 1.10083 -2 -0.592178
v 1.09785 -2 -0.597687
v 1.09785 2 -0.597687
v 1.09484 2 -0.60318
v 1.09484 -2 -0.60318
v 1.0918 2 -0.608658
v 1.0918 -2 -0.608658
v 1.08874 2 -0.614121
v 1.08874 -2 -0.614121
v 1.08565 -2 -0.619568
v 1.08565 2 -0.619568
v 1.08253 2 -0.625
v 1.08253 -2 -0.625
v 1.07939 2 -0.630416
v 1.07939 -2 -0.630416
v 1.07621 2 -0.635817
v 1.07621 -2 -0.635817
v 1.07302 -2 -0.641201
v 1.07302 2 -0.641201
v 1.06979 -2 -0.646569
v 1.06979 2 -0.646569
v 1.06654 -2 -0.651921
v 1.06654 2 -0.651921
v 1.06326 -2 -0.657257
v 1.05995 -2 -0.662576
v 1.06326 2 -0.657257
v 1.05995 2 -0.662576
v 1.05662 2 -0.667879
v 1.05662 -2 -0.667879
v 1.05326 -2 -0.673164
v 1.04987 -2 -0.678433
v 1.05326 2 -0.673164
v 1.04987 2 -0.678433
v 1.04646 -2 -0.683685
v 1.04646 2 -0.683685
v 1.04302 -2 -0.68892
v 1.04302 2 -0.68892
v 1.03955 -2 -0.694137
v 1.03606 -2 -0.699337
v 1.03955 2 -0.694137
v 1.03606 2 -0.699337
v 1.03255 2 -0.70452
v 1.03255 -2 -0.70452
v 1.029 2 -0.709684
v 1.029 -2 -0.709684
v 1.02543 2 -0.714831
v 1.02543 -2 -0.714831
v 1.02184 -2 -0.71996
v 1.02184 2 -0.71996
v 1.01822 2 -0.725071
v 1.01822 -2 -0.725071
v 1.01457 2 -0.730164
v 1.01457 -2 -0.730164
v 1.0109 2 -0.735238
v 1.0109 -2 -0.735238
v 1.00721 -2 -0.740294
v 1.00721 2 -0.740294
v 1.00348 2 -0.745331
v 1.00348 -2 -0.745331
v 0.999737 2 -0.75035
v 0.999737 -2 -0.75035
v 0.995965 2 -0.75535
v 0.995965 -2 -0.75535
v 0.992168 -2 -0.76033
v 0.992168 2 -0.76033
v 0.988346 2 -0.765292
v 0.988346 -2 -0.765292
v 0.984499 2 -0.770235
v 0.984499 -2 -0.770235
v 0.980627 2 -0.775158
v 0.980627 -2 -0.775158
v 0.976731 -2 -0.780062
v 0.976731 2 -0.780062
v 0.972811 2 -0.784946
v 0.972811 -2 -0.784946
v 0.968865 2 -0.78981
v 0.968865 -2 -0.78981
v 0.964896 2 -0.794655
v 0.964896 -2 -0.794655
v 0.960902 -2 -0.799479
v 0.960902 2 -0.799479
v 0.956884 2 -0.804284
v 0.956884 -2 -0.804284
v 0.952842 2 -0.809068
v 0.952842 -2 -0.809068
v 0.948777 -2 -0.813832
v 0.948777 2 -0.813832
v 0.944687 -2 -0.818576
v 0.944687 2 -0.818576
v 0.940574 -2 -0.823299
v 0.940574 2 -0.823299
v 0.936437 2 -0.828001
v 0.936437 -2 -0.828001
v 0.932276 2 -0.832683
v 0.932276 -2 -0.832683
v 0.928092 2 -0.837344
v 0.928092 -2 -0.837344
v 0.923885 -2 -0.841983
v 0.923885 2 -0.841983
v 0.919655 -2 -0.846602
v 0.919655 2 -0.846602
v 0.915401 -2 -0.851199
v 0.915401 2 -0.851199
v 0.911125 -2 -0.855775
v 0.906826 -2 -0.86033
v 0.911125 2 -0.855775
v 0.906826 2 -0.86033
v 0.902504 -2 -0.864863
v 0.902504 2 -0.864863
v 0.898159 -2 -0.869374
v 0.898159 2 -0.869374
v 0.893792 -2 -0.873863
v 0.889402 -2 -0.87833
v 0.893792 2 -0.873863
v 0.889402 2 -0.87833
v 0.88499 -2 -0.882776
v 0.88499 2 -0.882776
v 0.880556 -2 -0.887199
v 0.880556 2 -0.887199
v 0.876099 -2 -0.8916
v 0.871621 -2 -0.895978
v 0.876099 2 -0.8916
v 0.871621 2 -0.895978
v 0.867121 -2 -0.900334
v 0.867121 2 -0.900334
v 0.862599 -2 -0.904668
v 0.862599 2 -0.904668
v 0.858055 -2 -0.908978
v 0.85349 -2 -0.913266
v 0.858055 2 -0.908978
v 0.85349 2 -0.913266
v 0.848903 -2 -0.917531
v 0.848903 2 -0.917531
v 0.844295 -2 -0.921773
v 0.844295 2 -0.921773
v 0.839666 -2 -0.925992
v 0.835016 -2 -0.930187
v 0.839666 2 -0.925992
v 0.830345 -2 -0.934359
v 0.835016 2 -0.930187
v 0.830345 2 -0.934359
v 0.825653 2 -0.938508
v 0.825653 -2 -0.938508
v 0.82094 -2 -0.942633
v 0.82094 2 -0.942633
v 0.816207 2 -0.946735
v 0.816207 -2 -0.946735
v 0.811453 2 -0.950812
v 0.811453 -2 -0.950812
v 0.806679 2 -0.954866
v 0.806679 -2 -0.954866
v 0.801884 -2 -0.958896
v 0.801884 2 -0.958896
v 0.797069 -2 -0.962902
v 0.797069 2 -0.962902
v 0.792235 -2 -0.966884
v 0.792235 2 -0.966884
v 0.78738 -2 -0.970841
v 0.782506 -2 -0.974774
v 0.78738 2 -0.970841
v 0.782506 2 -0.974774
v 0.777612 2 -0.978682
v 0.777612 -2 -0.978682
v 0.772699 -2 -0.982566
v 0.772699 2 -0.982566
v 0.767766 -2 -0.986426
v 0.762814 -2 -0.99026
v 0.767766 2 -0.986426
v 0.762814 2 -0.99026
v 0.757842 -2 -0.99407
v 0.757842 2 -0.99407
v 0.752852 -2 -0.997854
v 0.752852 2 -0.997854
v 0.747843 -2 -1.00161
v 0.742815 -2 -1.00535
v 0.747843 2 -1.00161
v 0.742815 2 -1.00535
v 0.737768 -2 -1.00906
v 0.737768 2 -1.00906
v 0.732703 -2 -1.01274
v 0.732703 2 -1.01274
v 0.72762 -2 -1.0164
v 0.722518 -2 -1.02003
v 0.72762 2 -1.0164
v 0.722518 2 -1.02003
v 0.717398 -2 -1.02364
v 0.717398 2 -1.02364
v 0.71226 -2 -1.02722
v 0.71226 2 -1.02722
v 0.707104 -2 -1.03078
v 0.701931 -2 -1.03431
v 0.707104 2 -1.03078
v 0.701931 2 -1.03431
v 0.696739 2 -1.03781
v 0.696739 -2 -1.03781
v 0.691531 2 -1.04129
v 0.691531 -2 -1.04129
v 0.686305 2 -1.04474
v 0.686305 -2 -1.04474
v 0.681061 2 -1.04817
v 0.681061 -2 -1.04817
v 0.675801 -2 -1.05157
v 0.675801 2 -1.05157
v 0.670524 2 -1.05494
v 0.670524 -2 -1.05494
v 0.665229 2 -1.05829
v 0.665229 -2 -1.05829
v 0.659919 2 -1.06161
v 0.659919 -2 -1.06161
v 0.654591 -2 -1.0649
v 0.654591 2 -1.0649
v 0.649247 2 -1.06817
v 0.649247 -2 -1.06817
v 0.643887 2 -1.07141
v 0.643887 -2 -1.07141
v 0.638511 2 -1.07462
v 0.638511 -2 -1.07462
v 0.633118 -2 -1.0778
v 0.633118 2 -1.0778
v 0.62771 -2 -1.08096
v 0.62771 2 -1.08096
v 0.622286 -2 -1.08409
v 0.622286 2 -1.08409
v 0.616846 -2 -1.0872
v 0.611391 -2 -1.09028
v 0.616846 2 -1.0872
v 0.611391 2 -1.09028
v 0.605921 -2 -1.09333
v 0.605921 2 -1.09333
v 0.600435 -2 -1.09635
v 0.600435 2 -1.09635
v 0.594934 -2 -1.09934
v 0.589419 -2 -1.10231
v 0.594934 2 -1.09934
v 0.589419 2 -1.10231
v 0.583888 -2 -1.10525
v 0.583888 2 -1.10525
v 0.578343 -2 -1.10816
v 0.578343 2 -1.10816
v 0.572783 -2 -1.11104
v 0.567209 -2 -1.1139
v 0.572783 2 -1.11104
v 0.567209 2 -1.1139
v 0.561621 2 -1.11673
v 0.561621 -2 -1.11673
v 0.556018 -2 -1.11953
v 0.556018 2 -1.11953
v 0.550402 -2 -1.1223
v 0.550402 2 -1.1223
v 0.544772 2 -1.12504
v 0.544772 -2 -1.12504
v 0.539128 -2 -1.12776
v 0.539128 2 -1.12776
v 0.533471 2 -1.13045
v 0.533471 -2 -1.13045
v 0.5278 -2 -1.13311
v 0.5278 2 -1.13311
v 0.522116 2 -1.13574
v 0.522116 -2 -1.13574
v 0.516419 2 -1.13834
v 0.516419 -2 -1.13834
v 0.510708 2 -1.14091
v 0.510708 -2 -1.14091
v 0.504986 -2 -1.14346
v 0.504986 2 -1.14346
v 0.49925 2 -1.14597
v 0.49925 -2 -1.14597
v 0.493502 2 -1.14846
v 0.493502 -2 -1.14846
v 0.487741 2 -1.15092
v 0.487741 -2 -1.15092
v 0.481968 -2 -1.15335
v 0.481968 2 -1.15335
v 0.476184 2 -1.15575
v 0.476184 -2 -1.15575
v 0.470387 2 -1.15812
v 0.470387 -2 -1.15812
v 0.464578 2 -1.16046
v 0.464578 -2 -1.16046
v 0.458758 -2 -1.16277
v 0.458758 2 -1.16277
v 0.452926 2 -1.16506
v 0.452926 -2 -1.16506
v 0.447083 2 -1.16731
v 0.447083 -2 -1.16731
v 0.441228 2 -1.16954
v 0.441228 -2 -1.16954
v 0.435363 -2 -1.17173
v 0.435363 2 -1.17173
v 0.429486 -2 -1.1739
v 0.429486 2 -1.1739
v 0.423599 2 -1.17604
v 0.423599 -2 -1.17604
v 0.417701 2 -1.17814
v 0.417701 -2 -1.17814
v 0.411793 -2 -1.18022
v 0.411793 2 -1.18022
v 0.405874 2 -1.18227
v 0.405874 -2 -1.18227
v 0.399945 2 -1.18429
v 0.399945 -2 -1.18429
v 0.394007 -2 -1.18628
v 0.394007 2 -1.18628
v 0.388058 -2 -1.18824
v 0.382099 -2 -1.19017
v 0.388058 2 -1.18824
v 0.382099 2 -1.19017
v 0.376131 -2 -1.19207
v 0.376131 2 -1.19207
v 0.370154 -2 -1.19394
v 0.370154 2 -1.19394
v 0.364167 -2 -1.19578
v 0.358171 -2 -1.19759
v 0.364167 2 -1.19578
v 0.358171 2 -1.19759
v 0.352166 -2 -1.19937
v 0.352166 2 -1.19937
v 0.346152 -2 -1.20112
v 0.346152 2 -1.20112
v 0.340129 -2 -1.20283
v 0.334098 -2 -1.20452
v 0.340129 2 -1.20283
v 0.334098 2 -1.20452
v 0.328059 -2 -1.20618
v 0.328059 2 -1.20618
v 0.322011 -2 -1.20781
v 0.322011 2 -1.20781
v 0.315955 -2 -1.20941
v 0.309892 -2 -1.21098
v 0.315955 2 -1.20941
v 0.309892 2 -1.21098
v 0.30382 -2 -1.21252
v 0.30382 2 -1.21252
v 0.297741 -2 -1.21402
v 0.297741 2 -1.21402
v 0.291654 -2 -1.2155
v 0.285561 -2 -1.21695
v 0.291654 2 -1.2155
v 0.285561 2 -1.21695
v 0.279459 -2 -1.21836
v 0.279459 2 -1.21836
v 0.273351 -2 -1.21975
v 0.273351 2 -1.21975
v 0.267236 -2 -1.2211
v 0.261115 -2 -1.22242
v 0.267236 2 -1.2211
v 0.261115 2 -1.22242
v 0.254987 2 -1.22372
v 0.254987 -2 -1.22372
v 0.248852 2 -1.22498
v 0.248852 -2 -1.22498
v 0.242711 2 -1.22621
v 0.242711 -2 -1.22621
v 0.236564 -2 -1.22741
v 0.236564 2 -1.22741
v 0.230411 -2 -1.22858
v 0.224252 -2 -1.22972
v 0.230411 2 -1.22858
v 0.218088 -2 -1.23083
v 0.224252 2 -1.22972
v 0.218088 2 -1.23083
v 0.211918 -2 -1.23191
v 0.211918 2 -1.23191
v 0.205743 -2 -1.23295
v 0.205743 2 -1.23295
v 0.199563 -2 -1.23397
v 0.193378 -2 -1.23495
v 0.199563 2 -1.23397
v 0.193378 2 -1.23495
v 0.187188 -2 -1.2359
v 0.187188 2 -1.2359
v 0.180993 -2 -1.23683
v 0.180993 2 -1.23683
v 0.174793 -2 -1.23772
v 0.16859 -2 -1.23858
v 0.174793 2 -1.23772
v 0.16859 2 -1.23858
v 0.162382 -2 -1.23941
v 0.162382 2 -1.23941
v 0.156169 -2 -1.24021
v 0.156169 2 -1.24021
v 0.149953 -2 -1.24097
v 0.143734 -2 -1.24171
v 0.149953 2 -1.24097
v 0.143734 2 -1.24171
v 0.13751 -2 -1.24241
v 0.13751 2 -1.24241
v 0.131283 -2 -1.24309
v 0.131283 2 -1.24309
v 0.125053 -2 -1.24373
v 0.11882 -2 -1.24434
v 0.125053 2 -1.24373
v 0.11882 2 -1.24434
v 0.112584 2 -1.24492
v 0.112584 -2 -1.24492
v 0.106345 2 -1.24547
v 0.106345 -2 -1.24547
v 0.100103 2 -1.24599
v 0.100103 -2 -1.24599
v 0.0938587 -2 -1.24647
v 0.0938587 2 -1.24647
v 0.0876121 2 -1.24693
v 0.0876121 -2 -1.24693
v 0.0813633 2 -1.24735
v 0.0813633 -2 -1.24735
v 0.0751124 2 -1.24774
v 0.0751124 -2 -1.24774
v 0.0688597 -2 -1.2481
v 0.0688597 2 -1.2481
v 0.0626052 2 -1.24843
v 0.0626052 -2 -1.24843
v 0.0563492 2 -1.24873
v 0.0563492 -2 -1.24873
v 0.0500917 2 -1.249
v 0.0500917 -2 -1.249
v 0.043833 2 -1.24923
v 0.043833 -2 -1.24923
v 0.0375732 -2 -1.24944
v 0.0375732 2 -1.24944
v 0.0313124 2 -1.24961
v 0.0313124 -2 -1.24961
v 0.0250509 -2 -1.24975
v 0.0250509 2 -1.24975
v 0.0187887 -2 -1.24986
v 0.0125261 -2 -1.24994
v 0.0187887 2 -1.24986
v 0.0125261 2 -1.24994
v 0.00626312 -2 -1.24998
v 0.00626312 2 -1.24998
v 2.4578e-14 -2 -1.25
v 2.4578e-14 2 -1.25
v -0.00626312 -2 -1.24998
v -0.0125261 -2 -1.24994
v -0.00626312 2 -1.24998
v -0.0125261 2 -1.24994
v -0.0187887 -2 -1.24986
v -0.0187887 2 -1.24986
v -0.0250509 -2 -1.24975
v -0.0250509 2 -1.24975
v -0.0313124 -2 -1.24961
v -0.0375732 -2 -1.24944
v -0.0313124 2 -1.24961
v -0.0375732 2 -1.24944
v -0.043833 -2 -1.24923
v -0.043833 2 -1.24923
v -0.0500917 2 -1.249
v -0.0500917 -2 -1.249
v -0.0563492 2 -1.24873
v -0.0563492 -2 -1.24873
v -0.0626052 -2 -1.24843
v -0.0626052 2 -1.24843
v -0.0688597 2 -1.2481
v -0.0688597 -2 -1.2481
v -0.0751124 2 -1.24774
v -0.0751124 -2 -1.24774
v -0.0813633 2 -1.24735
v -0.0813633 -2 -1.24735
v -0.0876121 -2 -1.24693
v -0.0876121 2 -1.24693
v -0.0938587 2 -1.24647
v -0.0938587 -2 -1.24647
v -0.100103 2 -1.24599
v -0.100103 -2 -1.24599
v -0.106345 2 -1.24547
v -0.106345 -2 -1.24547
v -0.112584 -2 -1.24492
v -0.112584 2 -1.24492
v -0.11882 -2 -1.24434
v -0.11882 2 -1.24434
v -0.125053 2 -1.24373
v -0.125053 -2 -1.24373
v -0.131283 -2 -1.24309
v -0.131283 2 -1.24309
v -0.13751 2 -1.24241
v -0.13751 -2 -1.24241
v -0.143734 2 -1.24171
v -0.143734 -2 -1.24171
v -0.149953 2 -1.24097
v -0.149953 -2 -1.24097
v -0.156169 -2 -1.24021
v -0.156169 2 -1.24021
v -0.162382 2 -1.23941
v -0.162382 -2 -1.23941
v -0.16859 2 -1.23858
v -0.16859 -2 -1.23858
v -0.174793 2 -1.23772
v -0.174793 -2 -1.23772
v -0.180993 -2 -1.23683
v -0.180993 2 -1.23683
v -0.187188 2 -1.2359
v -0.187188 -2 -1.2359
v -0.193378 -2 -1.23495
v -0.193378 2 -1.23495
v -0.199563 2 -1.23397
v -0.199563 -2 -1.23397
v -0.205743 -2 -1.23295
v -0.205743 2 -1.23295
v -0.211918 2 -1.23191
v -0.211918 -2 -1.23191
v -0.218088 2 -1.23083
v -0.218088 -2 -1.23083
v -0.224252 -2 -1.22972
v -0.230411 -2 -1.22858
v -0.224252 2 -1.22972
v -0.230411 2 -1.22858
v -0.236564 -2 -1.22741
v -0.236564 2 -1.22741
v -0.242711 -2 -1.22621
v -0.242711 2 -1.22621
v -0.248852 -2 -1.22498
v -0.254987 -2 -1.22372
v -0.248852 2 -1.22498
v -0.254987 2 -1.22372
v -0.261115 -2 -1.22242
v -0.261115 2 -1.22242
v -0.267236 -2 -1.2211
v -0.267236 2 -1.2211
v -0.273351 -2 -1.21975
v -0.279459 -2 -1.21836
v -0.273351 2 -1.21975
v -0.279459 2 -1.21836
v -0.285561 -2 -1.21695
v -0.285561 2 -1.21695
v -0.291654 -2 -1.2155
v -0.291654 2 -1.2155
v -0.297741 -2 -1.21402
v -0.297741 2 -1.21402
v -0.30382 -2 -1.21252
v -0.309892 -2 -1.21098
v -0.30382 2 -1.21252
v -0.309892 2 -1.21098
v -0.315955 -2 -1.20941
v -0.315955 2 -1.20941
v -0.322011 -2 -1.20781
v -0.322011 2 -1.20781
v -0.328059 -2 -1.20618
v -0.334098 -2 -1.20452
v -0.328059 2 -1.20618
v -0.334098 2 -1.20452
v -0.340129 -2 -1.20283
v -0.340129 2 -1.20283
v -0.346152 -2 -1.20112
v -0.346152 2 -1.20112
v -0.352166 -2 -1.19937
v -0.358171 -2 -1.19759
v -0.352166 2 -1.19937
v -0.358171 2 -1.19759
v -0.364167 2 -1.19578
v -0.364167 -2 -1.19578
v -0.370154 2 -1.19394
v -0.370154 -2 -1.19394
v -0.376131 2 -1.19207
v -0.376131 -2 -1.19207
v -0.382099 -2 -1.19017
v -0.382099 2 -1.19017
v -0.388058 2 -1.18824
v -0.388058 -2 -1.18824
v -0.394007 2 -1.18628
v -0.394007 -2 -1.18628
v -0.399945 -2 -1.18429
v -0.399945 2 -1.18429
v -0.405874 -2 -1.18227
v -0.405874 2 -1.18227
v -0.411793 -2 -1.18022
v -0.411793 2 -1.18022
v -0.417701 -2 -1.17814
v -0.417701 2 -1.17814
v -0.423599 -2 -1.17604
v -0.429486 -2 -1.1739
v -0.423599 2 -1.17604
v -0.429486 2 -1.1739
v -0.435363 -2 -1.17173
v -0.441228 -2 -1.16954
v -0.435363 2 -1.17173
v -0.441228 2 -1.16954
v -0.447083 -2 -1.16731
v -0.452926 -2 -1.16506
v -0.447083 2 -1.16731
v -0.458758 -2 -1.16277
v -0.452926 2 -1.16506
v -0.458758 2 -1.16277
v -0.464578 -2 -1.16046
v -0.470387 -2 -1.15812
v -0.464578 2 -1.16046
v -0.470387 2 -1.15812
v -0.476184 -2 -1.15575
v -0.476184 2 -1.15575
v -0.481968 -2 -1.15335
v -0.481968 2 -1.15335
v -0.487741 -2 -1.15092
v -0.493502 -2 -1.14846
v -0.487741 2 -1.15092
v -0.493502 2 -1.14846
v -0.49925 -2 -1.14597
v -0.49925 2 -1.14597
v -0.504986 2 -1.14346
v -0.504986 -2 -1.14346
v -0.510708 2 -1.14091
v -0.510708 -2 -1.14091
v -0.516419 -2 -1.13834
v -0.516419 2 -1.13834
v -0.522116 2 -1.13574
v -0.522116 -2 -1.13574
v -0.5278 2 -1.13311
v -0.5278 -2 -1.13311
v -0.533471 2 -1.13045
v -0.533471 -2 -1.13045
v -0.539128 -2 -1.12776
v -0.539128 2 -1.12776
v -0.544772 2 -1.12504
v -0.544772 -2 -1.12504
v -0.550402 2 -1.1223
v -0.550402 -2 -1.1223
v -0.556018 2 -1.11953
v -0.556018 -2 -1.11953
v -0.561621 -2 -1.11673
v -0.561621 2 -1.11673
v -0.567209 2 -1.1139
v -0.567209 -2 -1.1139
v -0.572783 2 -1.11104
v -0.572783 -2 -1.11104
v -0.578343 2 -1.10816
v -0.578343 -2 -1.10816
v -0.583888 -2 -1.10525
v -0.589419 -2 -1.10231
v -0.583888 2 -1.10525
v -0.589419 2 -1.10231
v -0.594934 -2 -1.09934
v -0.600435 -2 -1.09635
v -0.594934 2 -1.09934
v -0.600435 2 -1.09635
v -0.605921 -2 -1.09333
v -0.605921 2 -1.09333
v -0.611391 -2 -1.09028
v -0.616846 -2 -1.0872
v -0.611391 2 -1.09028
v -0.616846 2 -1.0872
v -0.622286 -2 -1.08409
v -0.622286 2 -1.08409
v -0.62771 -2 -1.08096
v -0.633118 -2 -1.0778
v -0.62771 2 -1.08096
v -0.633118 2 -1.0778
v -0.638511 -2 -1.07462
v -0.643887 -2 -1.07141
v -0.638511 2 -1.07462
v -0.643887 2 -1.07141
v -0.649247 2 -1.06817
v -0.649247 -2 -1.06817
v -0.654591 2 -1.0649
v -0.654591 -2 -1.0649
v -0.659919 -2 -1.06161
v -0.659919 2 -1.06161
v -0.665229 2 -1.05829
v -0.665229 -2 -1.05829
v -0.670524 2 -1.05494
v -0.670524 -2 -1.05494
v -0.675801 -2 -1.05157
v -0.675801 2 -1.05157
v -0.681061 2 -1.04817
v -0.681061 -2 -1.04817
v -0.686305 -2 -1.04474
v -0.686305 2 -1.04474
v -0.691531 2 -1.04129
v -0.691531 -2 -1.04129
v -0.696739 2 -1.03781
v -0.696739 -2 -1.03781
v -0.701931 -2 -1.03431
v -0.701931 2 -1.03431
v -0.707104 2 -1.03078
v -0.707104 -2 -1.03078
v -0.71226 -2 -1.02722
v -0.71226 2 -1.02722
v -0.717398 2 -1.02364
v -0.717398 -2 -1.02364
v -0.722518 2 -1.02003
v -0.722518 -2 -1.02003
v -0.72762 -2 -1.0164
v -0.72762 2 -1.0164
v -0.732703 2 -1.01274
v -0.732703 -2 -1.01274
v -0.737768 2 -1.00906
v -0.737768 -2 -1.00906
v -0.742815 -2 -1.00535
v -0.742815 2 -1.00535
v -0.747843 2 -1.00161
v -0.747843 -2 -1.00161
v -0.752852 -2 -0.997854
v -0.752852 2 -0.997854
v -0.757842 2 -0.99407
v -0.757842 -2 -0.99407
v -0.762814 -2 -0.99026
v -0.762814 2 -0.99026
v -0.767766 -2 -0.986426
v -0.767766 2 -0.986426
v -0.772699 2 -0.982566
v -0.772699 -2 -0.982566
v -0.777612 2 -0.978682
v -0.777612 -2 -0.978682
v -0.782506 -2 -0.974774
v -0.782506 2 -0.974774
v -0.78738 2 -0.970841
v -0.78738 -2 -0.970841
v -0.792235 -2 -0.966884
v -0.792235 2 -0.966884
v -0.797069 -2 -0.962902
v -0.797069 2 -0.962902
v -0.801884 -2 -0.958896
v -0.806679 -2 -0.954866
v -0.801884 2 -0.958896
v -0.806679 2 -0.954866
v -0.811453 -2 -0.950812
v -0.811453 2 -0.950812
v -0.816207 -2 -0.946735
v -0.82094 -2 -0.942633
v -0.816207 2 -0.946735
v -0.825653 -2 -0.938508
v -0.82094 2 -0.942633
v -0.825653 2 -0.938508
v -0.830345 -2 -0.934359
v -0.830345 2 -0.934359
v -0.835016 -2 -0.930187
v -0.839666 -2 -0.925992
v -0.835016 2 -0.930187
v -0.839666 2 -0.925992
v -0.844295 -2 -0.921773
v -0.844295 2 -0.921773
v -0.848903 -2 -0.917531
v -0.85349 -2 -0.913266
v -0.848903 2 -0.917531
v -0.85349 2 -0.913266
v -0.858055 -2 -0.908978
v -0.862599 -2 -0.904668
v -0.858055 2 -0.908978
v -0.862599 2 -0.904668
v -0.867121 -2 -0.900334
v -0.867121 2 -0.900334
v -0.871621 -2 -0.895978
v -0.876099 -2 -0.8916
v -0.871621 2 -0.895978
v -0.876099 2 -0.8916
v -0.880556 -2 -0.887199
v -0.880556 2 -0.887199
v -0.88499 -2 -0.882776
v -0.889402 -2 -0.87833
v -0.88499 2 -0.882776
v -0.889402 2 -0.87833
v -0.893792 2 -0.873863
v -0.893792 -2 -0.873863
v -0.898159 -2 -0.869374
v -0.898159 2 -0.869374
v -0.902504 2 -0.864863
v -0.902504 -2 -0.864863
v -0.906826 2 -0.86033
v -0.906826 -2 -0.86033
v -0.911125 -2 -0.855775
v -0.911125 2 -0.855775
v -0.915401 2 -0.851199
v -0.915401 -2 -0.851199
v -0.919655 2 -0.846602
v -0.919655 -2 -0.846602
v -0.923885 -2 -0.841983
v -0.923885 2 -0.841983
v -0.928092 -2 -0.837344
v -0.932276 -2 -0.832683
v -0.928092 2 -0.837344
v -0.932276 2 -0.832683
v -0.936437 -2 -0.828001
v -0.936437 2 -0.828001
v -0.940574 -2 -0.823299
v -0.944687 -2 -0.818576
v -0.940574 2 -0.823299
v -0.944687 2 -0.818576
v -0.948777 -2 -0.813832
v -0.952842 -2 -0.809068
v -0.948777 2 -0.813832
v -0.952842 2 -0.809068
v -0.956884 -2 -0.804284
v -0.956884 2 -0.804284
v -0.960902 -2 -0.799479
v -0.960902 2 -0.799479
v -0.964896 -2 -0.794655
v -0.968865 -2 -0.78981
v -0.964896 2 -0.794655
v -0.968865 2 -0.78981
v -0.972811 -2 -0.784946
v -0.972811 2 -0.784946
v -0.976731 -2 -0.780062
v -0.976731 2 -0.780062
v -0.980627 -2 -0.775158
v -0.984499 -2 -0.770235
v -0.980627 2 -0.775158
v -0.984499 2 -0.770235
v -0.988346 -2 -0.765292
v -0.988346 2 -0.765292
v -0.992168 -2 -0.76033
v -0.992168 2 -0.76033
v -0.995965 2 -0.75535
v -0.995965 -2 -0.75535
v -0.999737 2 -0.75035
v -0.999737 -2 -0.75035
v -1.00348 -2 -0.745331
v -1.00348 2 -0.745331
v -1.00721 2 -0.740294
v -1.00721 -2 -0.740294
v -1.0109 2 -0.735238
v -1.0109 -2 -0.735238
v -1.01457 2 -0.730164
v -1.01457 -2 -0.730164
v -1.01822 -2 -0.725071
v -1.01822 2 -0.725071
v -1.02184 2 -0.71996
v -1.02184 -2 -0.71996
v -1.02543 2 -0.714831
v -1.02543 -2 -0.714831
v -1.029 2 -0.709684
v -1.029 -2 -0.709684
v -1.03255 -2 -0.70452
v -1.03255 2 -0.70452
v -1.03606 2 -0.699337
v -1.03606 -2 -0.699337
v -1.03955 2 -0.694137
v -1.03955 -2 -0.694137
v -1.04302 2 -0.68892
v -1.04302 -2 -0.68892
v -1.04646 -2 -0.683685
v -1.04646 2 -0.683685
v -1.04987 2 -0.678433
v -1.04987 -2 -0.678433
v -1.05326 -2 -0.673164
v -1.05326 2 -0.673164
v -1.05662 -2 -0.667879
v -1.05995 -2 -0.662576
v -1.05662 2 -0.667879
v -1.05995 2 -0.662576
v -1.06326 -2 -0.657257
v -1.06326 2 -0.657257
v -1.06654 -2 -0.651921
v -1.06654 2 -0.651921
v -1.06979 -2 -0.646569
v -1.07302 -2 -0.641201
v -1.06979 2 -0.646569
v -1.07302 2 -0.641201
v -1.07621 -2 -0.635817
v -1.07621 2 -0.635817
v -1.07939 -2 -0.630416
v -1.07939 2 -0.630416
v -1.08253 2 -0.625
v -1.08253 -2 -0.625
v -1.08565 -2 -0.619568
v -1.08565 2 -0.619568
v -1.08874 2 -0.614121
v -1.08874 -2 -0.614121
v -1.0918 2 -0.608658
v -1.0918 -2 -0.608658
v -1.09484 2 -0.60318
v -1.09484 -2 -0.60318
v -1.09785 -2 -0.597687
v -1.09785 2 -0.597687
v -1.10083 2 -0.592178
v -1.10083 -2 -0.592178
v -1.10378 2 -0.586655
v -1.10378 -2 -0.586655
v -1.10671 2 -0.581117
v -1.10671 -2 -0.581117
v -1.10961 -2 -0.575565
v -1.10961 2 -0.575565
v -1.11248 2 -0.569998
v -1.11248 -2 -0.569998
v -1.11532 2 -0.564417
v -1.11532 -2 -0.564417
v -1.11813 2 -0.558821
v -1.11813 -2 -0.558821
v -1.12092 -2 -0.553212
v -1.12092 2 -0.553212
v -1.12368 2 -0.547589
v -1.12368 -2 -0.547589
v -1.12641 2 -0.541952
v -1.12641 -2 -0.541952
v -1.12911 2 -0.536301
v -1.12911 -2 -0.536301
v -1.13178 -2 -0.530637
v -1.13178 2 -0.530637
v -1.13442 2 -0.524959
v -1.13442 -2 -0.524959
v -1.13704 2 -0.519269
v -1.13704 -2 -0.519269
v -1.13963 2 -0.513565
v -1.13963 -2 -0.513565
v -1.14219 -2 -0.507849
v -1.14219 2 -0.507849
v -1.14472 2 -0.502119
v -1.14472 -2 -0.502119
v -1.14722 2 -0.496377
v -1.14722 -2 -0.496377
v -1.14969 -2 -0.490623
v -1.14969 2 -0.490623
v -1.15213 -2 -0.484856
v -1.15213 2 -0.484856
v -1.15455 2 -0.479077
v -1.15455 -2 -0.479077
v -1.15694 2 -0.473287
v -1.15694 -2 -0.473287
v -1.15929 2 -0.467484
v -1.15929 -2 -0.467484
v -1.16162 -2 -0.461669
v -1.16162 2 -0.461669
v -1.16392 -2 -0.455843
v -1.16392 2 -0.455843
v -1.16619 -2 -0.450006
v -1.16619 2 -0.450006
v -1.16843 -2 -0.444157
v -1.17064 -2 -0.438297
v -1.16843 2 -0.444157
v -1.17064 2 -0.438297
v -1.17282 -2 -0.432426
v -1.17282 2 -0.432426
v -1.17497 -2 -0.426544
v -1.17497 2 -0.426544
v -1.17709 -2 -0.420652
v -1.17919 -2 -0.414748
v -1.17709 2 -0.420652
v -1.17919 2 -0.414748
v -1.18125 -2 -0.408835
v -1.18125 2 -0.408835
v -1.18328 -2 -0.402911
v -1.18328 2 -0.402911
v -1.18529 -2 -0.396977
v -1.18529 2 -0.396977
v -1.18726 -2 -0.391033
v -1.18921 -2 -0.38508
v -1.18726 2 -0.391033
v -1.18921 2 -0.38508
v -1.19112 -2 -0.379116
v -1.19112 2 -0.379116
v -1.19301 -2 -0.373144
v -1.19301 2 -0.373144
v -1.19486 -2 -0.367161
v -1.19669 -2 -0.36117
v -1.19486 2 -0.367161
v -1.19669 2 -0.36117
v -1.19848 -2 -0.355169
v -1.19848 2 -0.355169
v -1.20024 -2 -0.34916
v -1.20024 2 -0.34916
v -1.20198 -2 -0.343142
v -1.20368 -2 -0.337115
v -1.20198 2 -0.343142
v -1.20368 2 -0.337115
v -1.20536 2 -0.33108
v -1.20536 -2 -0.33108
v -1.207 2 -0.325036
v -1.207 -2 -0.325036
v -1.20861 2 -0.318984
v -1.20861 -2 -0.318984
v -1.2102 -2 -0.312924
v -1.2102 2 -0.312924
v -1.21175 2 -0.306857
v -1.21175 -2 -0.306857
v -1.21327 2 -0.300782
v -1.21327 -2 -0.300782
v -1.21476 2 -0.294699
v -1.21476 -2 -0.294699
v -1.21623 -2 -0.288608
v -1.21623 2 -0.288608
v -1.21766 -2 -0.282511
v -1.21766 2 -0.282511
v -1.21906 -2 -0.276406
v -1.21906 2 -0.276406
v -1.22043 -2 -0.270295
v -1.22177 -2 -0.264176
v -1.22043 2 -0.270295
v -1.22177 2 -0.264176
v -1.22307 -2 -0.258051
v -1.22307 2 -0.258051
v -1.22435 -2 -0.25192
v -1.22435 2 -0.25192
v -1.2256 -2 -0.245782
v -1.22681 -2 -0.239638
v -1.2256 2 -0.245782
v -1.22681 2 -0.239638
v -1.228 -2 -0.233488
v -1.228 2 -0.233488
v -1.22915 -2 -0.227333
v -1.22915 2 -0.227333
v -1.23028 -2 -0.221171
v -1.23137 -2 -0.215004
v -1.23028 2 -0.221171
v -1.23137 2 -0.215004
v -1.23243 -2 -0.208831
v -1.23243 2 -0.208831
v -1.23346 -2 -0.202654
v -1.23346 2 -0.202654
v -1.23446 -2 -0.196471
v -1.23543 -2 -0.190283
v -1.23446 2 -0.196471
v -1.23543 2 -0.190283
v -1.23637 -2 -0.184091
v -1.23637 2 -0.184091
v -1.23728 2 -0.177894
v -1.23728 -2 -0.177894
v -1.23815 2 -0.171692
v -1.23815 -2 -0.171692
v -1.239 -2 -0.165486
v -1.239 2 -0.165486
v -1.23981 2 -0.159276
v -1.23981 -2 -0.159276
v -1.24059 2 -0.153062
v -1.24059 -2 -0.153062
v -1.24134 2 -0.146844
v -1.24134 -2 -0.146844
v -1.24206 -2 -0.140622
v -1.24206 2 -0.140622
v -1.24275 2 -0.134397
v -1.24275 -2 -0.134397
v -1.24341 2 -0.128169
v -1.24341 -2 -0.128169
v -1.24404 2 -0.121937
v -1.24404 -2 -0.121937
v -1.24463 -2 -0.115702
v -1.24463 2 -0.115702
v -1.2452 2 -0.109465
v -1.2452 -2 -0.109465
v -1.24573 2 -0.103224
v -1.24573 -2 -0.103224
v -1.24623 2 -0.0969812
v -1.24623 -2 -0.0969812
v -1.2467 -2 -0.0907357
v -1.2467 2 -0.0907357
v -1.24714 -2 -0.084488
v -1.24714 2 -0.084488
v -1.24755 -2 -0.0782381
v -1.24755 2 -0.0782381
v -1.24793 -2 -0.0719863
v -1.24827 -2 -0.0657327
v -1.24793 2 -0.0719863
v -1.24827 2 -0.0657327
v -1.24858 -2 -0.0594774
v -1.24858 2 -0.0594774
v -1.24887 -2 -0.0532206
v -1.24887 2 -0.0532206
v -1.24912 -2 -0.0469625
v -1.24934 -2 -0.0407032
v -1.24912 2 -0.0469625
v -1.24934 2 -0.0407032
v -1.24953 -2 -0.0344429
v -1.24953 2 -0.0344429
v -1.24968 -2 -0.0281818
v -1.24968 2 -0.0281818
v -1.24981 2 -0.0219199
v -1.24981 -2 -0.0219199
v -1.2499 -2 -0.0156574
v -1.2499 2 -0.0156574
v -1.24996 2 -0.00939463
v -1.24996 -2 -0.00939463
v -1.25 2 -0.00313157
v -1.25 -2 -0.00313157
v -1.25 2 0.00313157
v -1.25 -2 0.00313157
v -1.24996 -2 0.00939463
v -1.24996 2 0.00939463
v -1.2499 2 0.0156574
v -1.2499 -2 0.0156574
v -1.24981 2 0.0219199
v -1.24981 -2 0.0219199
v -1.24968 2 0.0281818
v -1.24968 -2 0.0281818
v -1.24953 2 0.0344429
v -1.24953 -2 0.0344429
v -1.24934 -2 0.0407032
v -1.24934 2 0.0407032
v -1.24912 2 0.0469625
v -1.24912 -2 0.0469625
v -1.24887 2 0.0532206
v -1.24887 -2 0.0532206
v -1.24858 2 0.0594774
v -1.24858 -2 0.0594774
v -1.24827 -2 0.0657327
v -1.24827 2 0.0657327
v -1.24793 2 0.0719863
# </points>

# <edges count="2508">
l 1 2
l 3 4
l 2 5
l 5 6
l 7 8
l 9 3
l 8 10
l 11 12
l 13 9
l 6 14
l 10 15
l 16 13
l 17 11
l 14 18
l 19 17
l 20 16
l 18 21
l 21 22
l 23 19
l 15 24
l 25 20
l 24 26
l 27 25
l 28 23
l 22 29
l 26 30
l 31 28
l 29 32
l 30 33
l 34 27
l 35 34
l 36 31
l 32 37
l 33 38
l 37 39
l 40 35
l 41 36
l 42 40
l 43 41
l 39 44
l 38 45
l 46 42
l 47 43
l 44 48
l 45 49
l 49 50
l 51 52
l 53 46
l 54 47
l 48 51
l 55 53
l 56 54
l 50 57
l 52 58
l 59 55
l 60 56
l 57 61
l 61 62
l 58 63
l 64 59
l 65 60
l 63 66
l 66 67
l 68 64
l 69 65
l 62 70
l 71 68
l 67 72
l 73 69
l 70 74
l 74 75
l 76 71
l 72 77
l 78 73
l 79 76
l 77 80
l 75 81
l 80 82
l 83 79
l 84 78
l 81 85
l 86 83
l 87 84
l 82 88
l 85 89
l 90 86
l 89 91
l 92 87
l 88 93
l 94 90
l 95 92
l 93 96
l 96 97
l 98 94
l 99 95
l 91 100
l 100 101
l 102 98
l 103 99
l 97 104
l 105 102
l 101 106
l 106 107
l 108 103
l 104 109
l 110 105
l 107 111
l 112 108
l 109 113
l 113 114
l 115 110
l 111 116
l 117 112
l 118 115
l 116 119
l 114 120
l 121 117
l 122 118
l 123 121
l 119 124
l 120 125
l 126 122
l 127 123
l 124 128
l 125 129
l 129 130
l 131 126
l 132 127
l 133 131
l 134 132
l 128 135
l 130 136
l 135 137
l 138 133
l 139 138
l 140 134
l 137 141
l 136 142
l 143 139
l 144 140
l 142 145
l 141 146
l 145 147
l 148 143
l 149 144
l 146 150
l 151 148
l 152 149
l 147 153
l 150 154
l 155 151
l 153 156
l 157 152
l 154 158
l 159 155
l 156 160
l 161 157
l 160 162
l 163 159
l 164 161
l 158 165
l 165 166
l 162 167
l 168 163
l 169 164
l 166 170
l 167 171
l 172 168
l 173 169
l 170 174
l 171 175
l 175 176
l 177 172
l 178 173
l 174 179
l 180 177
l 181 178
l 179 182
l 176 183
l 184 180
l 185 181
l 182 186
l 183 187
l 188 184
l 189 185
l 186 190
l 187 191
l 191 192
l 193 188
l 194 189
l 195 193
l 196 194
l 190 197
l 197 198
l 192 199
l 200 195
l 201 196
l 198 202
l 199 203
l 204 200
l 205 201
l 202 206
l 203 207
l 207 208
l 209 204
l 210 205
l 206 211
l 212 209
l 213 210
l 211 214
l 208 215
l 216 212
l 214 217
l 218 213
l 215 219
l 220 216
l 217 221
l 219 222
l 223 218
l 222 224
l 225 220
l 226 223
l 221 227
l 228 225
l 229 226
l 227 230
l 224 231
l 232 228
l 233 229
l 230 234
l 235 232
l 231 236
l 237 235
l 238 233
l 234 239
l 236 240
l 239 241
l 242 238
l 243 237
l 240 244
l 244 245
l 241 246
l 247 242
l 248 243
l 246 249
l 250 247
l 251 248
l 245 252
l 249 253
l 254 250
l 255 251
l 252 256
l 257 254
l 258 255
l 256 259
l 259 260
l 253 261
l 261 262
l 263 258
l 264 257
l 262 265
l 266 263
l 267 264
l 260 268
l 265 269
l 270 266
l 271 267
l 268 272
l 269 273
l 274 270
l 275 271
l 272 276
l 276 277
l 273 278
l 279 274
l 280 275
l 281 279
l 278 282
l 277 283
l 284 280
l 285 281
l 282 286
l 283 287
l 288 284
l 289 285
l 286 290
l 287 291
l 291 292
l 293 288
l 294 289
l 290 295
l 296 293
l 292 297
l 295 298
l 299 294
l 300 296
l 297 301
l 298 302
l 303 299
l 304 300
l 301 305
l 305 306
l 302 307
l 308 303
l 309 304
l 310 308
l 307 311
l 312 309
l 306 313
l 314 310
l 311 315
l 316 312
l 313 317
l 318 314
l 315 319
l 320 316
l 317 321
l 321 322
l 319 323
l 324 318
l 325 320
l 326 324
l 323 327
l 328 325
l 322 329
l 330 328
l 331 326
l 327 332
l 333 331
l 329 334
l 335 330
l 332 336
l 337 333
l 334 338
l 338 339
l 340 335
l 336 341
l 342 337
l 343 340
l 341 344
l 345 342
l 339 346
l 347 343
l 344 348
l 349 345
l 346 350
l 351 347
l 348 352
l 353 349
l 350 354
l 354 355
l 356 351
l 357 353
l 358 356
l 352 359
l 359 360
l 361 357
l 355 362
l 360 363
l 364 361
l 365 358
l 362 366
l 363 367
l 368 364
l 369 365
l 366 370
l 370 371
l 367 372
l 373 369
l 374 368
l 375 373
l 376 374
l 371 377
l 372 378
l 378 379
l 380 376
l 381 375
l 377 382
l 383 380
l 384 381
l 382 385
l 385 386
l 379 387
l 387 388
l 389 383
l 390 384
l 391 389
l 386 392
l 393 390
l 394 391
l 388 395
l 395 396
l 392 397
l 398 393
l 399 394
l 397 400
l 400 401
l 402 398
l 403 399
l 396 404
l 404 405
l 406 402
l 407 403
l 401 408
l 409 406
l 410 407
l 408 411
l 405 412
l 413 409
l 414 410
l 411 415
l 415 416
l 412 417
l 417 418
l 419 413
l 420 414
l 421 419
l 422 420
l 416 423
l 418 424
l 424 425
l 426 421
l 423 427
l 428 422
l 429 428
l 430 426
l 427 431
l 431 432
l 433 430
l 425 434
l 435 429
l 434 436
l 437 435
l 438 433
l 432 439
l 440 437
l 441 438
l 436 442
l 442 443
l 439 444
l 445 446
l 447 440
l 448 441
l 444 445
l 449 447
l 450 448
l 443 451
l 451 452
l 446 453
l 454 449
l 455 450
l 453 456
l 457 454
l 458 455
l 452 459
l 459 460
l 456 461
l 461 462
l 463 457
l 464 458
l 465 463
l 466 464
l 460 467
l 462 468
l 469 465
l 470 466
l 467 471
l 468 472
l 471 473
l 474 469
l 475 470
l 472 476
l 476 477
l 478 474
l 479 475
l 473 480
l 480 481
l 482 478
l 477 483
l 484 479
l 485 482
l 483 486
l 487 484
l 481 488
l 489 485
l 488 490
l 486 491
l 492 489
l 493 487
l 491 494
l 494 495
l 490 496
l 496 497
l 498 492
l 499 493
l 500 498
l 501 499
l 495 502
l 497 503
l 504 500
l 503 505
l 506 501
l 502 507
l 508 504
l 509 506
l 507 510
l 510 511
l 512 508
l 513 509
l 505 514
l 514 515
l 516 512
l 517 513
l 511 518
l 519 516
l 515 520
l 520 521
l 522 517
l 518 523
l 524 519
l 525 522
l 523 526
l 526 527
l 528 524
l 521 529
l 529 530
l 531 525
l 532 528
l 533 531
l 527 534
l 535 532
l 530 536
l 536 537
l 538 535
l 534 539
l 540 533
l 541 538
l 542 540
l 539 543
l 543 544
l 545 541
l 546 542
l 537 547
l 547 548
l 549 545
l 544 550
l 551 546
l 552 549
l 550 553
l 554 551
l 548 555
l 555 556
l 553 557
l 558 552
l 557 559
l 560 554
l 561 558
l 562 560
l 556 563
l 559 564
l 565 561
l 566 562
l 563 567
l 567 568
l 564 569
l 570 565
l 571 566
l 569 572
l 572 573
l 574 570
l 575 571
l 568 576
l 576 577
l 578 574
l 579 575
l 573 580
l 581 578
l 582 579
l 580 583
l 577 584
l 584 585
l 586 581
l 583 587
l 588 582
l 587 589
l 590 586
l 591 588
l 592 590
l 585 593
l 593 594
l 589 595
l 596 591
l 597 592
l 595 598
l 599 596
l 600 597
l 594 601
l 601 602
l 598 603
l 603 604
l 605 600
l 606 599
l 607 605
l 608 606
l 602 609
l 609 610
l 604 611
l 612 607
l 613 608
l 611 614
l 615 612
l 616 613
l 610 617
l 617 618
l 614 619
l 619 620
l 621 615
l 622 616
l 623 621
l 624 622
l 618 625
l 625 626
l 627 623
l 620 628
l 629 624
l 630 627
l 628 631
l 626 632
l 633 629
l 634 630
l 632 635
l 631 636
l 636 637
l 638 634
l 639 633
l 640 639
l 635 641
l 642 638
l 641 643
l 637 644
l 645 642
l 646 640
l 644 647
l 648 645
l 649 646
l 643 650
l 647 651
l 650 652
l 651 653
l 654 648
l 655 649
l 656 654
l 653 657
l 658 655
l 652 659
l 660 656
l 659 661
l 657 662
l 661 663
l 664 658
l 665 660
l 662 666
l 667 664
l 666 668
l 669 665
l 663 670
l 670 671
l 672 667
l 673 669
l 668 674
l 675 672
l 676 673
l 674 677
l 671 678
l 678 679
l 680 675
l 681 676
l 677 682
l 682 683
l 684 680
l 685 681
l 679 686
l 686 687
l 683 688
l 689 684
l 690 685
l 688 691
l 692 689
l 693 690
l 687 694
l 694 695
l 691 696
l 696 697
l 698 692
l 699 693
l 700 698
l 701 699
l 697 702
l 695 703
l 703 704
l 705 701
l 706 700
l 702 707
l 708 705
l 709 706
l 707 710
l 710 711
l 704 712
l 712 713
l 714 708
l 715 709
l 716 714
l 717 715
l 711 718
l 713 719
l 719 720
l 721 716
l 722 717
l 723 721
l 718 724
l 725 722
l 726 723
l 724 727
l 727 728
l 720 729
l 729 730
l 731 725
l 732 726
l 733 731
l 734 732
l 728 735
l 730 736
l 736 737
l 738 733
l 739 734
l 735 740
l 741 738
l 742 739
l 740 743
l 743 744
l 745 741
l 737 746
l 746 747
l 748 742
l 749 745
l 750 748
l 744 751
l 752 749
l 753 750
l 747 754
l 754 755
l 751 756
l 757 753
l 758 752
l 755 759
l 756 760
l 761 757
l 762 758
l 759 763
l 760 764
l 764 765
l 766 761
l 767 762
l 768 766
l 769 767
l 765 770
l 763 771
l 771 772
l 773 768
l 770 774
l 772 775
l 776 769
l 777 773
l 774 778
l 775 779
l 778 780
l 781 776
l 782 777
l 783 781
l 784 782
l 780 785
l 779 786
l 786 787
l 788 783
l 789 784
l 785 790
l 787 791
l 792 788
l 793 789
l 790 794
l 791 795
l 794 796
l 797 792
l 798 793
l 799 797
l 800 798
l 796 801
l 795 802
l 802 803
l 804 799
l 805 800
l 801 806
l 803 807
l 808 804
l 809 805
l 806 810
l 810 811
l 812 808
l 813 809
l 807 814
l 814 815
l 816 812
l 811 817
l 818 813
l 815 819
l 820 818
l 821 816
l 817 822
l 819 823
l 824 821
l 825 820
l 822 826
l 826 827
l 828 825
l 829 824
l 823 830
l 830 831
l 832 828
l 833 829
l 827 834
l 831 835
l 836 833
l 837 832
l 834 838
l 838 839
l 835 840
l 839 841
l 842 836
l 843 837
l 844 843
l 845 842
l 841 846
l 840 847
l 848 844
l 847 849
l 850 845
l 846 851
l 852 850
l 853 848
l 849 854
l 851 855
l 855 856
l 857 853
l 858 852
l 854 859
l 860 857
l 861 858
l 856 862
l 863 860
l 864 861
l 859 865
l 865 866
l 862 867
l 868 863
l 869 864
l 866 870
l 867 871
l 871 872
l 873 868
l 874 869
l 870 875
l 876 873
l 877 874
l 872 878
l 879 876
l 880 877
l 875 881
l 881 882
l 878 883
l 884 879
l 885 880
l 882 886
l 883 887
l 887 888
l 889 884
l 890 885
l 886 891
l 892 889
l 893 890
l 888 894
l 895 892
l 896 893
l 894 897
l 891 898
l 898 899
l 900 895
l 897 901
l 902 896
l 901 903
l 899 904
l 905 900
l 906 902
l 904 907
l 908 905
l 903 909
l 910 906
l 911 908
l 907 912
l 909 913
l 912 914
l 915 910
l 916 911
l 914 917
l 913 918
l 918 919
l 920 915
l 921 916
l 922 921
l 917 923
l 924 920
l 919 925
l 926 924
l 927 922
l 928 927
l 929 926
l 923 930
l 925 931
l 930 932
l 933 928
l 932 934
l 931 935
l 935 936
l 937 929
l 938 933
l 934 939
l 940 937
l 941 938
l 936 942
l 943 940
l 944 941
l 942 945
l 939 946
l 946 947
l 948 943
l 945 949
l 950 944
l 949 951
l 947 952
l 953 948
l 954 950
l 955 953
l 952 956
l 951 957
l 958 954
l 959 955
l 957 960
l 961 958
l 962 959
l 956 963
l 963 964
l 960 965
l 965 966
l 967 961
l 968 962
l 964 969
l 970 967
l 971 968
l 966 972
l 969 973
l 974 970
l 975 971
l 972 976
l 977 974
l 978 975
l 976 979
l 973 980
l 979 981
l 980 982
l 983 977
l 984 978
l 985 983
l 982 986
l 981 987
l 988 984
l 986 989
l 990 985
l 987 991
l 992 988
l 993 990
l 991 994
l 994 995
l 996 992
l 989 997
l 998 993
l 999 998
l 1000 996
l 997 1001
l 1001 1002
l 995 1003
l 1004 999
l 1005 1000
l 1002 1006
l 1003 1007
l 1008 1004
l 1009 1005
l 1006 1010
l 1007 1011
l 1012 1008
l 1013 1009
l 1011 1014
l 1014 1015
l 1016 1013
l 1010 1017
l 1018 1012
l 1017 1019
l 1020 1018
l 1021 1016
l 1019 1022
l 1023 1020
l 1015 1024
l 1025 1021
l 1022 1026
l 1027 1023
l 1024 1028
l 1029 1025
l 1030 1027
l 1028 1031
l 1031 1032
l 1033 1029
l 1026 1034
l 1034 1035
l 1036 1030
l 1037 1033
l 1035 1038
l 1039 1036
l 1032 1040
l 1041 1037
l 1038 1042
l 1043 1039
l 1040 1044
l 1045 1041
l 1046 1043
l 1044 1047
l 1047 1048
l 1042 1049
l 1050 1045
l 1049 1051
l 1052 1046
l 1051 1053
l 1054 1052
l 1055 1050
l 1048 1056
l 1057 1055
l 1053 1058
l 1059 1054
l 1056 1060
l 1061 1057
l 1062 1059
l 1060 1063
l 1063 1064
l 1065 1061
l 1066 1062
l 1058 1067
l 1067 1068
l 1069 1066
l 1064 1070
l 1071 1065
l 1068 1072
l 1073 1069
l 1072 1074
l 1070 1075
l 1076 1071
l 1077 1073
l 1075 1078
l 1078 1079
l 1080 1076
l 1074 1081
l 1081 1082
l 1083 1077
l 1084 1080
l 1079 1085
l 1082 1086
l 1087 1083
l 1088 1084
l 1085 1089
l 1086 1090
l 1091 1087
l 1092 1088
l 1089 1093
l 1093 1094
l 1095 1091
l 1096 1092
l 1097 1095
l 1090 1098
l 1098 1099
l 1100 1096
l 1094 1101
l 1102 1097
l 1099 1103
l 1104 1100
l 1101 1105
l 1106 1102
l 1103 1107
l 1108 1104
l 1105 1109
l 1109 1110
l 1111 1106
l 1112 1108
l 1113 1111
l 1107 1114
l 1114 1115
l 1116 1112
l 1117 1113
l 1110 1118
l 1115 1119
l 1120 1116
l 1121 1117
l 1118 1122
l 1119 1123
l 1124 1120
l 1125 1121
l 1122 1126
l 1126 1127
l 1128 1124
l 1129 1125
l 1123 1130
l 1130 1131
l 1132 1128
l 1133 1129
l 1127 1134
l 1131 1135
l 1136 1132
l 1137 1133
l 1134 1138
l 1135 1139
l 1140 1136
l 1141 1137
l 1138 1142
l 1142 1143
l 1144 1140
l 1145 1141
l 1139 1146
l 1146 1147
l 1148 1145
l 1149 1144
l 1143 1150
l 1147 1151
l 1152 1148
l 1153 1149
l 1150 1154
l 1151 1155
l 1156 1152
l 1157 1153
l 1154 1158
l 1158 1159
l 1160 1156
l 1161 1157
l 1162 1160
l 1163 1161
l 1159 1164
l 1155 1165
l 1165 1166
l 1167 1162
l 1164 1168
l 1169 1163
l 12 1167
l 1166 1170
l 1168 7
l 1171 1169
l 1170 1172
l 1173 1171
l 1174 1173
l 1172 1175
l 1175 1176
l 1177 1174
l 1176 1178
l 1179 1177
l 1180 1179
l 1178 1181
l 1181 1182
l 1182 1183
l 1184 1180
l 1183 1185
l 1186 1184
l 1187 1186
l 1185 1188
l 1188 1189
l 1190 1187
l 1189 1191
l 1192 1190
l 1191 1193
l 1194 1192
l 1195 1194
l 1193 1196
l 1196 1197
l 1198 1195
l 1197 1199
l 1200 1198
l 1199 1201
l 1202 1200
l 1203 1202
l 1201 1204
l 1204 1205
l 1206 1203
l 1205 1207
l 1208 1206
l 1207 1209
l 1210 1208
l 1211 1210
l 1209 1212
l 1212 1213
l 1214 1211
l 1213 1215
l 1216 1214
l 1217 1216
l 1215 1218
l 1219 1217
l 1220 1219
l 1218 1221
l 1221 1222
l 1223 1220
l 1222 1224
l 1225 1223
l 1224 1226
l 1227 1225
l 1228 1227
l 1226 1229
l 1229 1230
l 1231 1228
l 1230 1232
l 1233 1231
l 1232 1234
l 1235 1233
l 1236 1235
l 1234 1237
l 1237 1238
l 1239 1236
l 1238 1240
l 1241 1239
l 1240 1242
l 1243 1241
l 1242 1244
l 1245 1243
l 1244 1246
l 1246 1247
l 1248 1245
l 1247 1249
l 1250 1248
l 1251 1250
l 1249 1252
l 1252 1253
l 1254 1251
l 1253 1255
l 1256 1254
l 1255 1257
l 1258 1256
l 1259 1258
l 1257 1260
l 1260 1261
l 1262 1259
l 1261 1263
l 1264 1262
l 1263 1265
l 1266 1264
l 1267 1266
l 1268 1267
l 1265 1269
l 1270 1268
l 1269 1271
l 1271 1272
l 1273 1270
l 1272 1274
l 1275 1273
l 1274 1276
l 1277 1275
l 1278 1277
l 1276 1279
l 1279 1280
l 1281 1278
l 1280 1282
l 1283 1281
l 1282 1284
l 1285 1283
l 1286 1285
l 1284 1287
l 1287 1288
l 1289 1286
l 1288 1290
l 1291 1289
l 1290 1292
l 1293 1291
l 1294 1293
l 1292 1295
l 1295 1296
l 1297 1294
l 1296 1298
l 1299 1297
l 1298 1300
l 1301 1299
l 1302 1301
l 1300 1303
l 1303 1304
l 1305 1302
l 1304 1306
l 1307 1305
l 1306 1308
l 1309 1307
l 1310 1309
l 1308 1311
l 1311 1312
l 1312 1313
l 1314 1310
l 1313 1315
l 1316 1314
l 1317 1316
l 1318 1317
l 1315 1319
l 1319 1320
l 1321 1318
l 1320 1322
l 1323 1321
l 1322 1324
l 1325 1323
l 1324 1326
l 1326 1327
l 1328 1325
l 1329 1328
l 1327 1330
l 1331 1329
l 1330 1332
l 1332 1333
l 1334 1331
l 1335 1334
l 1333 1336
l 1336 1337
l 1338 1335
l 1339 1338
l 1337 1340
l 1341 1339
l 1340 1342
l 1342 1343
l 1344 1341
l 1345 1344
l 1343 1346
l 1347 1345
l 1346 1348
l 1348 1349
l 1350 1347
l 1351 1350
l 1349 1352
l 1352 1353
l 1354 1351
l 1355 1354
l 1353 1356
l 1357 1355
l 1356 1358
l 1358 1359
l 1360 1357
l 1361 1360
l 1359 1362
l 1363 1361
l 1362 1364
l 1364 1365
l 1366 1363
l 1367 1366
l 1368 1367
l 1365 1369
l 1369 1370
l 1371 1368
l 1372 1371
l 1370 1373
l 1374 1372
l 1373 1375
l 1375 1376
l 1377 1374
l 1378 1377
l 1376 1379
l 1379 1380
l 1380 1381
l 1382 1378
l 1383 1382
l 1381 1384
l 1384 1385
l 1386 1383
l 1387 1386
l 1385 1388
l 1389 1387
l 1388 1390
l 1390 1391
l 1392 1389
l 1393 1392
l 1391 1394
l 1395 1393
l 1394 1396
l 1396 1397
l 1398 1395
l 1399 1398
l 1397 1400
l 1401 1399
l 1400 1402
l 1403 1401
l 1402 1404
l 1404 1405
l 1406 1403
l 1407 1406
l 1405 1408
l 1409 1407
l 1408 1410
l 1411 1409
l 1410 1412
l 1412 1413
l 1414 1411
l 1415 1414
l 1413 1416
l 1417 1415
l 1416 1418
l 1419 1417
l 1420 1419
l 1418 1421
l 1421 1422
l 1423 1420
l 1424 1423
l 1422 1425
l 1426 1424
l 1425 1427
l 1428 1426
l 1427 1429
l 1429 1430
l 1431 1428
l 1432 1431
l 1430 1433
l 1434 1432
l 1433 1435
l 1436 1434
l 1435 1437
l 1437 1438
l 1439 1436
l 1440 1439
l 1438 1441
l 1442 1440
l 1441 1443
l 1444 1442
l 1443 1445
l 1445 1446
l 1447 1444
l 1446 1448
l 1449 1447
l 1448 1450
l 1451 1449
l 1450 1452
l 1452 1453
l 1454 1451
l 1455 1454
l 1456 1455
l 1453 1457
l 1457 1458
l 1458 1459
l 1460 1456
l 1461 1460
l 1459 1462
l 1463 1461
l 1462 1464
l 1465 1463
l 1464 1466
l 1466 1467
l 1468 1465
l 1469 1468
l 1470 1469
l 1467 1471
l 1472 1470
l 1471 1473
l 1474 1472
l 1473 1475
l 1475 1476
l 1477 1474
l 1478 1477
l 1476 1479
l 1480 1478
l 1479 1481
l 1482 1480
l 1481 1483
l 1483 1484
l 1485 1482
l 1486 1485
l 1484 1487
l 1488 1486
l 1487 1489
l 1490 1488
l 1489 1491
l 1491 1492
l 1493 1490
l 1494 1493
l 1492 1495
l 1496 1494
l 1495 1497
l 1498 1496
l 1497 1499
l 1499 1500
l 1501 1498
l 1502 1501
l 1500 1503
l 1504 1502
l 1503 1505
l 1506 1504
l 1505 1507
l 1507 1508
l 1509 1506
l 1510 1509
l 1508 1511
l 1512 1510
l 1511 1513
l 1513 1514
l 1515 1512
l 1514 1516
l 1517 1515
l 1516 1518
l 1519 1517
l 1520 1519
l 1518 1521
l 1522 1520
l 1521 1523
l 1524 1522
l 1523 1525
l 1525 1526
l 1527 1524
l 1526 1528
l 1529 1527
l 1528 1530
l 1531 1529
l 1530 1532
l 1532 1533
l 1534 1531
l 1535 1534
l 1533 1536
l 1537 1535
l 1536 1538
l 1539 1537
l 1538 1540
l 1540 1541
l 1542 1539
l 1543 1542
l 1541 1544
l 1545 1543
l 1544 1546
l 1547 1545
l 1546 1548
l 1548 1549
l 1550 1547
l 1551 1550
l 1549 1552
l 1553 1551
l 1552 1554
l 1555 1553
l 1554 1556
l 1556 1557
l 1558 1555
l 1559 1558
l 1557 1560
l 1561 1559
l 1560 1562
l 1563 1561
l 1562 1564
l 1564 1565
l 1566 1563
l 1565 1567
l 1568 1566
l 1569 1568
l 1570 1569
l 1567 1571
l 1571 1572
l 1573 1570
l 1574 1573
l 1572 1575
l 1576 1574
l 1575 1577
l 1578 1576
l 1577 1579
l 1579 1580
l 1581 1578
l 1580 1582
l 1583 1581
l 1582 1584
l 1585 1583
l 1584 1586
l 1586 1587
l 1588 1585
l 1589 1588
l 1590 1589
l 1587 1591
l 1591 1592
l 1593 1590
l 1592 1594
l 1594 1595
l 1596 1593
l 1597 1596
l 1595 1598
l 1599 1597
l 1598 1600
l 1601 1599
l 1600 1602
l 1602 1603
l 1604 1601
l 1605 1604
l 1603 1606
l 1607 1605
l 1606 1608
l 1609 1607
l 1608 1610
l 1610 1611
l 1612 1609
l 1613 1612
l 1611 1614
l 1615 1613
l 1614 1616
l 1617 1615
l 1616 1618
l 1618 1619
l 1620 1617
l 1621 1620
l 1622 1621
l 1619 1623
l 1624 1622
l 1623 1625
l 1626 1624
l 1625 1627
l 1628 1626
l 1627 1629
l 1629 1630
l 1631 1628
l 1632 1631
l 1630 1633
l 1634 1632
l 1633 1635
l 1636 1634
l 1635 1637
l 1637 1638
l 1639 1636
l 1640 1639
l 1638 1641
l 1642 1640
l 1641 1643
l 1644 1642
l 1643 1645
l 1645 1646
l 1647 1644
l 1646 1648
l 1649 1647
l 1648 1650
l 1651 1649
l 1650 1652
l 1652 1653
l 1654 1651
l 1655 1654
l 1653 1656
l 1657 1655
l 1656 1658
l 1659 1657
l 1658 1660
l 1660 1661
l 1662 1659
l 1663 1662
l 1661 1664
l 1665 1663
l 1664 1666
l 1667 1665
l 1666 1668
l 1668 1669
l 1670 1667
l 1671 1670
l 1672 1671
l 1669 1673
l 1673 1674
l 1675 1672
l 1674 1676
l 1677 1675
l 1678 1677
l 1676 1679
l 1679 1680
l 1681 1678
l 1682 1681
l 1680 1683
l 1683 1684
l 1685 1682
l 1686 1685
l 1684 1687
l 1688 1686
l 1687 1689
l 1690 1688
l 1689 1691
l 1691 1692
l 1693 1690
l 1694 1693
l 1692 1695
l 1696 1694
l 1695 1697
l 1698 1696
l 1697 1699
l 1699 1700
l 1701 1698
l 1702 1701
l 1700 1703
l 1704 1702
l 1703 1705
l 1706 1704
l 1705 1707
l 1707 1708
l 1709 1706
l 1710 1709
l 1708 1711
l 1712 1710
l 1711 1713
l 1714 1712
l 1713 1715
l 1715 1716
l 1717 1714
l 1716 1718
l 1719 1717
l 1720 1719
l 1718 1721
l 1722 1720
l 1721 1723
l 1723 1724
l 1725 1722
l 1726 1725
l 1724 1727
l 1728 1726
l 1727 1729
l 1729 1730
l 1731 1728
l 1730 1732
l 1732 1733
l 1734 1731
l 1735 1734
l 1733 1736
l 1737 1735
l 1736 1738
l 1739 1737
l 1738 1740
l 1740 1741
l 1742 1739
l 1743 1742
l 1741 1744
l 1745 1743
l 1744 1746
l 1747 1745
l 1746 1748
l 1748 1749
l 1750 1747
l 1751 1750
l 1749 1752
l 1753 1751
l 1752 1754
l 1755 1753
l 1754 1756
l 1756 1757
l 1758 1755
l 1759 1758
l 1757 1760
l 1761 1759
l 1760 1762
l 1763 1761
l 1762 1764
l 1764 1765
l 1766 1763
l 1767 1766
l 1765 1768
l 1769 1767
l 1768 1770
l 1771 1769
l 1770 1772
l 1772 1773
l 1774 1771
l 1775 1774
l 1776 1775
l 1773 1777
l 1778 1776
l 1777 1779
l 1780 1778
l 1779 1781
l 1781 1782
l 1783 1780
l 1782 1784
l 1784 1785
l 1786 1783
l 1785 1787
l 1788 1786
l 1789 1788
l 1787 1790
l 1791 1789
l 1790 1792
l 1793 1791
l 1792 1794
l 1794 1795
l 1796 1793
l 1797 1796
l 1795 1798
l 1799 1797
l 1798 1800
l 1801 1799
l 1800 1802
l 1802 1803
l 1804 1801
l 1805 1804
l 1803 1806
l 1807 1805
l 1806 1808
l 1809 1807
l 1808 1810
l 1810 1811
l 1812 1809
l 1813 1812
l 1811 1814
l 1815 1813
l 1814 1816
l 1817 1815
l 1816 1818
l 1818 1819
l 1820 1817
l 1821 1820
l 1822 1821
l 1819 1823
l 1824 1822
l 1823 1825
l 1826 1824
l 1825 1827
l 1827 1828
l 1829 1826
l 1830 1829
l 1828 1831
l 1832 1830
l 1831 1833
l 1834 1832
l 1833 1835
l 1835 1836
l 1837 1834
l 1838 1837
l 1836 1839
l 1840 1838
l 1839 1841
l 1842 1840
l 1841 1843
l 1844 1842
l 1843 1845
l 1845 1846
l 1847 1844
l 1848 1847
l 1846 1849
l 1849 1850
l 1851 1848
l 1850 1852
l 1852 1853
l 1854 1851
l 1855 1854
l 1853 1856
l 1857 1855
l 1856 1858
l 1859 1857
l 1858 1860
l 1860 1861
l 1862 1859
l 1863 1862
l 1861 1864
l 1865 1863
l 1864 1866
l 1867 1865
l 1866 1868
l 1868 1869
l 1870 1867
l 1871 1870
l 1869 1872
l 1873 1871
l 1874 1873
l 1872 1875
l 1876 1874
l 1875 1877
l 1877 1878
l 1879 1876
l 1880 1879
l 1878 1881
l 1882 1880
l 1881 1883
l 1884 1882
l 1883 1885
l 1885 1886
l 1887 1884
l 1888 1887
l 1886 1889
l 1890 1888
l 1889 1891
l 1892 1890
l 1891 1893
l 1893 1894
l 1895 1892
l 1894 1896
l 1897 1895
l 1898 1897
l 1896 1899
l 1899 1900
l 1901 1898
l 1902 1901
l 1900 1903
l 1904 1902
l 1903 1905
l 1906 1904
l 1905 1907
l 1907 1908
l 1909 1906
l 1910 1909
l 1908 1911
l 1912 1910
l 1911 1913
l 1914 1912
l 1913 1915
l 1915 1916
l 1917 1914
l 1918 1917
l 1916 1919
l 1919 1920
l 1921 1918
l 1922 1921
l 1920 1923
l 1923 1924
l 1925 1922
l 1926 1925
l 1924 1927
l 1928 1926
l 1927 1929
l 1930 1931
l 1932 1928
l 1929 1930
l 1933 1932
l 1931 1934
l 1935 1933
l 1934 1936
l 1937 1935
l 1936 1938
l 1938 1939
l 1940 1937
l 1941 1940
l 1939 1942
l 1943 1941
l 1942 1944
l 1945 1943
l 1944 1946
l 1946 1947
l 1948 1945
l 1949 1948
l 1947 1950
l 1951 1949
l 1950 1952
l 1953 1951
l 1952 1954
l 1955 1953
l 1954 1956
l 1956 1957
l 1958 1955
l 1959 1958
l 1957 1960
l 1961 1959
l 1960 1962
l 1963 1961
l 1962 1964
l 1964 1965
l 1966 1963
l 1967 1966
l 1965 1968
l 1969 1967
l 1968 1970
l 1971 1969
l 1970 1972
l 1972 1973
l 1974 1971
l 1975 1974
l 1976 1975
l 1973 1977
l 1978 1976
l 1977 1979
l 1980 1978
l 1979 1981
l 1981 1982
l 1983 1980
l 1984 1983
l 1982 1985
l 1986 1984
l 1985 1987
l 1987 1988
l 1989 1986
l 1988 1990
l 1991 1989
l 1990 1992
l 1993 1991
l 1992 1994
l 1995 1993
l 1994 1996
l 1996 1997
l 1998 1995
l 1999 1998
l 1997 2000
l 2000 2001
l 2002 1999
l 2003 2002
l 2001 2004
l 2004 2005
l 2006 2003
l 2005 2007
l 2008 2006
l 2009 2008
l 2007 2010
l 2010 2011
l 2012 2009
l 2013 2012
l 2011 2014
l 2015 2013
l 2014 2016
l 2017 2015
l 2016 2018
l 2018 2019
l 2020 2017
l 2021 2020
l 2019 2022
l 2023 2021
l 2024 2023
l 2022 2025
l 2026 2024
l 2025 2027
l 2027 2028
l 2029 2026
l 2030 2029
l 2028 2031
l 2032 2030
l 2031 2033
l 2034 2032
l 2033 2035
l 2035 2036
l 2037 2034
l 2038 2037
l 2036 2039
l 2040 2038
l 2039 2041
l 2042 2040
l 2041 2043
l 2043 2044
l 2045 2042
l 2046 2045
l 2044 2047
l 2048 2046
l 2047 2049
l 2050 2048
l 2049 2051
l 2051 2052
l 2052 2053
l 2054 2050
l 2055 2054
l 2053 2056
l 2056 2057
l 2058 2055
l 2059 2058
l 2057 2060
l 2061 2059
l 2060 2062
l 2062 2063
l 2064 2061
l 2065 2064
l 2063 2066
l 2067 2065
l 2066 2068
l 2068 2069
l 2070 2067
l 2071 2070
l 2069 2072
l 2072 2073
l 2074 2071
l 2075 2074
l 2076 2075
l 2073 2077
l 2078 2076
l 2077 2079
l 2079 2080
l 2081 2078
l 2082 2081
l 2080 2083
l 2084 2082
l 2083 2085
l 2085 2086
l 2087 2084
l 2088 2087
l 2086 2089
l 2089 2090
l 2091 2088
l 2092 2091
l 2090 2093
l 2094 2092
l 2093 2095
l 2095 2096
l 2097 2094
l 2098 2097
l 2096 2099
l 2099 2100
l 2101 2098
l 2102 2101
l 2100 2103
l 2104 2102
l 2103 2105
l 2105 2106
l 2107 2104
l 2108 2107
l 2106 2109
l 2110 2108
l 2109 2111
l 2111 2112
l 2113 2110
l 2114 2113
l 2112 2115
l 2115 2116
l 2117 2114
l 2118 2117
l 2116 2119
l 2119 2120
l 2121 2118
l 2120 2122
l 2123 2121
l 2124 2123
l 2122 2125
l 2126 2124
l 2125 2127
l 2127 2128
l 2129 2126
l 2130 2129
l 2128 2131
l 2131 2132
l 2133 2130
l 2132 2134
l 2135 2133
l 2134 2136
l 2136 2137
l 2138 2135
l 2139 2138
l 2137 2140
l 2141 2139
l 2140 2142
l 2142 2143
l 2144 2141
l 2143 2145
l 2146 2144
l 2147 2146
l 2145 2148
l 2149 2147
l 2148 2150
l 2150 2151
l 2152 2149
l 2153 2152
l 2151 2154
l 2155 2153
l 2154 2156
l 2156 2157
l 2158 2155
l 2159 2158
l 2157 2160
l 2160 2161
l 2162 2159
l 2163 2162
l 2161 2164
l 2165 2163
l 2164 2166
l 2166 2167
l 2168 2165
l 2169 2168
l 2167 2170
l 2171 2169
l 2170 2172
l 2172 2173
l 2174 2171
l 2175 2174
l 2176 2175
l 2173 2177
l 2177 2178
l 2179 2176
l 2180 2179
l 2178 2181
l 2182 2180
l 2181 2183
l 2183 2184
l 2185 2182
l 2186 2185
l 2184 2187
l 2188 2186
l 2187 2189
l 2189 2190
l 2191 2188
l 2190 2192
l 2192 2193
l 2194 2191
l 2195 2194
l 2193 2196
l 2197 2195
l 2196 2198
l 2198 2199
l 2200 2197
l 2201 2200
l 2199 2202
l 2202 2203
l 2204 2201
l 2205 2204
l 2203 2206
l 2207 2205
l 2206 2208
l 2209 2207
l 2208 2210
l 2210 2211
l 2212 2209
l 2213 2212
l 2211 2214
l 2215 2213
l 2214 2216
l 2217 2215
l 2216 2218
l 2218 2219
l 2220 2217
l 2221 2220
l 2219 2222
l 2223 2221
l 2222 2224
l 2225 2223
l 2226 2225
l 2224 2227
l 2228 2226
l 2227 2229
l 2229 2230
l 2231 2228
l 2232 2231
l 2230 2233
l 2234 2232
l 2233 2235
l 2236 2234
l 2235 2237
l 2237 2238
l 2239 2236
l 2240 2239
l 2238 2241
l 2242 2240
l 2241 2243
l 2244 2242
l 2243 2245
l 2245 2246
l 2247 2244
l 2248 2247
l 2246 2249
l 2250 2248
l 2249 2251
l 2252 2250
l 2251 2253
l 2253 2254
l 2255 2252
l 2256 2255
l 2254 2257
l 2257 2258
l 2259 2256
l 2258 2260
l 2260 2261
l 2262 2259
l 2263 2262
l 2261 2264
l 2265 2263
l 2264 2266
l 2267 2265
l 2266 2268
l 2268 2269
l 2270 2267
l 2271 2270
l 2269 2272
l 2273 2271
l 2272 2274
l 2275 2273
l 2276 2275
l 2274 2277
l 2277 2278
l 2279 2276
l 2280 2279
l 2278 2281
l 2282 2280
l 2281 2283
l 2284 2282
l 2283 2285
l 2285 2286
l 2287 2284
l 2288 2287
l 2286 2289
l 2290 2288
l 2289 2291
l 2292 2290
l 2291 2293
l 2293 2294
l 2295 2292
l 2296 2295
l 2294 2297
l 2298 2296
l 2297 2299
l 2300 2298
l 2299 2301
l 2301 2302
l 2303 2300
l 2304 2303
l 2302 2305
l 2306 2304
l 2305 2307
l 2308 2306
l 2307 2309
l 2309 2310
l 2311 2308
l 2312 2311
l 2310 2313
l 2314 2312
l 2313 2315
l 2316 2314
l 2315 2317
l 2317 2318
l 2319 2316
l 2320 2319
l 2318 2321
l 2322 2320
l 2321 2323
l 2323 2324
l 2325 2322
l 2324 2326
l 2327 2325
l 2328 2327
l 2326 2329
l 2330 2328
l 2329 2331
l 2332 2330
l 2331 2333
l 2333 2334
l 2335 2332
l 2334 2336
l 2337 2335
l 2336 2338
l 2339 2337
l 2338 2340
l 2340 2341
l 2342 2339
l 2343 2342
l 2341 2344
l 2345 2343
l 2344 2346
l 2347 2345
l 2346 2348
l 2348 2349
l 2350 2347
l 2351 2350
l 2349 2352
l 2353 2351
l 2352 2354
l 2355 2353
l 2354 2356
l 2357 2355
l 2356 2358
l 2358 2359
l 2360 2357
l 2361 2360
l 2359 2362
l 2363 2361
l 2362 2364
l 2365 2363
l 2364 2366
l 2366 2367
l 2368 2365
l 2369 2368
l 2367 2370
l 2371 2369
l 2370 2372
l 2373 2371
l 2372 2374
l 2374 2375
l 2376 2373
l 2377 2376
l 2378 2377
l 2375 2379
l 2380 2378
l 2379 2381
l 2382 2380
l 2381 2383
l 2383 2384
l 2385 2382
l 2386 2385
l 2384 2387
l 2388 2386
l 2387 2389
l 2390 2388
l 2389 2391
l 2391 2392
l 2393 2390
l 2392 2394
l 2395 2393
l 2394 2396
l 2397 2395
l 2396 2398
l 2398 2399
l 2400 2397
l 2401 2400
l 2399 2402
l 2403 2401
l 2402 2404
l 2405 2403
l 2404 2406
l 2406 2407
l 2408 2405
l 2409 2408
l 2407 2410
l 2411 2409
l 2410 2412
l 2413 2411
l 2412 2414
l 2414 2415
l 2416 2413
l 2417 2416
l 2415 2418
l 2419 2417
l 2418 2420
l 2421 2419
l 2420 2422
l 2422 2423
l 2424 2421
l 2425 2424
l 2423 2426
l 2427 2425
l 2428 2427
l 2426 2429
l 2430 2428
l 2429 2431
l 2431 2432
l 2433 2430
l 2434 2433
l 2432 2435
l 2436 2434
l 2435 2437
l 2438 2436
l 2437 2439
l 2439 2440
l 2441 2438
l 2442 2441
l 2440 2443
l 2444 2442
l 2443 2445
l 2446 2444
l 2445 2447
l 2447 2448
l 2449 2446
l 2450 2449
l 2448 2451
l 2452 2450
l 2451 2453
l 2454 2452
l 2453 2455
l 2455 2456
l 2457 2454
l 2456 2458
l 2459 2457
l 2458 2460
l 2461 2459
l 2460 2462
l 2462 2463
l 2464 2461
l 2465 2464
l 2463 2466
l 2467 2465
l 2466 2468
l 2469 2467
l 2468 2470
l 2470 2471
l 2472 2469
l 2473 2472
l 2471 2474
l 2475 2473
l 2474 2476
l 2477 2475
l 2478 2477
l 2476 2479
l 2479 2480
l 2481 2478
l 2482 2481
l 2480 2483
l 2484 2482
l 2483 2485
l 2486 2484
l 2485 2487
l 2487 2488
l 2489 2486
l 2490 2489
l 2488 2491
l 2492 2490
l 2491 2493
l 2494 2492
l 2493 2495
l 2496 2494
l 2495 2497
l 2497 2498
l 2499 2496
l 2500 2499
l 2498 2501
l 2502 2500
l 2501 2503
l 2504 2502
l 2503 2505
l 2505 2506
l 2507 2504
l 2508 2507
l 2506 1
l 4 2508
# </edges>
