# Wavefront OBJ file written 2026-08-17T15:04:42
o rotatingZone_edgeMesh

# points : 1984
# lines  : 2304

# <points count="1984">
v -0.011967 0 -0.269734
v -6.61309e-17 0 0.27
v 0.00513012 0 0.269951
v -0.01709 0 -0.269459
v 0.00683983 0 0.269914
v -0.0187963 0 -0.269344
v -0.0222067 0 -0.269085
v 0.0136753 0 0.269653
v -0.0273155 0 -0.268614
v 0.01709 0 0.269459
v -0.0307158 0 -0.268247
v 0.020502 0 0.26922
v -0.0341115 0 -0.267837
v 0.0239107 0 0.268939
v -0.0375015 0 -0.267383
v 0.0273155 0 0.268614
v -0.0425751 0 -0.266622
v 0.0324144 0 0.268047
v -0.0442629 0 -0.266347
v -0.0476333 0 -0.265765
v 0.0358072 0 0.267615
v 0.0375015 0 0.267383
v -0.0509961 0 -0.26514
v 0.0408855 0 0.266886
v -0.0560247 0 -0.264124
v 0.045949 0 0.266061
v -0.0593659 0 -0.263393
v -0.061033 0 -0.263011
v 0.0493157 0 0.265458
v -0.0643598 0 -0.262218
v 0.0526744 0 0.264812
v 0.0543506 0 0.264473
v -0.0693304 0 -0.260947
v 0.0576964 0 0.263763
v -0.0726303 0 -0.260048
v 0.0626977 0 0.262619
v -0.0759186 0 -0.259107
v 0.0643598 0 0.262218
v -0.0791947 0 -0.258124
v 0.0676761 0 0.261381
v -0.0824581 0 -0.2571
v 0.0709818 0 0.260502
v -0.0873283 0 -0.255487
v 0.0775583 0 0.258621
v -0.0937724 0 -0.253193
v 0.0808281 0 0.257618
v -0.0969722 0 -0.251985
v 0.0840849 0 0.256573
v -0.101742 0 -0.250097
v 0.0889447 0 0.254929
v -0.104902 0 -0.248788
v 0.0921669 0 0.253782
v -0.108045 0 -0.247439
v 0.0953743 0 0.252594
v 0.0985663 0 0.251366
v -0.112727 0 -0.245341
v 0.101742 0 0.250097
v -0.118907 0 -0.242407
v 0.108045 0 0.247439
v 0.10961 0 0.24675
v -0.12349 0 -0.240105
v -0.126522 0 -0.23852
v 0.115826 0 0.243894
v -0.129534 0 -0.236899
v -0.134012 0 -0.234395
v 0.121968 0 0.240881
v 0.126522 0 0.23852
v -0.139906 0 -0.230925
v 0.129534 0 0.236899
v 0.131031 0 0.236074
v 0.134012 0 0.234395
v -0.147148 0 -0.226379
v 0.13697 0 0.232678
v -0.152836 0 -0.222578
v 0.141367 0 0.230034
v -0.154242 0 -0.221606
v 0.144269 0 0.228225
v -0.157037 0 -0.219634
v 0.147148 0 0.226379
v -0.161182 0 -0.216611
v 0.150004 0 0.224496
v -0.165268 0 -0.21351
v 0.152836 0 0.222578
v 0.154242 0 0.221606
v -0.167959 0 -0.211399
v -0.170625 0 -0.209254
v 0.157037 0 0.219634
v 0.159807 0 0.217628
v -0.173261 0 -0.207076
v 0.162551 0 0.215586
v -0.17587 0 -0.204865
v -0.177164 0 -0.203746
v 0.166618 0 0.212459
v -0.181004 0 -0.200343
v -0.182269 0 -0.199193
v 0.169295 0 0.210331
v 0.171947 0 0.208169
v -0.187257 0 -0.194512
v -0.188485 0 -0.193322
v 0.177164 0 0.203746
v 0.178452 0 0.202621
v -0.190919 0 -0.190919
v 0.181004 0 0.200343
v -0.193322 0 -0.188485
v -0.195694 0 -0.186021
v 0.184778 0 0.196869
v -0.199193 0 -0.182269
v 0.189705 0 0.192124
v -0.202621 0 -0.178452
v -0.203746 0 -0.177164
v 0.193322 0 0.188485
v -0.205974 0 -0.174569
v 0.196869 0 0.184778
v -0.209254 0 -0.170625
v 0.199193 0 0.182269
v -0.211399 0 -0.167959
v -0.212459 0 -0.166618
v 0.202621 0 0.178452
v -0.214552 0 -0.163913
v 0.204865 0 0.17587
v -0.217628 0 -0.159807
v 0.207076 0 0.173261
v 0.209254 0 0.170625
v -0.221606 0 -0.154242
v 0.211399 0 0.167959
v -0.222578 0 -0.152836
v -0.225442 0 -0.148579
v 0.215586 0 0.162551
v -0.227307 0 -0.145711
v -0.229134 0 -0.14282
v 0.219634 0 0.157037
v -0.230925 0 -0.139906
v 0.222578 0 0.152836
v -0.234395 0 -0.134012
v 0.225442 0 0.148579
v -0.235239 0 -0.132525
v -0.236899 0 -0.129534
v 0.228225 0 0.144269
v -0.237714 0 -0.128031
v 0.230925 0 0.139906
v -0.240105 0 -0.12349
v -0.241649 0 -0.120439
v -0.243156 0 -0.117369
v 0.234395 0 0.134012
v -0.244623 0 -0.114279
v 0.236899 0 0.129534
v -0.246051 0 -0.111171
v 0.23852 0 0.126522
v -0.247439 0 -0.108045
v 0.240105 0 0.12349
v -0.248788 0 -0.104902
v -0.250097 0 -0.101742
v 0.243156 0 0.117369
v -0.251366 0 -0.0985663
v 0.244623 0 0.114279
v 0.24675 0 0.10961
v -0.253782 0 -0.0921669
v 0.247439 0 0.108045
v -0.254929 0 -0.0889447
v -0.256036 0 -0.0857083
v 0.250097 0 0.101742
v -0.2571 0 -0.0824581
v -0.258124 0 -0.0791947
v 0.251985 0 0.0969722
v -0.259107 0 -0.0759186
v 0.253782 0 0.0921669
v -0.260048 0 -0.0726303
v -0.260502 0 -0.0709818
v 0.254929 0 0.0889447
v -0.261381 0 -0.0676761
v 0.256036 0 0.0857083
v 0.256573 0 0.0840849
v -0.262218 0 -0.0643598
v -0.263011 0 -0.061033
v 0.258124 0 0.0791947
v -0.263393 0 -0.0593659
v -0.264124 0 -0.0560247
v 0.260048 0 0.0726303
v -0.264812 0 -0.0526744
v 0.260947 0 0.0693304
v -0.265458 0 -0.0493157
v 0.261804 0 0.0660193
v -0.265765 0 -0.0476333
v -0.266622 0 -0.0425751
v 0.263011 0 0.061033
v -0.266886 0 -0.0408855
v 0.263763 0 0.0576964
v -0.267837 0 -0.0341115
v 0.264812 0 0.0526744
v -0.268247 0 -0.0307158
v 0.266061 0 0.045949
v -0.268783 0 -0.0256135
v -0.269085 0 -0.0222067
v 0.266886 0 0.0408855
v -0.269344 0 -0.0187963
v 0.267383 0 0.0375015
v 0.268047 0 0.0324144
v 0.268614 0 0.0273155
v -0.269914 0 -0.00683983
v -0.269978 0 -0.00342019
v 0.26922 0 0.020502
v -0.269995 0 0.00171013
v 0.269459 0 0.01709
v 0.269653 0 0.0136753
v 0.269914 0 0.00683983
v -0.269653 0 0.0136753
v 0.27 0 1.36436e-16
v -0.26922 0 0.020502
v -0.268783 0 0.0256135
v 0.269951 0 -0.00513012
v 0.269865 0 -0.00854928
v -0.268247 0 0.0307158
v -0.267837 0 0.0341115
v 0.269562 0 -0.015383
v 0.269459 0 -0.01709
v -0.267383 0 0.0375015
v 0.26922 0 -0.020502
v -0.266622 0 0.0425751
v 0.268783 0 -0.0256135
v -0.265765 0 0.0476333
v 0.268436 0 -0.0290163
v 0.268247 0 -0.0307158
v -0.264812 0 0.0526744
v 0.267837 0 -0.0341115
v -0.263763 0 0.0576964
v 0.267383 0 -0.0375015
v -0.262619 0 0.0626977
v 0.266347 0 -0.0442629
v -0.260947 0 0.0693304
v -0.260502 0 0.0709818
v 0.26514 0 -0.0509961
v -0.259107 0 0.0759186
v 0.264124 0 -0.0560247
v 0.263393 0 -0.0593659
v -0.257618 0 0.0808281
v -0.2571 0 0.0824581
v 0.262619 0 -0.0626977
v 0.262218 0 -0.0643598
v -0.254929 0 0.0889447
v 0.261381 0 -0.0676761
v -0.253782 0 0.0921669
v 0.260502 0 -0.0709818
v -0.252594 0 0.0953743
v -0.251985 0 0.0969722
v 0.259107 0 -0.0759186
v -0.250097 0 0.101742
v 0.257618 0 -0.0808281
v -0.248788 0 0.104902
v 0.2571 0 -0.0824581
v -0.247439 0 0.108045
v 0.256036 0 -0.0857083
v -0.246051 0 0.111171
v 0.255487 0 -0.0873283
v -0.245341 0 0.112727
v -0.243156 0 0.117369
v 0.253193 0 -0.0937724
v 0.252594 0 -0.0953743
v -0.240881 0 0.121968
v 0.250097 0 -0.101742
v -0.23852 0 0.126522
v -0.236899 0 0.129534
v -0.235239 0 0.132525
v 0.247439 0 -0.108045
v -0.232678 0 0.13697
v 0.245341 0 -0.112727
v -0.230925 0 0.139906
v -0.230034 0 0.141367
v -0.228225 0 0.144269
v 0.243156 0 -0.117369
v -0.225442 0 0.148579
v 0.240881 0 -0.121968
v 0.23852 0 -0.126522
v -0.222578 0 0.152836
v 0.236899 0 -0.129534
v -0.220625 0 0.155643
v 0.234395 0 -0.134012
v -0.217628 0 0.159807
v 0.233541 0 -0.135494
v -0.21351 0 0.165268
v -0.212459 0 0.166618
v 0.230034 0 -0.141367
v -0.210331 0 0.169295
v -0.208169 0 0.171947
v 0.228225 0 -0.144269
v -0.204865 0 0.17587
v 0.224496 0 -0.150004
v -0.201486 0 0.179731
v 0.222578 0 -0.152836
v 0.221606 0 -0.154242
v -0.199193 0 0.182269
v 0.219634 0 -0.157037
v -0.195694 0 0.186021
v 0.217628 0 -0.159807
v 0.216611 0 -0.161182
v -0.190919 0 0.190919
v 0.21351 0 -0.165268
v -0.189705 0 0.192124
v -0.187257 0 0.194512
v -0.184778 0 0.196869
v 0.209254 0 -0.170625
v -0.182269 0 0.199193
v 0.205974 0 -0.174569
v -0.177164 0 0.203746
v -0.174569 0 0.205974
v 0.202621 0 -0.178452
v 0.200343 0 -0.181004
v -0.169295 0 0.210331
v 0.198035 0 -0.183528
v 0.195694 0 -0.186021
v -0.163913 0 0.214552
v 0.193322 0 -0.188485
v 0.189705 0 -0.192124
v -0.158425 0 0.218635
v 0.186021 0 -0.195694
v -0.154242 0 0.221606
v 0.184778 0 -0.196869
v -0.151422 0 0.223543
v 0.181004 0 -0.200343
v -0.147148 0 0.226379
v 0.179731 0 -0.201486
v -0.145711 0 0.227307
v 0.177164 0 -0.203746
v 0.17587 0 -0.204865
v -0.139906 0 0.230925
v 0.170625 0 -0.209254
v -0.135494 0 0.233541
v -0.132525 0 0.235239
v 0.167959 0 -0.211399
v -0.129534 0 0.236899
v 0.163913 0 -0.214552
v -0.12349 0 0.240105
v 0.161182 0 -0.216611
v 0.158425 0 -0.218635
v -0.117369 0 0.243156
v -0.114279 0 0.244623
v 0.152836 0 -0.222578
v -0.111171 0 0.246051
v 0.151422 0 -0.223543
v -0.108045 0 0.247439
v 0.148579 0 -0.225442
v -0.103325 0 0.249448
v -0.101742 0 0.250097
v 0.144269 0 -0.228225
v 0.141367 0 -0.230034
v -0.0985663 0 0.251366
v -0.0953743 0 0.252594
v 0.138441 0 -0.231806
v -0.0905576 0 0.254361
v -0.0889447 0 0.254929
v 0.132525 0 -0.235239
v -0.0857083 0 0.256036
v 0.128031 0 -0.237714
v -0.0808281 0 0.257618
v -0.0775583 0 0.258621
v 0.121968 0 -0.240881
v -0.0742759 0 0.259582
v 0.118907 0 -0.242407
v 0.117369 0 -0.243156
v -0.0693304 0 0.260947
v -0.0660193 0 0.261804
v 0.114279 0 -0.244623
v -0.0626977 0 0.262619
v 0.111171 0 -0.246051
v -0.061033 0 0.263011
v 0.106476 0 -0.248118
v -0.0560247 0 0.264124
v 0.101742 0 -0.250097
v -0.0493157 0 0.265458
v 0.0985663 0 -0.251366
v -0.045949 0 0.266061
v 0.0937724 0 -0.253193
v -0.0391943 0 0.26714
v -0.0375015 0 0.267383
v 0.0889447 0 -0.254929
v -0.0324144 0 0.268047
v -0.0290163 0 0.268436
v -0.0256135 0 0.268783
v 0.0808281 0 -0.257618
v -0.0222067 0 0.269085
v 0.0759186 0 -0.259107
v -0.01709 0 0.269459
v 0.0726303 0 -0.260048
v -0.0136753 0 0.269653
v -0.011967 0 0.269734
v 0.0693304 0 -0.260947
v -0.00854928 0 0.269865
v 0.0676761 0 -0.261381
v -0.00342019 0 0.269978
v 0.0626977 0 -0.262619
v 0.061033 0 -0.263011
v 0.0576964 0 -0.263763
v 0.0509961 0 -0.26514
v 0.0493157 0 -0.265458
v 0.045949 0 -0.266061
v 0.0442629 0 -0.266347
v 0.0408855 0 -0.266886
v 0.0375015 0 -0.267383
v 0.0324144 0 -0.268047
v 0.0307158 0 -0.268247
v 0.0273155 0 -0.268614
v 0.020502 0 -0.26922
v 0.0136753 0 -0.269653
v 0.0102584 0 -0.269805
v 0.00683983 0 -0.269914
v 0.00342019 0 -0.269978
v 0.00171013 0 -0.269995
v -0.00171013 0 -0.269995
v -0.00513012 0 -0.269951
v -0.0102584 0.0108 -0.269805
v -0.00854928 0.0108 -0.269865
v -0.00854928 0 -0.269865
v -0.0102584 0 -0.269805
v -0.011967 0.0108 -0.269734
v 0.00171013 0.0108 0.269995
v -6.61309e-17 0.0108 0.27
v 0.00171013 0 0.269995
v -0.0136753 0.0108 -0.269653
v -0.0136753 0 -0.269653
v -0.015383 0 -0.269562
v 0.00342019 0.0108 0.269978
v 0.00342019 0 0.269978
v -0.015383 0.0108 -0.269562
v 0.00513012 0.0108 0.269951
v -0.01709 0.0108 -0.269459
v 0.00683983 0.0108 0.269914
v -0.0187963 0.0108 -0.269344
v -0.020502 0 -0.26922
v 0.00854928 0 0.269865
v 0.00854928 0.0108 0.269865
v -0.020502 0.0108 -0.26922
v 0.0102584 0 0.269805
v 0.0102584 0.0108 0.269805
v -0.0222067 0.0108 -0.269085
v -0.0239107 0 -0.268939
v 0.011967 0 0.269734
v 0.011967 0.0108 0.269734
v -0.0239107 0.0108 -0.268939
v 0.0136753 0.0108 0.269653
v -0.0256135 0 -0.268783
v -0.0256135 0.0108 -0.268783
v 0.015383 0.0108 0.269562
v 0.015383 0 0.269562
v -0.0290163 0 -0.268436
v -0.0273155 0.0108 -0.268614
v 0.01709 0.0108 0.269459
v -0.0290163 0.0108 -0.268436
v -0.0307158 0.0108 -0.268247
v 0.0187963 0.0108 0.269344
v 0.0187963 0 0.269344
v 0.020502 0.0108 0.26922
v -0.0324144 0.0108 -0.268047
v -0.0324144 0 -0.268047
v 0.0222067 0.0108 0.269085
v 0.0222067 0 0.269085
v -0.0341115 0.0108 -0.267837
v 0.0239107 0.0108 0.268939
v -0.0358072 0.0108 -0.267615
v -0.0358072 0 -0.267615
v 0.0256135 0.0108 0.268783
v -0.0375015 0.0108 -0.267383
v 0.0256135 0 0.268783
v -0.0391943 0.0108 -0.26714
v 0.0273155 0.0108 0.268614
v -0.0391943 0 -0.26714
v 0.0290163 0 0.268436
v 0.0290163 0.0108 0.268436
v -0.0408855 0.0108 -0.266886
v -0.0408855 0 -0.266886
v 0.0307158 0 0.268247
v 0.0307158 0.0108 0.268247
v -0.0425751 0.0108 -0.266622
v -0.045949 0 -0.266061
v 0.0324144 0.0108 0.268047
v -0.0442629 0.0108 -0.266347
v 0.0341115 0 0.267837
v -0.045949 0.0108 -0.266061
v 0.0341115 0.0108 0.267837
v -0.0493157 0 -0.265458
v -0.0476333 0.0108 -0.265765
v 0.0358072 0.0108 0.267615
v -0.0493157 0.0108 -0.265458
v 0.0375015 0.0108 0.267383
v 0.0391943 0 0.26714
v -0.0509961 0.0108 -0.26514
v 0.0391943 0.0108 0.26714
v -0.0526744 0 -0.264812
v -0.0543506 0 -0.264473
v -0.0526744 0.0108 -0.264812
v 0.0408855 0.0108 0.266886
v -0.0543506 0.0108 -0.264473
v 0.0425751 0 0.266622
v 0.0425751 0.0108 0.266622
v -0.0560247 0.0108 -0.264124
v 0.0442629 0 0.266347
v 0.0442629 0.0108 0.266347
v -0.0576964 0 -0.263763
v -0.0576964 0.0108 -0.263763
v 0.045949 0.0108 0.266061
v 0.0476333 0 0.265765
v -0.0593659 0.0108 -0.263393
v 0.0476333 0.0108 0.265765
v -0.061033 0.0108 -0.263011
v 0.0493157 0.0108 0.265458
v -0.0626977 0 -0.262619
v 0.0509961 0 0.26514
v -0.0626977 0.0108 -0.262619
v 0.0509961 0.0108 0.26514
v -0.0660193 0 -0.261804
v -0.0643598 0.0108 -0.262218
v 0.0526744 0.0108 0.264812
v -0.0660193 0.0108 -0.261804
v 0.0543506 0.0108 0.264473
v -0.0676761 0 -0.261381
v -0.0676761 0.0108 -0.261381
v 0.0560247 0.0108 0.264124
v 0.0560247 0 0.264124
v -0.0693304 0.0108 -0.260947
v 0.0576964 0.0108 0.263763
v -0.0709818 0.0108 -0.260502
v -0.0709818 0 -0.260502
v 0.0593659 0.0108 0.263393
v 0.0593659 0 0.263393
v -0.0726303 0.0108 -0.260048
v -0.0742759 0 -0.259582
v 0.061033 0.0108 0.263011
v 0.061033 0 0.263011
v -0.0742759 0.0108 -0.259582
v 0.0626977 0.0108 0.262619
v -0.0759186 0.0108 -0.259107
v -0.0775583 0 -0.258621
v 0.0643598 0.0108 0.262218
v -0.0775583 0.0108 -0.258621
v 0.0660193 0 0.261804
v 0.0660193 0.0108 0.261804
v -0.0791947 0.0108 -0.258124
v -0.0808281 0 -0.257618
v 0.0676761 0.0108 0.261381
v -0.0808281 0.0108 -0.257618
v 0.0693304 0 0.260947
v 0.0693304 0.0108 0.260947
v -0.0824581 0.0108 -0.2571
v -0.0840849 0 -0.256573
v 0.0709818 0.0108 0.260502
v -0.0840849 0.0108 -0.256573
v 0.0726303 0 0.260048
v -0.0857083 0 -0.256036
v 0.0726303 0.0108 0.260048
v -0.0857083 0.0108 -0.256036
v 0.0742759 0 0.259582
v 0.0742759 0.0108 0.259582
v -0.0889447 0 -0.254929
v -0.0873283 0.0108 -0.255487
v 0.0759186 0 0.259107
v -0.0889447 0.0108 -0.254929
v 0.0759186 0.0108 0.259107
v -0.0905576 0 -0.254361
v 0.0775583 0.0108 0.258621
v -0.0905576 0.0108 -0.254361
v 0.0791947 0 0.258124
v -0.0921669 0 -0.253782
v 0.0791947 0.0108 0.258124
v -0.0921669 0.0108 -0.253782
v -0.0937724 0.0108 -0.253193
v 0.0808281 0.0108 0.257618
v 0.0824581 0 0.2571
v -0.0953743 0 -0.252594
v -0.0953743 0.0108 -0.252594
v 0.0824581 0.0108 0.2571
v -0.0969722 0.0108 -0.251985
v 0.0840849 0.0108 0.256573
v -0.0985663 0 -0.251366
v 0.0857083 0 0.256036
v -0.0985663 0.0108 -0.251366
v 0.0857083 0.0108 0.256036
v 0.0873283 0 0.255487
v -0.100156 0 -0.250736
v 0.0873283 0.0108 0.255487
v -0.100156 0.0108 -0.250736
v -0.101742 0.0108 -0.250097
v 0.0889447 0.0108 0.254929
v -0.103325 0 -0.249448
v 0.0905576 0 0.254361
v 0.0905576 0.0108 0.254361
v -0.103325 0.0108 -0.249448
v -0.106476 0 -0.248118
v 0.0921669 0.0108 0.253782
v -0.104902 0.0108 -0.248788
v 0.0937724 0 0.253193
v -0.106476 0.0108 -0.248118
v 0.0937724 0.0108 0.253193
v -0.108045 0.0108 -0.247439
v 0.0953743 0.0108 0.252594
v -0.10961 0 -0.24675
v 0.0969722 0 0.251985
v -0.10961 0.0108 -0.24675
v 0.0969722 0.0108 0.251985
v 0.0985663 0.0108 0.251366
v -0.111171 0 -0.246051
v -0.111171 0.0108 -0.246051
v -0.112727 0.0108 -0.245341
v 0.100156 0.0108 0.250736
v 0.100156 0 0.250736
v -0.114279 0.0108 -0.244623
v -0.114279 0 -0.244623
v 0.101742 0.0108 0.250097
v -0.115826 0.0108 -0.243894
v -0.115826 0 -0.243894
v 0.103325 0.0108 0.249448
v -0.117369 0 -0.243156
v 0.103325 0 0.249448
v -0.117369 0.0108 -0.243156
v 0.104902 0.0108 0.248788
v 0.104902 0 0.248788
v -0.118907 0.0108 -0.242407
v -0.120439 0 -0.241649
v 0.106476 0.0108 0.248118
v 0.106476 0 0.248118
v -0.120439 0.0108 -0.241649
v 0.108045 0.0108 0.247439
v -0.121968 0.0108 -0.240881
v -0.121968 0 -0.240881
v 0.10961 0.0108 0.24675
v -0.12349 0.0108 -0.240105
v -0.125009 0 -0.239317
v 0.111171 0.0108 0.246051
v 0.111171 0 0.246051
v -0.125009 0.0108 -0.239317
v 0.112727 0.0108 0.245341
v 0.112727 0 0.245341
v -0.126522 0.0108 -0.23852
v -0.128031 0 -0.237714
v 0.114279 0.0108 0.244623
v 0.114279 0 0.244623
v -0.128031 0.0108 -0.237714
v 0.115826 0.0108 0.243894
v -0.129534 0.0108 -0.236899
v 0.117369 0 0.243156
v 0.117369 0.0108 0.243156
v -0.131031 0 -0.236074
v -0.131031 0.0108 -0.236074
v 0.118907 0 0.242407
v 0.118907 0.0108 0.242407
v -0.132525 0.0108 -0.235239
v -0.132525 0 -0.235239
v 0.120439 0 0.241649
v 0.120439 0.0108 0.241649
v -0.134012 0.0108 -0.234395
v 0.121968 0.0108 0.240881
v -0.135494 0 -0.233541
v -0.135494 0.0108 -0.233541
v 0.12349 0 0.240105
v 0.12349 0.0108 0.240105
v -0.13697 0 -0.232678
v -0.138441 0 -0.231806
v -0.13697 0.0108 -0.232678
v 0.125009 0 0.239317
v 0.125009 0.0108 0.239317
v -0.138441 0.0108 -0.231806
v 0.126522 0.0108 0.23852
v -0.139906 0.0108 -0.230925
v 0.128031 0 0.237714
v 0.128031 0.0108 0.237714
v -0.141367 0 -0.230034
v -0.14282 0 -0.229134
v -0.141367 0.0108 -0.230034
v 0.129534 0.0108 0.236899
v -0.14282 0.0108 -0.229134
v 0.131031 0.0108 0.236074
v -0.144269 0 -0.228225
v -0.145711 0 -0.227307
v -0.144269 0.0108 -0.228225
v 0.132525 0 0.235239
v 0.132525 0.0108 0.235239
v -0.145711 0.0108 -0.227307
v 0.134012 0.0108 0.234395
v -0.147148 0.0108 -0.226379
v 0.135494 0 0.233541
v -0.148579 0 -0.225442
v 0.135494 0.0108 0.233541
v -0.148579 0.0108 -0.225442
v 0.13697 0.0108 0.232678
v -0.150004 0.0108 -0.224496
v -0.150004 0 -0.224496
v 0.138441 0.0108 0.231806
v -0.151422 0.0108 -0.223543
v 0.138441 0 0.231806
v -0.151422 0 -0.223543
v 0.139906 0.0108 0.230925
v -0.152836 0.0108 -0.222578
v 0.139906 0 0.230925
v 0.141367 0.0108 0.230034
v -0.154242 0.0108 -0.221606
v -0.155643 0 -0.220625
v -0.155643 0.0108 -0.220625
v 0.14282 0.0108 0.229134
v 0.14282 0 0.229134
v -0.157037 0.0108 -0.219634
v 0.144269 0.0108 0.228225
v -0.158425 0.0108 -0.218635
v 0.145711 0.0108 0.227307
v 0.145711 0 0.227307
v -0.158425 0 -0.218635
v -0.159807 0 -0.217628
v -0.159807 0.0108 -0.217628
v 0.147148 0.0108 0.226379
v -0.161182 0.0108 -0.216611
v 0.148579 0.0108 0.225442
v 0.148579 0 0.225442
v -0.162551 0.0108 -0.215586
v 0.150004 0.0108 0.224496
v -0.162551 0 -0.215586
v -0.163913 0 -0.214552
v -0.163913 0.0108 -0.214552
v 0.151422 0.0108 0.223543
v 0.151422 0 0.223543
v -0.165268 0.0108 -0.21351
v 0.152836 0.0108 0.222578
v -0.166618 0 -0.212459
v -0.166618 0.0108 -0.212459
v 0.154242 0.0108 0.221606
v -0.167959 0.0108 -0.211399
v 0.155643 0.0108 0.220625
v 0.155643 0 0.220625
v -0.169295 0.0108 -0.210331
v -0.169295 0 -0.210331
v 0.157037 0.0108 0.219634
v -0.170625 0.0108 -0.209254
v 0.158425 0.0108 0.218635
v 0.158425 0 0.218635
v -0.171947 0.0108 -0.208169
v -0.171947 0 -0.208169
v 0.159807 0.0108 0.217628
v -0.173261 0.0108 -0.207076
v 0.161182 0.0108 0.216611
v 0.161182 0 0.216611
v -0.174569 0.0108 -0.205974
v -0.174569 0 -0.205974
v 0.162551 0.0108 0.215586
v -0.17587 0.0108 -0.204865
v 0.163913 0.0108 0.214552
v 0.163913 0 0.214552
v -0.177164 0.0108 -0.203746
v 0.165268 0.0108 0.21351
v 0.165268 0 0.21351
v -0.178452 0 -0.202621
v -0.178452 0.0108 -0.202621
v -0.179731 0 -0.201486
v 0.166618 0.0108 0.212459
v -0.179731 0.0108 -0.201486
v 0.167959 0 0.211399
v 0.167959 0.0108 0.211399
v -0.181004 0.0108 -0.200343
v 0.169295 0.0108 0.210331
v -0.182269 0.0108 -0.199193
v 0.170625 0 0.209254
v 0.170625 0.0108 0.209254
v -0.183528 0.0108 -0.198035
v -0.183528 0 -0.198035
v 0.171947 0.0108 0.208169
v -0.184778 0.0108 -0.196869
v -0.184778 0 -0.196869
v -0.186021 0 -0.195694
v 0.173261 0.0108 0.207076
v 0.173261 0 0.207076
v -0.186021 0.0108 -0.195694
v 0.174569 0.0108 0.205974
v 0.174569 0 0.205974
v -0.187257 0.0108 -0.194512
v 0.17587 0.0108 0.204865
v 0.17587 0 0.204865
v -0.188485 0.0108 -0.193322
v 0.177164 0.0108 0.203746
v -0.189705 0.0108 -0.192124
v -0.189705 0 -0.192124
v 0.178452 0.0108 0.202621
v -0.190919 0.0108 -0.190919
v 0.179731 0.0108 0.201486
v 0.179731 0 0.201486
v -0.192124 0.0108 -0.189705
v -0.192124 0 -0.189705
v 0.181004 0.0108 0.200343
v -0.193322 0.0108 -0.188485
v -0.194512 0 -0.187257
v 0.182269 0.0108 0.199193
v 0.182269 0 0.199193
v -0.194512 0.0108 -0.187257
v 0.183528 0 0.198035
v 0.183528 0.0108 0.198035
v -0.196869 0 -0.184778
v -0.195694 0.0108 -0.186021
v 0.184778 0.0108 0.196869
v -0.196869 0.0108 -0.184778
v 0.186021 0 0.195694
v -0.198035 0 -0.183528
v 0.186021 0.0108 0.195694
v -0.198035 0.0108 -0.183528
v 0.187257 0 0.194512
v 0.187257 0.0108 0.194512
v -0.200343 0 -0.181004
v -0.199193 0.0108 -0.182269
v 0.188485 0 0.193322
v 0.188485 0.0108 0.193322
v -0.200343 0.0108 -0.181004
v -0.201486 0 -0.179731
v 0.189705 0.0108 0.192124
v -0.201486 0.0108 -0.179731
v 0.190919 0 0.190919
v -0.202621 0.0108 -0.178452
v 0.190919 0.0108 0.190919
v 0.192124 0 0.189705
v -0.204865 0 -0.17587
v -0.203746 0.0108 -0.177164
v 0.192124 0.0108 0.189705
v -0.204865 0.0108 -0.17587
v 0.193322 0.0108 0.188485
v 0.194512 0 0.187257
v -0.205974 0.0108 -0.174569
v 0.194512 0.0108 0.187257
v -0.207076 0 -0.173261
v 0.195694 0 0.186021
v -0.207076 0.0108 -0.173261
v 0.195694 0.0108 0.186021
v -0.208169 0 -0.171947
v -0.208169 0.0108 -0.171947
v 0.196869 0.0108 0.184778
v -0.210331 0 -0.169295
v 0.198035 0 0.183528
v -0.209254 0.0108 -0.170625
v 0.198035 0.0108 0.183528
v -0.210331 0.0108 -0.169295
v 0.199193 0.0108 0.182269
v 0.200343 0 0.181004
v -0.211399 0.0108 -0.167959
v 0.200343 0.0108 0.181004
v -0.212459 0.0108 -0.166618
v 0.201486 0 0.179731
v 0.201486 0.0108 0.179731
v -0.21351 0.0108 -0.165268
v 0.202621 0.0108 0.178452
v -0.21351 0 -0.165268
v -0.214552 0.0108 -0.163913
v 0.203746 0.0108 0.177164
v 0.203746 0 0.177164
v -0.215586 0.0108 -0.162551
v -0.215586 0 -0.162551
v 0.204865 0.0108 0.17587
v -0.216611 0.0108 -0.161182
v -0.216611 0 -0.161182
v 0.205974 0.0108 0.174569
v 0.205974 0 0.174569
v -0.217628 0.0108 -0.159807
v 0.207076 0.0108 0.173261
v -0.218635 0 -0.158425
v -0.218635 0.0108 -0.158425
v 0.208169 0 0.171947
v 0.208169 0.0108 0.171947
v -0.219634 0 -0.157037
v -0.219634 0.0108 -0.157037
v 0.209254 0.0108 0.170625
v -0.220625 0 -0.155643
v -0.220625 0.0108 -0.155643
v 0.210331 0 0.169295
v 0.210331 0.0108 0.169295
v -0.221606 0.0108 -0.154242
v 0.211399 0.0108 0.167959
v -0.222578 0.0108 -0.152836
v 0.212459 0 0.166618
v 0.212459 0.0108 0.166618
v -0.223543 0 -0.151422
v -0.223543 0.0108 -0.151422
v 0.21351 0 0.165268
v 0.21351 0.0108 0.165268
v -0.224496 0 -0.150004
v -0.224496 0.0108 -0.150004
v 0.214552 0 0.163913
v 0.214552 0.0108 0.163913
v -0.225442 0.0108 -0.148579
v 0.215586 0.0108 0.162551
v -0.226379 0 -0.147148
v -0.226379 0.0108 -0.147148
v 0.216611 0 0.161182
v 0.216611 0.0108 0.161182
v -0.228225 0 -0.144269
v -0.227307 0.0108 -0.145711
v 0.217628 0 0.159807
v 0.217628 0.0108 0.159807
v -0.228225 0.0108 -0.144269
v 0.218635 0 0.158425
v 0.218635 0.0108 0.158425
v -0.229134 0.0108 -0.14282
v 0.219634 0.0108 0.157037
v -0.230034 0 -0.141367
v -0.230034 0.0108 -0.141367
v 0.220625 0 0.155643
v 0.220625 0.0108 0.155643
v -0.230925 0.0108 -0.139906
v 0.221606 0 0.154242
v 0.221606 0.0108 0.154242
v -0.231806 0 -0.138441
v -0.231806 0.0108 -0.138441
v 0.222578 0.0108 0.152836
v -0.232678 0 -0.13697
v -0.232678 0.0108 -0.13697
v 0.223543 0 0.151422
v 0.223543 0.0108 0.151422
v -0.233541 0 -0.135494
v -0.233541 0.0108 -0.135494
v 0.224496 0 0.150004
v 0.224496 0.0108 0.150004
v -0.234395 0.0108 -0.134012
v 0.225442 0.0108 0.148579
v -0.235239 0.0108 -0.132525
v 0.226379 0 0.147148
v 0.226379 0.0108 0.147148
v -0.236074 0 -0.131031
v -0.236074 0.0108 -0.131031
v 0.227307 0 0.145711
v 0.227307 0.0108 0.145711
v -0.236899 0.0108 -0.129534
v 0.228225 0.0108 0.144269
v -0.237714 0.0108 -0.128031
v 0.229134 0.0108 0.14282
v 0.229134 0 0.14282
v -0.23852 0.0108 -0.126522
v -0.23852 0 -0.126522
v 0.230034 0.0108 0.141367
v 0.230034 0 0.141367
v -0.239317 0.0108 -0.125009
v -0.239317 0 -0.125009
v 0.230925 0.0108 0.139906
v -0.240105 0.0108 -0.12349
v 0.231806 0.0108 0.138441
v 0.231806 0 0.138441
v -0.240881 0.0108 -0.121968
v -0.240881 0 -0.121968
v 0.232678 0.0108 0.13697
v 0.232678 0 0.13697
v -0.241649 0.0108 -0.120439
v 0.233541 0.0108 0.135494
v 0.233541 0 0.135494
v -0.242407 0.0108 -0.118907
v -0.242407 0 -0.118907
v 0.234395 0.0108 0.134012
v -0.243156 0.0108 -0.117369
v 0.235239 0.0108 0.132525
v 0.235239 0 0.132525
v -0.243894 0.0108 -0.115826
v -0.243894 0 -0.115826
v 0.236074 0.0108 0.131031
v 0.236074 0 0.131031
v -0.244623 0.0108 -0.114279
v 0.236899 0.0108 0.129534
v -0.245341 0.0108 -0.112727
v -0.245341 0 -0.112727
v 0.237714 0.0108 0.128031
v 0.237714 0 0.128031
v -0.246051 0.0108 -0.111171
v 0.23852 0.0108 0.126522
v -0.24675 0.0108 -0.10961
v -0.24675 0 -0.10961
v 0.239317 0 0.125009
v 0.239317 0.0108 0.125009
v -0.248118 0 -0.106476
v -0.247439 0.0108 -0.108045
v -0.248118 0.0108 -0.106476
v 0.240105 0.0108 0.12349
v 0.240881 0 0.121968
v -0.249448 0 -0.103325
v -0.248788 0.0108 -0.104902
v 0.240881 0.0108 0.121968
v 0.241649 0 0.120439
v 0.242407 0 0.118907
v -0.249448 0.0108 -0.103325
v 0.241649 0.0108 0.120439
v 0.242407 0.0108 0.118907
v -0.250097 0.0108 -0.101742
v 0.243156 0.0108 0.117369
v -0.250736 0 -0.100156
v -0.250736 0.0108 -0.100156
v 0.243894 0 0.115826
v 0.243894 0.0108 0.115826
v -0.251366 0.0108 -0.0985663
v -0.251985 0 -0.0969722
v -0.252594 0 -0.0953743
v 0.244623 0.0108 0.114279
v -0.251985 0.0108 -0.0969722
v 0.245341 0 0.112727
v 0.245341 0.0108 0.112727
v -0.252594 0.0108 -0.0953743
v -0.253193 0 -0.0937724
v 0.246051 0 0.111171
v 0.246051 0.0108 0.111171
v -0.253193 0.0108 -0.0937724
v 0.24675 0.0108 0.10961
v -0.254361 0 -0.0905576
v -0.253782 0.0108 -0.0921669
v -0.254361 0.0108 -0.0905576
v 0.247439 0.0108 0.108045
v -0.254929 0.0108 -0.0889447
v 0.248118 0 0.106476
v 0.248118 0.0108 0.106476
v 0.248788 0.0108 0.104902
v -0.255487 0.0108 -0.0873283
v 0.248788 0 0.104902
v -0.255487 0 -0.0873283
v -0.256036 0.0108 -0.0857083
v 0.249448 0.0108 0.103325
v 0.249448 0 0.103325
v -0.256573 0 -0.0840849
v -0.256573 0.0108 -0.0840849
v 0.250097 0.0108 0.101742
v -0.2571 0.0108 -0.0824581
v 0.250736 0.0108 0.100156
v 0.250736 0 0.100156
v -0.257618 0 -0.0808281
v -0.257618 0.0108 -0.0808281
v 0.251366 0.0108 0.0985663
v 0.251366 0 0.0985663
v -0.258124 0.0108 -0.0791947
v 0.251985 0.0108 0.0969722
v -0.258621 0.0108 -0.0775583
v 0.252594 0.0108 0.0953743
v -0.258621 0 -0.0775583
v 0.252594 0 0.0953743
v -0.259107 0.0108 -0.0759186
v 0.253193 0.0108 0.0937724
v 0.253193 0 0.0937724
v -0.259582 0.0108 -0.0742759
v 0.253782 0.0108 0.0921669
v -0.259582 0 -0.0742759
v -0.260048 0.0108 -0.0726303
v 0.254361 0.0108 0.0905576
v 0.254361 0 0.0905576
v -0.260502 0.0108 -0.0709818
v 0.254929 0.0108 0.0889447
v -0.260947 0 -0.0693304
v -0.260947 0.0108 -0.0693304
v 0.255487 0.0108 0.0873283
v 0.255487 0 0.0873283
v -0.261381 0.0108 -0.0676761
v 0.256036 0.0108 0.0857083
v -0.261804 0.0108 -0.0660193
v -0.261804 0 -0.0660193
v 0.256573 0.0108 0.0840849
v -0.262218 0.0108 -0.0643598
v 0.2571 0.0108 0.0824581
v 0.2571 0 0.0824581
v -0.262619 0.0108 -0.0626977
v 0.257618 0.0108 0.0808281
v -0.262619 0 -0.0626977
v 0.257618 0 0.0808281
v -0.263011 0.0108 -0.061033
v 0.258124 0.0108 0.0791947
v -0.263393 0.0108 -0.0593659
v 0.258621 0.0108 0.0775583
v 0.258621 0 0.0775583
v 0.259107 0 0.0759186
v -0.263763 0.0108 -0.0576964
v 0.259107 0.0108 0.0759186
v -0.263763 0 -0.0576964
v -0.264124 0.0108 -0.0560247
v 0.259582 0.0108 0.0742759
v 0.259582 0 0.0742759
v -0.264473 0 -0.0543506
v 0.260048 0.0108 0.0726303
v -0.264473 0.0108 -0.0543506
v 0.260502 0 0.0709818
v 0.260502 0.0108 0.0709818
v -0.264812 0.0108 -0.0526744
v -0.26514 0 -0.0509961
v -0.26514 0.0108 -0.0509961
v 0.260947 0.0108 0.0693304
v -0.265458 0.0108 -0.0493157
v 0.261381 0 0.0676761
v 0.261381 0.0108 0.0676761
v -0.265765 0.0108 -0.0476333
v 0.261804 0.0108 0.0660193
v -0.266061 0.0108 -0.045949
v 0.262218 0.0108 0.0643598
v -0.266061 0 -0.045949
v -0.266347 0 -0.0442629
v 0.262218 0 0.0643598
v -0.266347 0.0108 -0.0442629
v 0.262619 0.0108 0.0626977
v 0.262619 0 0.0626977
v -0.266622 0.0108 -0.0425751
v 0.263011 0.0108 0.061033
v -0.266886 0.0108 -0.0408855
v 0.263393 0.0108 0.0593659
v 0.263393 0 0.0593659
v -0.26714 0.0108 -0.0391943
v -0.26714 0 -0.0391943
v 0.263763 0.0108 0.0576964
v -0.267383 0 -0.0375015
v -0.267383 0.0108 -0.0375015
v 0.264124 0.0108 0.0560247
v 0.264124 0 0.0560247
v -0.267615 0.0108 -0.0358072
v -0.267615 0 -0.0358072
v 0.264473 0.0108 0.0543506
v 0.264473 0 0.0543506
v -0.268047 0 -0.0324144
v -0.267837 0.0108 -0.0341115
v 0.264812 0.0108 0.0526744
v -0.268047 0.0108 -0.0324144
v 0.26514 0.0108 0.0509961
v 0.26514 0 0.0509961
v -0.268436 0 -0.0290163
v -0.268247 0.0108 -0.0307158
v 0.265458 0 0.0493157
v 0.265765 0 0.0476333
v 0.265458 0.0108 0.0493157
v -0.268436 0.0108 -0.0290163
v 0.265765 0.0108 0.0476333
v -0.268614 0 -0.0273155
v -0.268614 0.0108 -0.0273155
v 0.266061 0.0108 0.045949
v -0.268783 0.0108 -0.0256135
v 0.266347 0 0.0442629
v 0.266347 0.0108 0.0442629
v -0.268939 0 -0.0239107
v -0.268939 0.0108 -0.0239107
v 0.266622 0 0.0425751
v 0.266622 0.0108 0.0425751
v -0.269085 0.0108 -0.0222067
v 0.26714 0 0.0391943
v 0.266886 0.0108 0.0408855
v -0.26922 0 -0.020502
v -0.26922 0.0108 -0.020502
v 0.26714 0.0108 0.0391943
v -0.269459 0 -0.01709
v -0.269344 0.0108 -0.0187963
v 0.267383 0.0108 0.0375015
v -0.269459 0.0108 -0.01709
v 0.267615 0 0.0358072
v 0.267615 0.0108 0.0358072
v -0.269562 0 -0.015383
v -0.269562 0.0108 -0.015383
v 0.267837 0 0.0341115
v 0.267837 0.0108 0.0341115
v -0.269653 0 -0.0136753
v -0.269653 0.0108 -0.0136753
v 0.268047 0.0108 0.0324144
v -0.269734 0 -0.011967
v -0.269805 0 -0.0102584
v -0.269734 0.0108 -0.011967
v 0.268247 0 0.0307158
v 0.268436 0 0.0290163
v 0.268247 0.0108 0.0307158
v -0.269805 0.0108 -0.0102584
v 0.268436 0.0108 0.0290163
v -0.269865 0 -0.00854928
v -0.269865 0.0108 -0.00854928
v 0.268614 0.0108 0.0273155
v -0.269914 0.0108 -0.00683983
v 0.268783 0 0.0256135
v 0.268783 0.0108 0.0256135
v -0.269951 0.0108 -0.00513012
v -0.269951 0 -0.00513012
v 0.268939 0 0.0239107
v 0.268939 0.0108 0.0239107
v -0.269978 0.0108 -0.00342019
v -0.269995 0 -0.00171013
v 0.269085 0.0108 0.0222067
v 0.269085 0 0.0222067
v -0.269995 0.0108 -0.00171013
v 0.26922 0.0108 0.020502
v -0.27 0.0108 2.8281e-15
v -0.27 0 2.8281e-15
v 0.269344 0.0108 0.0187963
v 0.269344 0 0.0187963
v -0.269995 0.0108 0.00171013
v 0.269459 0.0108 0.01709
v -0.269978 0 0.00342019
v -0.269978 0.0108 0.00342019
v 0.269562 0.0108 0.015383
v 0.269562 0 0.015383
v -0.269951 0 0.00513012
v -0.269951 0.0108 0.00513012
v 0.269653 0.0108 0.0136753
v -0.269914 0 0.00683983
v -0.269914 0.0108 0.00683983
v 0.269734 0 0.011967
v 0.269805 0 0.0102584
v 0.269734 0.0108 0.011967
v -0.269865 0 0.00854928
v -0.269805 0 0.0102584
v -0.269865 0.0108 0.00854928
v 0.269805 0.0108 0.0102584
v -0.269805 0.0108 0.0102584
v 0.269865 0 0.00854928
v 0.269865 0.0108 0.00854928
v -0.269734 0 0.011967
v -0.269734 0.0108 0.011967
v 0.269914 0.0108 0.00683983
v -0.269562 0 0.015383
v -0.269653 0.0108 0.0136753
v 0.269951 0 0.00513012
v 0.269951 0.0108 0.00513012
v -0.269562 0.0108 0.015383
v 0.269978 0 0.00342019
v 0.269995 0 0.00171013
v 0.269978 0.0108 0.00342019
v -0.269459 0 0.01709
v -0.269344 0 0.0187963
v -0.269459 0.0108 0.01709
v 0.269995 0.0108 0.00171013
v -0.269344 0.0108 0.0187963
v 0.27 0.0108 1.36436e-16
v -0.26922 0.0108 0.020502
v 0.269995 0 -0.00171013
v 0.269995 0.0108 -0.00171013
v -0.269085 0 0.0222067
v -0.269085 0.0108 0.0222067
v 0.269978 0 -0.00342019
v 0.269978 0.0108 -0.00342019
v -0.268939 0 0.0239107
v -0.268939 0.0108 0.0239107
v 0.269951 0.0108 -0.00513012
v -0.268783 0.0108 0.0256135
v 0.269914 0 -0.00683983
v 0.269914 0.0108 -0.00683983
v -0.268614 0 0.0273155
v -0.268614 0.0108 0.0273155
v 0.269865 0.0108 -0.00854928
v -0.268436 0 0.0290163
v -0.268436 0.0108 0.0290163
v 0.269805 0 -0.0102584
v 0.269805 0.0108 -0.0102584
v -0.268247 0.0108 0.0307158
v 0.269734 0 -0.011967
v 0.269734 0.0108 -0.011967
v -0.268047 0 0.0324144
v -0.268047 0.0108 0.0324144
v 0.269653 0 -0.0136753
v 0.269653 0.0108 -0.0136753
v -0.267837 0.0108 0.0341115
v 0.269562 0.0108 -0.015383
v -0.267615 0 0.0358072
v -0.267615 0.0108 0.0358072
v 0.269459 0.0108 -0.01709
v -0.267383 0.0108 0.0375015
v 0.269344 0 -0.0187963
v 0.269344 0.0108 -0.0187963
v -0.26714 0.0108 0.0391943
v -0.26714 0 0.0391943
v -0.266886 0 0.0408855
v -0.266886 0.0108 0.0408855
v 0.26922 0.0108 -0.020502
v 0.269085 0.0108 -0.0222067
v 0.269085 0 -0.0222067
v -0.266622 0.0108 0.0425751
v 0.268939 0.0108 -0.0239107
v 0.268939 0 -0.0239107
v -0.266347 0.0108 0.0442629
v -0.266347 0 0.0442629
v -0.266061 0 0.045949
v 0.268783 0.0108 -0.0256135
v -0.266061 0.0108 0.045949
v 0.268614 0 -0.0273155
v 0.268614 0.0108 -0.0273155
v -0.265765 0.0108 0.0476333
v 0.268436 0.0108 -0.0290163
v -0.265458 0.0108 0.0493157
v -0.265458 0 0.0493157
v 0.268247 0.0108 -0.0307158
v -0.26514 0.0108 0.0509961
v -0.26514 0 0.0509961
v 0.268047 0.0108 -0.0324144
v 0.268047 0 -0.0324144
v -0.264812 0.0108 0.0526744
v 0.267837 0.0108 -0.0341115
v -0.264473 0.0108 0.0543506
v 0.267615 0 -0.0358072
v -0.264473 0 0.0543506
v 0.267615 0.0108 -0.0358072
v -0.264124 0.0108 0.0560247
v -0.264124 0 0.0560247
v 0.267383 0.0108 -0.0375015
v -0.263763 0.0108 0.0576964
v 0.26714 0.0108 -0.0391943
v -0.263393 0 0.0593659
v 0.26714 0 -0.0391943
v -0.263393 0.0108 0.0593659
v -0.263011 0 0.061033
v 0.266886 0.0108 -0.0408855
v 0.266886 0 -0.0408855
v -0.263011 0.0108 0.061033
v 0.266622 0 -0.0425751
v -0.262619 0.0108 0.0626977
v 0.266622 0.0108 -0.0425751
v -0.262218 0 0.0643598
v -0.261804 0 0.0660193
v -0.262218 0.0108 0.0643598
v 0.266061 0 -0.045949
v 0.266347 0.0108 -0.0442629
v -0.261804 0.0108 0.0660193
v 0.266061 0.0108 -0.045949
v -0.261381 0 0.0676761
v -0.261381 0.0108 0.0676761
v 0.265765 0 -0.0476333
v 0.265765 0.0108 -0.0476333
v -0.260947 0.0108 0.0693304
v 0.265458 0 -0.0493157
v 0.265458 0.0108 -0.0493157
v -0.260048 0 0.0726303
v -0.260502 0.0108 0.0709818
v 0.26514 0.0108 -0.0509961
v -0.260048 0.0108 0.0726303
v 0.264812 0 -0.0526744
v 0.264473 0 -0.0543506
v -0.259582 0 0.0742759
v 0.264812 0.0108 -0.0526744
v -0.259582 0.0108 0.0742759
v 0.264473 0.0108 -0.0543506
v -0.258621 0 0.0775583
v -0.259107 0.0108 0.0759186
v 0.264124 0.0108 -0.0560247
v -0.258621 0.0108 0.0775583
v -0.258124 0.0108 0.0791947
v 0.263763 0 -0.0576964
v -0.258124 0 0.0791947
v 0.263763 0.0108 -0.0576964
v -0.257618 0.0108 0.0808281
v 0.263393 0.0108 -0.0593659
v -0.2571 0.0108 0.0824581
v 0.263011 0 -0.061033
v -0.256573 0 0.0840849
v 0.263011 0.0108 -0.061033
v -0.256573 0.0108 0.0840849
v 0.262619 0.0108 -0.0626977
v -0.256036 0.0108 0.0857083
v -0.256036 0 0.0857083
v -0.255487 0 0.0873283
v -0.255487 0.0108 0.0873283
v 0.262218 0.0108 -0.0643598
v -0.254929 0.0108 0.0889447
v 0.261804 0.0108 -0.0660193
v 0.261804 0 -0.0660193
v -0.254361 0.0108 0.0905576
v 0.261381 0.0108 -0.0676761
v -0.254361 0 0.0905576
v -0.253782 0.0108 0.0921669
v 0.260947 0.0108 -0.0693304
v 0.260947 0 -0.0693304
v -0.253193 0.0108 0.0937724
v -0.253193 0 0.0937724
v 0.260502 0.0108 -0.0709818
v 0.260048 0 -0.0726303
v -0.252594 0.0108 0.0953743
v 0.260048 0.0108 -0.0726303
v -0.251985 0.0108 0.0969722
v 0.259582 0.0108 -0.0742759
v 0.259582 0 -0.0742759
v -0.251366 0.0108 0.0985663
v -0.251366 0 0.0985663
v 0.259107 0.0108 -0.0759186
v -0.250736 0.0108 0.100156
v -0.250736 0 0.100156
v 0.258621 0.0108 -0.0775583
v 0.258621 0 -0.0775583
v -0.250097 0.0108 0.101742
v -0.249448 0 0.103325
v 0.258124 0.0108 -0.0791947
v -0.249448 0.0108 0.103325
v 0.258124 0 -0.0791947
v -0.248788 0.0108 0.104902
v 0.257618 0.0108 -0.0808281
v 0.2571 0.0108 -0.0824581
v -0.248118 0.0108 0.106476
v -0.248118 0 0.106476
v -0.247439 0.0108 0.108045
v 0.256573 0.0108 -0.0840849
v 0.256573 0 -0.0840849
v -0.24675 0.0108 0.10961
v 0.256036 0.0108 -0.0857083
v -0.24675 0 0.10961
v -0.246051 0.0108 0.111171
v 0.255487 0.0108 -0.0873283
v -0.245341 0.0108 0.112727
v 0.254929 0.0108 -0.0889447
v 0.254929 0 -0.0889447
v 0.254361 0 -0.0905576
v -0.244623 0 0.114279
v -0.244623 0.0108 0.114279
v 0.254361 0.0108 -0.0905576
v -0.243894 0 0.115826
v -0.243894 0.0108 0.115826
v 0.253782 0.0108 -0.0921669
v 0.253782 0 -0.0921669
v -0.243156 0.0108 0.117369
v 0.253193 0.0108 -0.0937724
v -0.242407 0.0108 0.118907
v -0.242407 0 0.118907
v 0.252594 0.0108 -0.0953743
v -0.241649 0.0108 0.120439
v -0.241649 0 0.120439
v -0.240881 0.0108 0.121968
v 0.251985 0.0108 -0.0969722
v 0.251985 0 -0.0969722
v 0.251366 0 -0.0985663
v -0.240105 0.0108 0.12349
v 0.251366 0.0108 -0.0985663
v -0.240105 0 0.12349
v -0.239317 0.0108 0.125009
v 0.250736 0 -0.100156
v -0.239317 0 0.125009
v 0.250736 0.0108 -0.100156
v -0.23852 0.0108 0.126522
v -0.237714 0 0.128031
v 0.250097 0.0108 -0.101742
v -0.237714 0.0108 0.128031
v 0.249448 0 -0.103325
v 0.249448 0.0108 -0.103325
v -0.236899 0.0108 0.129534
v 0.248788 0.0108 -0.104902
v -0.236074 0 0.131031
v 0.248788 0 -0.104902
v -0.236074 0.0108 0.131031
v 0.248118 0.0108 -0.106476
v 0.248118 0 -0.106476
v -0.235239 0.0108 0.132525
v -0.234395 0 0.134012
v -0.233541 0 0.135494
v -0.234395 0.0108 0.134012
v 0.247439 0.0108 -0.108045
v -0.233541 0.0108 0.135494
v 0.24675 0.0108 -0.10961
v 0.24675 0 -0.10961
v -0.232678 0.0108 0.13697
v 0.246051 0.0108 -0.111171
v 0.246051 0 -0.111171
v -0.231806 0 0.138441
v -0.231806 0.0108 0.138441
v 0.245341 0.0108 -0.112727
v -0.230925 0.0108 0.139906
v 0.244623 0.0108 -0.114279
v 0.244623 0 -0.114279
v -0.230034 0.0108 0.141367
v 0.243894 0.0108 -0.115826
v -0.229134 0 0.14282
v 0.243894 0 -0.115826
v -0.229134 0.0108 0.14282
v -0.227307 0 0.145711
v 0.243156 0.0108 -0.117369
v -0.228225 0.0108 0.144269
v 0.242407 0 -0.118907
v -0.227307 0.0108 0.145711
v 0.242407 0.0108 -0.118907
v -0.226379 0 0.147148
v 0.241649 0 -0.120439
v -0.226379 0.0108 0.147148
v 0.241649 0.0108 -0.120439
v -0.225442 0.0108 0.148579
v 0.240105 0 -0.12349
v 0.240881 0.0108 -0.121968
v -0.224496 0 0.150004
v -0.223543 0 0.151422
v -0.224496 0.0108 0.150004
v 0.240105 0.0108 -0.12349
v -0.223543 0.0108 0.151422
v 0.239317 0 -0.125009
v 0.239317 0.0108 -0.125009
v -0.222578 0.0108 0.152836
v 0.23852 0.0108 -0.126522
v -0.221606 0 0.154242
v -0.221606 0.0108 0.154242
v 0.237714 0 -0.128031
v 0.237714 0.0108 -0.128031
v -0.220625 0.0108 0.155643
v 0.236074 0 -0.131031
v 0.236899 0.0108 -0.129534
v -0.219634 0.0108 0.157037
v -0.219634 0 0.157037
v -0.218635 0 0.158425
v 0.236074 0.0108 -0.131031
v -0.218635 0.0108 0.158425
v 0.235239 0 -0.132525
v 0.235239 0.0108 -0.132525
v -0.217628 0.0108 0.159807
v 0.234395 0.0108 -0.134012
v -0.216611 0.0108 0.161182
v -0.216611 0 0.161182
v -0.215586 0.0108 0.162551
v 0.233541 0.0108 -0.135494
v -0.215586 0 0.162551
v -0.214552 0 0.163913
v 0.232678 0 -0.13697
v -0.214552 0.0108 0.163913
v 0.232678 0.0108 -0.13697
v 0.231806 0 -0.138441
v -0.21351 0.0108 0.165268
v 0.231806 0.0108 -0.138441
v -0.211399 0 0.167959
v -0.212459 0.0108 0.166618
v 0.230925 0 -0.139906
v 0.230925 0.0108 -0.139906
v -0.211399 0.0108 0.167959
v 0.230034 0.0108 -0.141367
v -0.210331 0.0108 0.169295
v 0.229134 0.0108 -0.14282
v 0.229134 0 -0.14282
v -0.209254 0 0.170625
v -0.209254 0.0108 0.170625
v 0.228225 0.0108 -0.144269
v -0.208169 0.0108 0.171947
v -0.207076 0 0.173261
v -0.205974 0 0.174569
v 0.227307 0.0108 -0.145711
v -0.207076 0.0108 0.173261
v 0.227307 0 -0.145711
v 0.226379 0 -0.147148
v 0.226379 0.0108 -0.147148
v -0.205974 0.0108 0.174569
v 0.225442 0.0108 -0.148579
v -0.204865 0.0108 0.17587
v 0.225442 0 -0.148579
v -0.203746 0 0.177164
v -0.203746 0.0108 0.177164
v 0.224496 0.0108 -0.150004
v -0.202621 0 0.178452
v -0.202621 0.0108 0.178452
v 0.223543 0.0108 -0.151422
v 0.223543 0 -0.151422
v -0.201486 0.0108 0.179731
v 0.222578 0.0108 -0.152836
v -0.200343 0 0.181004
v -0.200343 0.0108 0.181004
v 0.221606 0.0108 -0.154242
v -0.198035 0 0.183528
v -0.199193 0.0108 0.182269
v 0.220625 0 -0.155643
v 0.220625 0.0108 -0.155643
v -0.198035 0.0108 0.183528
v 0.219634 0.0108 -0.157037
v -0.196869 0 0.184778
v -0.196869 0.0108 0.184778
v 0.218635 0 -0.158425
v 0.218635 0.0108 -0.158425
v -0.195694 0.0108 0.186021
v -0.194512 0 0.187257
v 0.217628 0.0108 -0.159807
v -0.193322 0 0.188485
v -0.194512 0.0108 0.187257
v 0.216611 0.0108 -0.161182
v -0.193322 0.0108 0.188485
v -0.192124 0.0108 0.189705
v 0.215586 0 -0.162551
v -0.192124 0 0.189705
v 0.215586 0.0108 -0.162551
v -0.190919 0.0108 0.190919
v 0.214552 0 -0.163913
v 0.214552 0.0108 -0.163913
v -0.189705 0.0108 0.192124
v 0.21351 0.0108 -0.165268
v -0.188485 0.0108 0.193322
v -0.188485 0 0.193322
v 0.212459 0 -0.166618
v 0.212459 0.0108 -0.166618
v -0.187257 0.0108 0.194512
v 0.211399 0 -0.167959
v 0.211399 0.0108 -0.167959
v -0.186021 0.0108 0.195694
v -0.186021 0 0.195694
v 0.210331 0 -0.169295
v 0.210331 0.0108 -0.169295
v -0.184778 0.0108 0.196869
v -0.183528 0.0108 0.198035
v 0.209254 0.0108 -0.170625
v -0.183528 0 0.198035
v 0.208169 0 -0.171947
v -0.182269 0.0108 0.199193
v 0.208169 0.0108 -0.171947
v -0.181004 0.0108 0.200343
v 0.207076 0 -0.173261
v -0.181004 0 0.200343
v 0.207076 0.0108 -0.173261
v -0.179731 0.0108 0.201486
v -0.179731 0 0.201486
v 0.205974 0.0108 -0.174569
v -0.178452 0 0.202621
v -0.178452 0.0108 0.202621
v 0.204865 0 -0.17587
v 0.203746 0 -0.177164
v 0.204865 0.0108 -0.17587
v -0.177164 0.0108 0.203746
v 0.203746 0.0108 -0.177164
v -0.17587 0.0108 0.204865
v -0.17587 0 0.204865
v 0.202621 0.0108 -0.178452
v -0.174569 0.0108 0.205974
v 0.201486 0.0108 -0.179731
v -0.173261 0 0.207076
v 0.201486 0 -0.179731
v -0.171947 0 0.208169
v -0.173261 0.0108 0.207076
v 0.200343 0.0108 -0.181004
v -0.171947 0.0108 0.208169
v -0.170625 0 0.209254
v 0.199193 0.0108 -0.182269
v -0.170625 0.0108 0.209254
v 0.199193 0 -0.182269
v 0.198035 0.0108 -0.183528
v -0.169295 0.0108 0.210331
v -0.167959 0 0.211399
v -0.166618 0 0.212459
v -0.167959 0.0108 0.211399
v 0.196869 0.0108 -0.184778
v 0.196869 0 -0.184778
v -0.166618 0.0108 0.212459
v 0.195694 0.0108 -0.186021
v -0.165268 0 0.21351
v -0.165268 0.0108 0.21351
v 0.194512 0.0108 -0.187257
v 0.194512 0 -0.187257
v -0.162551 0 0.215586
v -0.163913 0.0108 0.214552
v 0.193322 0.0108 -0.188485
v 0.192124 0 -0.189705
v -0.162551 0.0108 0.215586
v 0.192124 0.0108 -0.189705
v -0.161182 0 0.216611
v -0.161182 0.0108 0.216611
v 0.190919 0.0108 -0.190919
v -0.159807 0.0108 0.217628
v 0.190919 0 -0.190919
v -0.159807 0 0.217628
v -0.158425 0.0108 0.218635
v 0.189705 0.0108 -0.192124
v -0.157037 0 0.219634
v -0.157037 0.0108 0.219634
v 0.188485 0 -0.193322
v 0.188485 0.0108 -0.193322
v -0.155643 0.0108 0.220625
v 0.187257 0 -0.194512
v -0.155643 0 0.220625
v 0.187257 0.0108 -0.194512
v -0.154242 0.0108 0.221606
v 0.186021 0.0108 -0.195694
v -0.152836 0.0108 0.222578
v -0.152836 0 0.222578
v 0.183528 0 -0.198035
v 0.184778 0.0108 -0.196869
v -0.151422 0.0108 0.223543
v -0.150004 0 0.224496
v 0.183528 0.0108 -0.198035
v -0.150004 0.0108 0.224496
v 0.182269 0.0108 -0.199193
v 0.182269 0 -0.199193
v -0.148579 0.0108 0.225442
v -0.148579 0 0.225442
v 0.181004 0.0108 -0.200343
v -0.147148 0.0108 0.226379
v 0.179731 0.0108 -0.201486
v -0.145711 0.0108 0.227307
v 0.178452 0 -0.202621
v -0.144269 0.0108 0.228225
v 0.178452 0.0108 -0.202621
v -0.144269 0 0.228225
v -0.14282 0.0108 0.229134
v 0.177164 0.0108 -0.203746
v -0.14282 0 0.229134
v -0.141367 0.0108 0.230034
v 0.174569 0 -0.205974
v 0.17587 0.0108 -0.204865
v -0.141367 0 0.230034
v -0.139906 0.0108 0.230925
v 0.174569 0.0108 -0.205974
v -0.138441 0.0108 0.231806
v -0.138441 0 0.231806
v 0.173261 0 -0.207076
v 0.173261 0.0108 -0.207076
v -0.13697 0.0108 0.232678
v -0.13697 0 0.232678
v 0.171947 0.0108 -0.208169
v 0.171947 0 -0.208169
v -0.135494 0.0108 0.233541
v 0.170625 0.0108 -0.209254
v -0.134012 0.0108 0.234395
v -0.134012 0 0.234395
v 0.169295 0.0108 -0.210331
v 0.169295 0 -0.210331
v -0.132525 0.0108 0.235239
v 0.167959 0.0108 -0.211399
v -0.131031 0.0108 0.236074
v -0.131031 0 0.236074
v 0.166618 0.0108 -0.212459
v 0.166618 0 -0.212459
v -0.129534 0.0108 0.236899
v 0.165268 0.0108 -0.21351
v -0.128031 0 0.237714
v -0.126522 0 0.23852
v 0.165268 0 -0.21351
v -0.128031 0.0108 0.237714
v 0.163913 0.0108 -0.214552
v -0.126522 0.0108 0.23852
v -0.125009 0 0.239317
v 0.162551 0.0108 -0.215586
v 0.162551 0 -0.215586
v -0.125009 0.0108 0.239317
v -0.12349 0.0108 0.240105
v 0.161182 0.0108 -0.216611
v -0.121968 0 0.240881
v 0.159807 0 -0.217628
v -0.121968 0.0108 0.240881
v 0.159807 0.0108 -0.217628
v -0.120439 0.0108 0.241649
v -0.120439 0 0.241649
v 0.158425 0.0108 -0.218635
v -0.118907 0.0108 0.242407
v -0.118907 0 0.242407
v 0.157037 0.0108 -0.219634
v 0.157037 0 -0.219634
v -0.117369 0.0108 0.243156
v -0.115826 0 0.243894
v 0.155643 0.0108 -0.220625
v -0.115826 0.0108 0.243894
v 0.155643 0 -0.220625
v -0.114279 0.0108 0.244623
v 0.154242 0.0108 -0.221606
v 0.154242 0 -0.221606
v -0.112727 0.0108 0.245341
v 0.152836 0.0108 -0.222578
v -0.112727 0 0.245341
v -0.111171 0.0108 0.246051
v 0.151422 0.0108 -0.223543
v 0.150004 0 -0.224496
v -0.10961 0 0.24675
v -0.10961 0.0108 0.24675
v 0.150004 0.0108 -0.224496
v -0.108045 0.0108 0.247439
v 0.148579 0.0108 -0.225442
v 0.147148 0 -0.226379
v -0.106476 0 0.248118
v -0.106476 0.0108 0.248118
v 0.147148 0.0108 -0.226379
v -0.104902 0 0.248788
v -0.104902 0.0108 0.248788
v 0.145711 0.0108 -0.227307
v 0.145711 0 -0.227307
v -0.103325 0.0108 0.249448
v 0.144269 0.0108 -0.228225
v -0.101742 0.0108 0.250097
v 0.14282 0 -0.229134
v -0.100156 0 0.250736
v 0.14282 0.0108 -0.229134
v -0.100156 0.0108 0.250736
v -0.0969722 0 0.251985
v -0.0985663 0.0108 0.251366
v 0.141367 0.0108 -0.230034
v 0.139906 0 -0.230925
v -0.0969722 0.0108 0.251985
v 0.139906 0.0108 -0.230925
v -0.0953743 0.0108 0.252594
v 0.138441 0.0108 -0.231806
v -0.0937724 0 0.253193
v -0.0937724 0.0108 0.253193
v 0.13697 0.0108 -0.232678
v 0.13697 0 -0.232678
v -0.0921669 0 0.253782
v -0.0921669 0.0108 0.253782
v 0.135494 0.0108 -0.233541
v 0.135494 0 -0.233541
v -0.0905576 0.0108 0.254361
v 0.134012 0.0108 -0.234395
v 0.134012 0 -0.234395
v -0.0889447 0.0108 0.254929
v -0.0873283 0 0.255487
v 0.132525 0.0108 -0.235239
v -0.0873283 0.0108 0.255487
v 0.131031 0.0108 -0.236074
v 0.131031 0 -0.236074
v 0.129534 0 -0.236899
v -0.0857083 0.0108 0.256036
v -0.0840849 0.0108 0.256573
v 0.129534 0.0108 -0.236899
v -0.0840849 0 0.256573
v -0.0824581 0 0.2571
v 0.128031 0.0108 -0.237714
v -0.0824581 0.0108 0.2571
v -0.0808281 0.0108 0.257618
v 0.126522 0.0108 -0.23852
v 0.126522 0 -0.23852
v 0.125009 0 -0.239317
v -0.0791947 0.0108 0.258124
v -0.0791947 0 0.258124
v 0.125009 0.0108 -0.239317
v -0.0775583 0.0108 0.258621
v 0.12349 0 -0.240105
v 0.12349 0.0108 -0.240105
v -0.0759186 0.0108 0.259107
v -0.0759186 0 0.259107
v 0.121968 0.0108 -0.240881
v -0.0742759 0.0108 0.259582
v 0.120439 0 -0.241649
v 0.120439 0.0108 -0.241649
v -0.0726303 0 0.260048
v -0.0709818 0 0.260502
v -0.0726303 0.0108 0.260048
v 0.118907 0.0108 -0.242407
v -0.0709818 0.0108 0.260502
v 0.117369 0.0108 -0.243156
v -0.0693304 0.0108 0.260947
v 0.115826 0 -0.243894
v -0.0676761 0 0.261381
v 0.115826 0.0108 -0.243894
v -0.0676761 0.0108 0.261381
v -0.0660193 0.0108 0.261804
v 0.114279 0.0108 -0.244623
v -0.0643598 0 0.262218
v -0.0643598 0.0108 0.262218
v 0.112727 0 -0.245341
v 0.112727 0.0108 -0.245341
v -0.0626977 0.0108 0.262619
v 0.111171 0.0108 -0.246051
v -0.061033 0.0108 0.263011
v 0.10961 0 -0.24675
v 0.10961 0.0108 -0.24675
v -0.0593659 0 0.263393
v -0.0593659 0.0108 0.263393
v 0.108045 0 -0.247439
v 0.108045 0.0108 -0.247439
v -0.0576964 0 0.263763
v -0.0576964 0.0108 0.263763
v 0.106476 0.0108 -0.248118
v -0.0560247 0.0108 0.264124
v 0.104902 0 -0.248788
v -0.0543506 0 0.264473
v 0.104902 0.0108 -0.248788
v -0.0543506 0.0108 0.264473
v 0.103325 0 -0.249448
v -0.0526744 0 0.264812
v -0.0509961 0 0.26514
v 0.103325 0.0108 -0.249448
v -0.0526744 0.0108 0.264812
v 0.101742 0.0108 -0.250097
v -0.0509961 0.0108 0.26514
v 0.100156 0 -0.250736
v -0.0493157 0.0108 0.265458
v 0.100156 0.0108 -0.250736
v -0.0476333 0 0.265765
v 0.0985663 0.0108 -0.251366
v -0.0476333 0.0108 0.265765
v -0.0442629 0 0.266347
v 0.0969722 0.0108 -0.251985
v -0.045949 0.0108 0.266061
v 0.0969722 0 -0.251985
v -0.0442629 0.0108 0.266347
v 0.0953743 0.0108 -0.252594
v 0.0953743 0 -0.252594
v -0.0425751 0.0108 0.266622
v -0.0425751 0 0.266622
v -0.0408855 0 0.266886
v 0.0937724 0.0108 -0.253193
v -0.0408855 0.0108 0.266886
v 0.0921669 0.0108 -0.253782
v 0.0921669 0 -0.253782
v -0.0391943 0.0108 0.26714
v 0.0905576 0.0108 -0.254361
v -0.0375015 0.0108 0.267383
v 0.0905576 0 -0.254361
v -0.0358072 0 0.267615
v -0.0358072 0.0108 0.267615
v 0.0889447 0.0108 -0.254929
v -0.0341115 0.0108 0.267837
v -0.0341115 0 0.267837
v 0.0873283 0 -0.255487
v 0.0873283 0.0108 -0.255487
v -0.0324144 0.0108 0.268047
v 0.0857083 0 -0.256036
v 0.0857083 0.0108 -0.256036
v -0.0307158 0.0108 0.268247
v -0.0307158 0 0.268247
v 0.0840849 0 -0.256573
v -0.0290163 0.0108 0.268436
v 0.0824581 0 -0.2571
v 0.0840849 0.0108 -0.256573
v -0.0273155 0.0108 0.268614
v -0.0273155 0 0.268614
v 0.0824581 0.0108 -0.2571
v -0.0256135 0.0108 0.268783
v -0.0239107 0 0.268939
v 0.0791947 0 -0.258124
v 0.0808281 0.0108 -0.257618
v -0.0239107 0.0108 0.268939
v 0.0791947 0.0108 -0.258124
v -0.0222067 0.0108 0.269085
v 0.0775583 0 -0.258621
v 0.0775583 0.0108 -0.258621
v -0.020502 0 0.26922
v -0.020502 0.0108 0.26922
v -0.0187963 0 0.269344
v 0.0742759 0 -0.259582
v -0.0187963 0.0108 0.269344
v 0.0759186 0.0108 -0.259107
v -0.015383 0 0.269562
v -0.01709 0.0108 0.269459
v 0.0742759 0.0108 -0.259582
v -0.015383 0.0108 0.269562
v 0.0709818 0 -0.260502
v 0.0726303 0.0108 -0.260048
v -0.0136753 0.0108 0.269653
v 0.0709818 0.0108 -0.260502
v -0.011967 0.0108 0.269734
v -0.0102584 0 0.269805
v -0.0102584 0.0108 0.269805
v 0.0693304 0.0108 -0.260947
v -0.00854928 0.0108 0.269865
v 0.0676761 0.0108 -0.261381
v -0.00683983 0 0.269914
v -0.00683983 0.0108 0.269914
v 0.0660193 0 -0.261804
v 0.0660193 0.0108 -0.261804
v -0.00513012 0 0.269951
v -0.00513012 0.0108 0.269951
v 0.0643598 0 -0.262218
v 0.0643598 0.0108 -0.262218
v -0.00342019 0.0108 0.269978
v -0.00171013 0 0.269995
v -0.00171013 0.0108 0.269995
v 0.0626977 0.0108 -0.262619
v 0.0593659 0 -0.263393
v 0.061033 0.0108 -0.263011
v 0.0593659 0.0108 -0.263393
v 0.0576964 0.0108 -0.263763
v 0.0560247 0.0108 -0.264124
v 0.0560247 0 -0.264124
v 0.0543506 0 -0.264473
v 0.0543506 0.0108 -0.264473
v 0.0526744 0.0108 -0.264812
v 0.0526744 0 -0.264812
v 0.0509961 0.0108 -0.26514
v 0.0493157 0.0108 -0.265458
v 0.0476333 0.0108 -0.265765
v 0.0476333 0 -0.265765
v 0.045949 0.0108 -0.266061
v 0.0442629 0.0108 -0.266347
v 0.0425751 0.0108 -0.266622
v 0.0425751 0 -0.266622
v 0.0408855 0.0108 -0.266886
v 0.0391943 0 -0.26714
v 0.0391943 0.0108 -0.26714
v 0.0375015 0.0108 -0.267383
v 0.0358072 0 -0.267615
v 0.0358072 0.0108 -0.267615
v 0.0341115 0 -0.267837
v 0.0341115 0.0108 -0.267837
v 0.0324144 0.0108 -0.268047
v 0.0290163 0 -0.268436
v 0.0307158 0.0108 -0.268247
v 0.0290163 0.0108 -0.268436
v 0.0256135 0 -0.268783
v 0.0273155 0.0108 -0.268614
v 0.0256135 0.0108 -0.268783
v 0.0239107 0 -0.268939
v 0.0239107 0.0108 -0.268939
v 0.0222067 0 -0.269085
v 0.0222067 0.0108 -0.269085
v 0.020502 0.0108 -0.26922
v 0.0187963 0 -0.269344
v 0.0187963 0.0108 -0.269344
v 0.01709 0 -0.269459
v 0.01709 0.0108 -0.269459
v 0.015383 0 -0.269562
v 0.015383 0.0108 -0.269562
v 0.0136753 0.0108 -0.269653
v 0.011967 0.0108 -0.269734
v 0.011967 0 -0.269734
v 0.0102584 0.0108 -0.269805
v 0.00854928 0 -0.269865
v 0.00854928 0.0108 -0.269865
v 0.00683983 0.0108 -0.269914
v 0.00513012 0 -0.269951
v 0.00513012 0.0108 -0.269951
v 0.00342019 0.0108 -0.269978
v 0.00171013 0.0108 -0.269995
v 2.07144e-15 0 -0.27
v 2.07144e-15 0.0108 -0.27
v -0.00171013 0.0108 -0.269995
v -0.00342019 0 -0.269978
v -0.00342019 0.0108 -0.269978
v -0.00513012 0.0108 -0.269951
v -0.00683983 0.0108 -0.269914
v -0.00683983 0 -0.269914
# </points>

# <edges count="2304">
l 409 410
l 411 412
l 413 409
l 412 1
l 414 415
l 2 416
l 417 413
l 1 418
l 418 419
l 420 414
l 416 421
l 422 417
l 423 420
l 421 3
l 424 422
l 419 4
l 3 5
l 425 423
l 426 424
l 4 6
l 6 427
l 5 428
l 429 425
l 430 426
l 428 431
l 432 429
l 427 7
l 433 430
l 7 434
l 431 435
l 436 432
l 437 433
l 438 436
l 435 8
l 434 439
l 440 437
l 441 438
l 8 442
l 439 9
l 9 443
l 444 440
l 445 441
l 442 10
l 446 444
l 447 446
l 448 445
l 10 449
l 443 11
l 450 448
l 449 12
l 451 447
l 11 452
l 452 13
l 453 450
l 12 454
l 455 451
l 456 453
l 457 455
l 454 14
l 13 458
l 459 456
l 460 457
l 14 461
l 458 15
l 462 460
l 463 459
l 461 16
l 15 464
l 16 465
l 466 463
l 467 462
l 464 468
l 465 469
l 470 466
l 471 467
l 468 17
l 469 18
l 17 19
l 19 472
l 473 470
l 474 471
l 18 475
l 476 474
l 477 473
l 472 20
l 475 21
l 20 478
l 479 476
l 480 477
l 21 22
l 481 479
l 482 480
l 478 23
l 22 483
l 484 481
l 485 482
l 23 486
l 486 487
l 483 24
l 488 484
l 489 485
l 490 488
l 24 491
l 492 489
l 487 25
l 493 490
l 491 494
l 495 492
l 25 496
l 497 493
l 494 26
l 498 495
l 496 27
l 26 499
l 500 497
l 501 498
l 27 28
l 499 29
l 502 500
l 503 501
l 28 504
l 29 505
l 506 502
l 507 503
l 504 30
l 30 508
l 505 31
l 509 506
l 510 507
l 511 509
l 31 32
l 512 510
l 508 513
l 513 33
l 514 511
l 515 512
l 32 516
l 517 514
l 518 515
l 516 34
l 519 517
l 33 520
l 521 518
l 34 522
l 523 519
l 520 35
l 35 524
l 525 521
l 522 526
l 527 523
l 528 525
l 526 36
l 529 527
l 524 37
l 37 530
l 36 38
l 531 528
l 532 529
l 38 533
l 534 531
l 535 532
l 530 39
l 533 40
l 39 536
l 537 534
l 538 535
l 40 539
l 536 41
l 540 537
l 541 538
l 539 42
l 41 542
l 543 540
l 544 541
l 42 545
l 542 546
l 547 543
l 548 544
l 545 549
l 546 43
l 550 547
l 43 551
l 552 548
l 549 553
l 554 552
l 555 550
l 553 44
l 551 556
l 557 555
l 558 554
l 44 559
l 556 560
l 560 45
l 561 557
l 562 558
l 559 46
l 563 562
l 564 561
l 46 565
l 45 566
l 566 47
l 567 563
l 568 564
l 565 48
l 569 567
l 570 568
l 47 571
l 48 572
l 573 569
l 574 570
l 572 575
l 571 576
l 576 49
l 577 574
l 578 573
l 575 50
l 579 578
l 580 577
l 49 581
l 50 582
l 583 580
l 584 579
l 581 51
l 582 52
l 51 585
l 586 583
l 587 584
l 52 588
l 589 587
l 590 586
l 585 53
l 588 54
l 591 589
l 592 590
l 53 593
l 54 594
l 595 591
l 596 592
l 597 596
l 593 598
l 594 55
l 599 595
l 600 599
l 598 56
l 601 597
l 55 602
l 603 600
l 56 604
l 605 601
l 602 57
l 606 603
l 604 607
l 608 605
l 607 609
l 57 610
l 611 606
l 612 608
l 610 613
l 614 611
l 609 58
l 58 615
l 616 612
l 613 617
l 618 614
l 619 616
l 617 59
l 620 618
l 615 621
l 622 619
l 59 60
l 623 620
l 621 61
l 61 624
l 625 622
l 60 626
l 627 623
l 628 625
l 626 629
l 630 627
l 624 62
l 62 631
l 632 628
l 629 633
l 634 630
l 635 632
l 633 63
l 636 634
l 631 64
l 63 637
l 638 635
l 64 639
l 640 636
l 637 641
l 642 638
l 643 640
l 639 644
l 641 645
l 646 642
l 644 65
l 647 643
l 645 66
l 648 646
l 65 649
l 650 647
l 66 651
l 652 648
l 649 653
l 653 654
l 655 650
l 651 656
l 657 652
l 658 655
l 656 67
l 659 657
l 654 68
l 660 658
l 67 661
l 662 659
l 68 663
l 663 664
l 665 660
l 661 69
l 666 662
l 667 665
l 69 70
l 668 666
l 664 669
l 669 670
l 671 667
l 70 672
l 673 668
l 674 671
l 672 71
l 670 72
l 675 673
l 676 674
l 71 677
l 72 678
l 679 675
l 680 676
l 681 679
l 677 73
l 682 680
l 678 683
l 684 681
l 685 682
l 73 686
l 683 687
l 688 684
l 689 685
l 686 690
l 687 74
l 691 688
l 692 689
l 690 75
l 74 76
l 76 693
l 694 692
l 695 691
l 75 696
l 697 694
l 698 695
l 696 77
l 693 78
l 699 697
l 700 698
l 77 701
l 78 702
l 702 703
l 704 699
l 705 700
l 701 79
l 706 704
l 707 705
l 79 708
l 703 80
l 709 706
l 710 707
l 708 81
l 80 711
l 711 712
l 713 709
l 714 710
l 81 715
l 716 713
l 717 714
l 712 82
l 715 83
l 82 718
l 719 716
l 720 717
l 83 84
l 721 719
l 718 85
l 722 720
l 84 723
l 724 721
l 85 725
l 726 722
l 725 86
l 723 87
l 727 724
l 728 726
l 87 729
l 730 727
l 86 731
l 732 728
l 729 88
l 733 730
l 731 89
l 734 732
l 88 735
l 736 733
l 89 737
l 738 734
l 735 90
l 739 736
l 737 91
l 740 738
l 90 741
l 742 739
l 91 92
l 743 740
l 741 744
l 92 745
l 746 742
l 744 93
l 745 747
l 748 743
l 749 746
l 93 750
l 751 748
l 747 94
l 94 95
l 750 96
l 752 749
l 753 751
l 754 752
l 96 755
l 756 753
l 757 754
l 95 758
l 759 756
l 755 97
l 760 757
l 758 761
l 761 762
l 763 759
l 97 764
l 765 760
l 766 763
l 764 767
l 768 765
l 762 98
l 98 99
l 769 766
l 767 770
l 771 768
l 772 769
l 770 100
l 773 771
l 99 774
l 775 772
l 100 101
l 776 773
l 774 102
l 777 775
l 101 778
l 779 776
l 102 780
l 781 777
l 778 103
l 782 779
l 780 104
l 104 783
l 784 781
l 103 785
l 786 782
l 785 787
l 788 784
l 783 105
l 105 789
l 790 786
l 787 106
l 791 788
l 792 790
l 106 793
l 789 794
l 795 791
l 796 792
l 793 797
l 794 107
l 798 795
l 107 799
l 800 796
l 797 801
l 802 798
l 803 800
l 801 108
l 799 804
l 804 109
l 805 802
l 806 803
l 108 807
l 808 806
l 809 805
l 109 110
l 807 810
l 110 811
l 812 808
l 813 809
l 810 111
l 814 812
l 815 813
l 811 112
l 111 816
l 817 814
l 818 815
l 112 819
l 816 820
l 821 817
l 822 818
l 819 823
l 820 113
l 824 821
l 825 822
l 823 114
l 114 826
l 113 827
l 828 824
l 829 825
l 827 115
l 830 828
l 831 829
l 826 116
l 115 832
l 833 830
l 834 831
l 835 833
l 116 117
l 832 836
l 837 834
l 838 835
l 839 837
l 117 840
l 836 118
l 841 838
l 840 119
l 842 839
l 118 843
l 844 841
l 119 845
l 846 842
l 843 120
l 847 844
l 845 848
l 848 121
l 849 846
l 120 850
l 851 847
l 852 849
l 850 122
l 121 853
l 854 851
l 122 855
l 856 852
l 853 857
l 858 854
l 855 123
l 859 856
l 857 860
l 861 858
l 123 862
l 863 859
l 860 124
l 864 861
l 862 125
l 865 863
l 124 126
l 866 864
l 125 867
l 868 865
l 126 869
l 870 866
l 867 871
l 872 868
l 869 873
l 873 127
l 874 870
l 871 875
l 876 872
l 877 874
l 875 128
l 878 876
l 127 879
l 880 877
l 128 881
l 882 878
l 879 129
l 129 883
l 884 880
l 881 885
l 886 882
l 887 884
l 885 888
l 889 886
l 883 130
l 890 887
l 888 131
l 891 889
l 130 892
l 893 890
l 131 894
l 895 891
l 892 132
l 896 893
l 894 897
l 898 895
l 132 899
l 900 896
l 897 133
l 901 898
l 899 902
l 903 900
l 133 904
l 905 901
l 902 906
l 906 134
l 907 903
l 904 908
l 909 905
l 910 907
l 908 135
l 911 909
l 134 136
l 912 910
l 135 913
l 914 911
l 136 915
l 916 912
l 913 917
l 918 914
l 919 916
l 915 137
l 917 138
l 920 918
l 921 919
l 137 139
l 922 920
l 138 923
l 924 921
l 139 925
l 926 922
l 923 927
l 928 924
l 925 929
l 930 926
l 927 140
l 931 928
l 929 141
l 932 930
l 140 933
l 934 931
l 141 935
l 936 932
l 933 937
l 938 934
l 935 142
l 939 936
l 937 940
l 941 938
l 142 942
l 942 143
l 943 939
l 940 144
l 944 941
l 945 943
l 144 946
l 947 944
l 143 948
l 949 945
l 946 950
l 951 947
l 948 145
l 952 949
l 950 146
l 953 951
l 145 954
l 955 952
l 146 956
l 954 147
l 957 953
l 958 955
l 959 957
l 956 148
l 147 960
l 148 961
l 960 149
l 962 958
l 149 963
l 964 959
l 961 150
l 965 964
l 966 962
l 150 967
l 963 151
l 151 968
l 969 965
l 970 966
l 967 971
l 968 152
l 971 972
l 973 969
l 974 970
l 975 974
l 976 973
l 977 975
l 152 978
l 972 153
l 979 976
l 153 980
l 978 154
l 981 977
l 982 979
l 980 155
l 154 983
l 983 984
l 985 981
l 986 982
l 155 987
l 988 985
l 989 986
l 984 990
l 987 991
l 991 156
l 992 988
l 993 989
l 994 992
l 990 157
l 157 995
l 996 993
l 156 158
l 997 996
l 998 994
l 999 997
l 158 1000
l 995 159
l 1001 998
l 1002 1001
l 1003 999
l 1000 1004
l 159 1005
l 1006 1003
l 1007 1002
l 1005 160
l 1004 1008
l 1008 161
l 160 1009
l 1010 1006
l 1011 1007
l 1012 1010
l 1013 1011
l 161 1014
l 1009 162
l 162 1015
l 1016 1012
l 1017 1013
l 1014 1018
l 1019 1016
l 1020 1017
l 1015 163
l 1018 164
l 1021 1019
l 1022 1020
l 163 1023
l 164 1024
l 1023 165
l 1025 1021
l 1026 1022
l 1024 1027
l 1027 166
l 1028 1025
l 1029 1026
l 165 1030
l 1031 1028
l 1032 1029
l 1030 167
l 166 1033
l 1034 1031
l 1035 1032
l 167 168
l 1033 169
l 168 1036
l 1037 1034
l 1038 1035
l 169 1039
l 1040 1037
l 1041 1038
l 1036 170
l 1039 171
l 171 172
l 1042 1040
l 170 1043
l 1044 1041
l 1043 173
l 1045 1042
l 1046 1044
l 172 1047
l 1048 1045
l 1049 1046
l 173 1050
l 1047 1051
l 1052 1048
l 1050 174
l 1053 1049
l 1051 175
l 1054 1052
l 1055 1053
l 174 176
l 175 1056
l 1056 1057
l 1058 1054
l 1059 1055
l 176 1060
l 1060 177
l 1061 1058
l 1062 1059
l 1057 1063
l 177 1064
l 1065 1062
l 1066 1061
l 1063 178
l 1064 179
l 178 1067
l 1068 1065
l 1069 1066
l 179 1070
l 1067 180
l 1070 181
l 1071 1069
l 1072 1068
l 1073 1071
l 180 1074
l 1074 182
l 1075 1072
l 1076 1073
l 181 183
l 1077 1075
l 1078 1076
l 1079 1077
l 183 1080
l 1080 1081
l 182 1082
l 1083 1078
l 1084 1079
l 1082 1085
l 1086 1083
l 1081 184
l 1087 1084
l 1085 185
l 1088 1086
l 184 186
l 1089 1087
l 185 1090
l 1090 187
l 1091 1088
l 186 1092
l 1093 1089
l 1092 1094
l 1095 1091
l 1096 1093
l 187 1097
l 1098 1095
l 1094 1099
l 1100 1096
l 1097 1101
l 1099 188
l 188 1102
l 1103 1098
l 1104 1100
l 1101 189
l 1105 1103
l 1106 1104
l 189 1107
l 1102 190
l 190 1108
l 1109 1105
l 1107 1110
l 1110 1111
l 1112 1106
l 1113 1109
l 1114 1112
l 1108 1115
l 1116 1113
l 1111 191
l 1117 1114
l 1115 192
l 1118 1116
l 191 1119
l 1120 1117
l 192 1121
l 1121 193
l 1122 1118
l 1119 1123
l 1124 1120
l 1125 1122
l 1123 194
l 194 1126
l 1127 1124
l 193 1128
l 1129 1125
l 1130 1127
l 1128 195
l 195 1131
l 1132 1129
l 1126 196
l 1133 1130
l 1134 1132
l 196 1135
l 1136 1133
l 1131 1137
l 1138 1134
l 1135 1139
l 1140 1136
l 1137 1141
l 1142 1138
l 1139 197
l 1143 1140
l 1141 1144
l 1144 1145
l 1146 1142
l 197 1147
l 1147 1148
l 1149 1143
l 1150 1146
l 1151 1149
l 1145 1152
l 1153 1150
l 1148 198
l 1154 1151
l 1155 1153
l 1152 199
l 198 1156
l 1157 1154
l 1158 1155
l 199 1159
l 1156 1160
l 1161 1157
l 1162 1158
l 1159 200
l 200 1163
l 1164 1161
l 1160 1165
l 1165 201
l 1166 1162
l 1167 1164
l 1168 1166
l 1163 1169
l 1170 1167
l 201 1171
l 1172 1168
l 1169 202
l 1173 1170
l 1171 203
l 202 1174
l 1175 1172
l 1176 1173
l 203 1177
l 1174 1178
l 1179 1175
l 1177 204
l 1180 1176
l 1178 1181
l 1182 1179
l 204 1183
l 1183 1184
l 1185 1180
l 1181 1186
l 1186 1187
l 1188 1182
l 1189 1185
l 1190 1188
l 1184 1191
l 1192 1189
l 1187 1193
l 1194 1190
l 1191 205
l 1195 1192
l 1193 206
l 206 1196
l 1197 1194
l 205 1198
l 1199 1195
l 1200 1197
l 1198 1201
l 1201 1202
l 1203 1199
l 1196 1204
l 1204 1205
l 1206 1200
l 1207 1203
l 1208 1206
l 1202 207
l 1209 1207
l 1205 208
l 1210 1208
l 207 1211
l 1212 1209
l 208 1213
l 1214 1210
l 1211 1215
l 1216 1212
l 1213 1217
l 1217 209
l 1218 1214
l 1215 210
l 1219 1216
l 1220 1218
l 210 1221
l 1221 211
l 1222 1219
l 209 1223
l 1224 1220
l 1225 1222
l 1223 1226
l 1226 212
l 1227 1224
l 211 1228
l 1229 1225
l 1230 1227
l 1228 1231
l 1232 1229
l 212 1233
l 1234 1230
l 1231 1235
l 1236 1232
l 1233 213
l 1237 1234
l 1235 214
l 214 215
l 1238 1236
l 213 1239
l 1239 216
l 1240 1237
l 1241 1238
l 1242 1240
l 215 1243
l 1244 1241
l 1245 1242
l 216 1246
l 1246 1247
l 1243 217
l 1248 1245
l 1249 1244
l 1250 1249
l 217 1251
l 1252 1248
l 1247 218
l 1253 1250
l 1251 1254
l 1255 1252
l 218 1256
l 1256 1257
l 1258 1253
l 1254 219
l 1259 1255
l 219 1260
l 1261 1258
l 1262 1259
l 1257 220
l 1263 1261
l 1260 221
l 1264 1262
l 220 1265
l 1266 1263
l 221 222
l 1267 1264
l 1265 1268
l 1269 1266
l 222 1270
l 1271 1267
l 1268 223
l 1272 1269
l 1270 224
l 1273 1271
l 224 1274
l 223 1275
l 1276 1272
l 1277 1273
l 1275 1278
l 1278 225
l 1279 1276
l 1274 226
l 1280 1277
l 1281 1279
l 225 1282
l 226 1283
l 1284 1280
l 1282 1285
l 1286 1281
l 1283 1287
l 1288 1284
l 1285 227
l 1287 1289
l 1290 1288
l 1291 1286
l 227 1292
l 1292 1293
l 1294 1290
l 1289 228
l 228 1295
l 1296 1291
l 1297 1294
l 1298 1296
l 1293 1299
l 1300 1297
l 1295 1301
l 1302 1298
l 1299 229
l 1303 1300
l 1301 1304
l 1305 1302
l 229 230
l 230 1306
l 1307 1303
l 1304 231
l 1308 1305
l 1309 1307
l 231 1310
l 1310 1311
l 1306 1312
l 1313 1308
l 1314 1309
l 1312 232
l 1315 1313
l 232 1316
l 1317 1314
l 1311 233
l 1318 1315
l 1319 1317
l 1320 1319
l 233 1321
l 1316 1322
l 1323 1318
l 1324 1320
l 1321 234
l 1322 235
l 1325 1323
l 1326 1324
l 235 236
l 234 1327
l 236 1328
l 1327 237
l 1329 1325
l 1330 1326
l 1331 1329
l 1332 1330
l 1328 1333
l 1333 1334
l 237 238
l 1335 1332
l 1336 1331
l 1337 1335
l 1338 1336
l 238 1339
l 1334 239
l 1340 1337
l 1341 1338
l 1339 240
l 239 1342
l 1342 241
l 1343 1340
l 1344 1341
l 240 1345
l 1346 1343
l 241 1347
l 1348 1344
l 1345 242
l 242 1349
l 1350 1346
l 1347 243
l 1351 1348
l 1352 1350
l 243 244
l 1353 1351
l 1349 1354
l 1355 1352
l 244 1356
l 1357 1353
l 1354 245
l 1358 1355
l 1356 1359
l 1360 1357
l 245 1361
l 1362 1358
l 1359 246
l 246 1363
l 1364 1360
l 1365 1362
l 1361 1366
l 1366 247
l 1367 1365
l 1368 1364
l 1363 248
l 1369 1368
l 1370 1367
l 247 249
l 248 1371
l 1372 1370
l 1373 1369
l 249 1374
l 1371 250
l 1375 1372
l 1376 1373
l 250 1377
l 1374 251
l 1377 252
l 1378 1375
l 1379 1376
l 251 253
l 252 254
l 1380 1378
l 1381 1379
l 253 1382
l 1382 1383
l 254 1384
l 1385 1380
l 1386 1381
l 1384 1387
l 1387 255
l 1388 1385
l 1389 1386
l 1383 1390
l 1391 1388
l 1392 1389
l 1390 256
l 1393 1391
l 255 1394
l 1395 1392
l 1396 1393
l 256 257
l 1394 1397
l 1397 258
l 1398 1396
l 1399 1395
l 257 1400
l 1400 1401
l 1402 1398
l 1403 1399
l 258 1404
l 1405 1402
l 1401 1406
l 1404 1407
l 1408 1403
l 1409 1405
l 1406 259
l 1407 260
l 260 1410
l 1411 1408
l 1412 1409
l 259 1413
l 1414 1411
l 1415 1412
l 1410 261
l 1416 1414
l 1417 262
l 1413 1418
l 1419 1415
l 261 1417
l 1420 1416
l 1418 1421
l 1422 1419
l 1421 263
l 262 1423
l 1423 1424
l 1425 1422
l 1426 1420
l 1427 1425
l 1428 1426
l 263 1429
l 1424 264
l 1430 1427
l 1431 1428
l 1429 1432
l 264 1433
l 1434 1430
l 1435 1431
l 1432 265
l 1433 266
l 266 267
l 1436 1434
l 1437 1435
l 265 1438
l 1439 1436
l 1440 1437
l 267 1441
l 1438 1442
l 1443 1439
l 1441 268
l 268 1444
l 1445 1440
l 1446 1443
l 1442 269
l 269 1447
l 1448 1446
l 1449 1445
l 1444 1450
l 1447 1451
l 1452 1448
l 1453 1449
l 1450 270
l 1451 271
l 1454 1452
l 271 1455
l 1456 1453
l 270 1457
l 1457 1458
l 1459 1454
l 1460 1456
l 1461 1459
l 1455 1462
l 1462 272
l 1463 1460
l 1458 273
l 1464 1461
l 1465 1463
l 273 1466
l 1467 1464
l 272 1468
l 1468 274
l 1469 1465
l 1470 1467
l 1466 275
l 274 1471
l 1472 1469
l 1473 1470
l 275 1474
l 1474 1475
l 1476 1472
l 1477 1473
l 1471 1478
l 1478 276
l 1479 1476
l 1480 1477
l 1475 277
l 1481 1479
l 1482 1480
l 277 1483
l 276 278
l 1484 1482
l 1485 1481
l 1483 1486
l 1486 1487
l 278 1488
l 1489 1484
l 1490 1485
l 1487 279
l 1488 1491
l 1492 1489
l 1493 1490
l 279 280
l 280 1494
l 1495 1492
l 1491 1496
l 1497 1493
l 1498 1495
l 1496 281
l 1499 1497
l 1494 282
l 1500 1498
l 1501 1499
l 281 1502
l 282 1503
l 1503 283
l 1504 1500
l 1505 1501
l 1502 284
l 1506 1504
l 283 1507
l 1507 1508
l 1509 1505
l 1510 1506
l 284 1511
l 1511 1512
l 1513 1509
l 1514 1510
l 1508 285
l 1515 1513
l 1516 1514
l 1512 1517
l 1517 286
l 285 1518
l 1519 1516
l 1520 1515
l 1518 1521
l 1521 287
l 1522 1519
l 1523 1520
l 286 1524
l 1525 1522
l 1524 288
l 288 289
l 1526 1523
l 287 1527
l 1528 1525
l 1529 1526
l 1527 290
l 290 1530
l 1531 1528
l 289 1532
l 1532 291
l 1533 1529
l 1534 1531
l 1535 1533
l 1530 1536
l 1537 1534
l 291 1538
l 1536 292
l 1539 1535
l 1540 1537
l 1538 293
l 293 294
l 292 1541
l 1542 1539
l 1541 1543
l 1544 1540
l 1545 1542
l 1546 1544
l 1547 1546
l 294 1548
l 1543 1549
l 1549 295
l 1550 1545
l 1551 1547
l 1548 1552
l 1552 296
l 1553 1550
l 1554 1551
l 295 297
l 1555 1553
l 1556 1554
l 297 1557
l 1557 298
l 296 1558
l 1559 1555
l 1560 1556
l 1558 1561
l 1562 1559
l 1563 1560
l 298 1564
l 1561 1565
l 1566 1562
l 1567 1563
l 1564 299
l 1565 300
l 1568 1567
l 1569 1566
l 299 1570
l 300 1571
l 1572 1568
l 1573 1569
l 1570 301
l 1574 1572
l 1571 1575
l 1575 302
l 301 1576
l 1577 1573
l 1578 1574
l 1576 1579
l 1580 1577
l 1579 1581
l 1582 1578
l 302 1583
l 1583 1584
l 1585 1580
l 1586 1582
l 1581 303
l 1587 1585
l 1588 1586
l 303 1589
l 1589 304
l 1584 305
l 1590 1587
l 1591 1588
l 1592 1590
l 304 1593
l 305 1594
l 1593 1595
l 1594 306
l 1596 1591
l 1597 1592
l 1598 1596
l 1595 1599
l 1600 1597
l 1601 1598
l 306 1602
l 1599 307
l 1603 1600
l 1604 1601
l 1602 308
l 307 1605
l 1605 1606
l 1607 1604
l 1608 1603
l 308 1609
l 1610 1607
l 1611 1608
l 1609 309
l 1606 1612
l 1613 1610
l 1614 1611
l 309 1615
l 1612 310
l 310 1616
l 1617 1613
l 1618 1614
l 1615 311
l 311 1619
l 1620 1617
l 1621 1618
l 1616 1622
l 1623 1620
l 1624 1621
l 1625 1623
l 1619 1626
l 1626 312
l 1622 1627
l 1628 1625
l 1629 1624
l 1627 313
l 313 1630
l 1631 1628
l 312 1632
l 1633 1629
l 1634 1631
l 1632 1635
l 1630 1636
l 1635 314
l 1636 315
l 1637 1633
l 1638 1634
l 1639 1637
l 1640 1638
l 315 1641
l 314 316
l 316 1642
l 1643 1639
l 1644 1640
l 1641 317
l 317 1645
l 1646 1643
l 1647 1644
l 1648 1646
l 1642 1649
l 1650 1647
l 1645 1651
l 1649 318
l 1652 1648
l 1653 1650
l 1651 319
l 318 320
l 1654 1652
l 1655 1653
l 319 321
l 320 1656
l 1657 1655
l 1658 1654
l 321 1659
l 1656 322
l 1660 1657
l 1661 1658
l 1659 1662
l 1663 1660
l 322 323
l 323 1664
l 1665 1661
l 1662 1666
l 1666 324
l 1667 1663
l 1668 1665
l 1669 1667
l 324 1670
l 1664 1671
l 1672 1668
l 1673 1669
l 1670 1674
l 1675 1672
l 1671 1676
l 1676 325
l 1677 1673
l 1674 326
l 1678 1675
l 1679 1677
l 326 1680
l 1680 327
l 1681 1678
l 325 1682
l 1682 328
l 1683 1679
l 1684 1681
l 1685 1683
l 327 1686
l 1687 1684
l 328 1688
l 1686 329
l 1689 1685
l 1690 1687
l 329 1691
l 1691 1692
l 1688 1693
l 1693 330
l 1694 1689
l 1695 1690
l 1696 1694
l 1692 1697
l 1698 1695
l 330 1699
l 1700 1696
l 1701 1700
l 1702 1698
l 1697 331
l 331 1703
l 1699 332
l 332 1704
l 1705 1701
l 1706 1702
l 1707 1705
l 1703 1708
l 1709 1706
l 1704 333
l 1710 1707
l 1708 1711
l 1712 1709
l 333 1713
l 1714 1710
l 1711 334
l 334 1715
l 1716 1712
l 1717 1714
l 1713 1718
l 1719 1717
l 1720 1716
l 1718 1721
l 1715 335
l 1722 1719
l 1723 1720
l 1721 336
l 335 1724
l 1724 337
l 1725 1722
l 1726 1723
l 336 338
l 338 1727
l 337 1728
l 1728 339
l 1729 1725
l 1730 1726
l 1731 1729
l 1732 1730
l 1727 340
l 340 1733
l 339 1734
l 1735 1731
l 1736 1732
l 1734 1737
l 1738 1735
l 1739 1736
l 1733 1740
l 1737 341
l 341 342
l 1741 1738
l 1742 1739
l 1740 343
l 1743 1741
l 343 1744
l 342 1745
l 1746 1742
l 1747 1743
l 1744 344
l 1745 345
l 345 1748
l 1749 1747
l 1750 1746
l 344 1751
l 1752 1749
l 1753 1750
l 1748 346
l 1754 1752
l 1751 347
l 1755 1753
l 346 1756
l 1757 1754
l 1758 1755
l 347 1759
l 1756 1760
l 1760 348
l 1761 1757
l 1762 1758
l 1759 1763
l 1764 1761
l 1765 1762
l 348 349
l 1763 1766
l 1767 1764
l 349 1768
l 1769 1765
l 1766 350
l 1770 1767
l 1768 351
l 1771 1769
l 350 1772
l 1772 1773
l 1774 1770
l 1775 1774
l 1776 1771
l 351 1777
l 1777 1778
l 1779 1776
l 1773 352
l 1780 1775
l 1781 1780
l 1778 353
l 1782 1779
l 352 1783
l 1783 1784
l 1785 1781
l 353 1786
l 1787 1782
l 1788 1785
l 1786 354
l 1784 1789
l 1789 355
l 1790 1787
l 1791 1788
l 354 1792
l 1793 1790
l 1792 356
l 1794 1791
l 355 1795
l 1796 1793
l 356 1797
l 1797 1798
l 1799 1794
l 1795 357
l 1800 1796
l 1801 1799
l 357 358
l 1798 359
l 1802 1800
l 1803 1801
l 358 1804
l 359 1805
l 1805 360
l 1806 1802
l 1807 1803
l 1804 361
l 1808 1807
l 1809 1806
l 360 1810
l 1810 362
l 1811 1808
l 361 1812
l 1812 363
l 1813 1809
l 1814 1811
l 1815 1813
l 362 364
l 1816 1814
l 363 1817
l 1818 1815
l 364 1819
l 1820 1816
l 1817 1821
l 1821 365
l 1822 1818
l 1819 1823
l 1823 366
l 1824 1820
l 1825 1822
l 1826 1824
l 365 1827
l 366 1828
l 1829 1825
l 1830 1826
l 1827 1831
l 1828 1832
l 1831 367
l 1832 1833
l 1834 1829
l 1835 1830
l 1836 1834
l 1837 1835
l 1833 368
l 367 1838
l 1839 1837
l 1838 369
l 1840 1836
l 368 1841
l 1842 1840
l 1843 1839
l 1841 370
l 370 1844
l 1845 1842
l 1846 1843
l 369 1847
l 1848 1846
l 1849 1845
l 1847 1850
l 1850 371
l 1851 1848
l 1844 1852
l 1852 1853
l 1854 1849
l 1855 1851
l 1856 1854
l 371 1857
l 1858 1855
l 1853 372
l 1859 1856
l 1860 1858
l 1857 1861
l 372 373
l 373 1862
l 1863 1860
l 1861 374
l 1864 1859
l 1865 1863
l 1862 1866
l 374 1867
l 1868 1864
l 1869 1865
l 1866 375
l 1867 1870
l 1871 1868
l 1872 1869
l 375 1873
l 1870 1874
l 1875 1872
l 1874 1876
l 1877 1871
l 1873 376
l 1878 1875
l 376 1879
l 1880 1877
l 1881 1878
l 1879 377
l 1876 378
l 377 1882
l 378 1883
l 1884 1880
l 1885 1881
l 1886 1884
l 1887 1885
l 1882 379
l 1883 1888
l 1889 1886
l 379 1890
l 1891 1887
l 1890 1892
l 1888 380
l 380 1893
l 1894 1891
l 1895 1889
l 1892 381
l 381 1896
l 1897 1894
l 1898 1895
l 1899 1897
l 1893 382
l 382 1900
l 1901 1898
l 1896 383
l 1902 1899
l 1903 1901
l 383 384
l 1904 1902
l 1900 385
l 384 1905
l 1905 386
l 1906 1904
l 1907 1903
l 1908 1906
l 385 387
l 1909 1907
l 386 1910
l 1911 1908
l 387 1912
l 1913 1909
l 1910 1914
l 1914 388
l 1915 1911
l 1912 1916
l 1917 1913
l 1918 1915
l 388 1919
l 1916 389
l 1920 1918
l 1921 1917
l 1919 2
l 415 1920
l 389 390
l 390 1922
l 1923 1921
l 1924 1923
l 1925 1924
l 1922 391
l 1926 1925
l 391 1927
l 1927 1928
l 1929 1926
l 1930 1929
l 1928 1931
l 1931 392
l 1932 1930
l 1933 1932
l 392 393
l 1934 1933
l 393 1935
l 1936 1934
l 1935 394
l 1937 1936
l 394 395
l 1938 1937
l 395 1939
l 1940 1938
l 1939 396
l 396 1941
l 1942 1940
l 1943 1942
l 1941 397
l 397 1944
l 1945 1943
l 1944 1946
l 1947 1945
l 1946 398
l 1948 1947
l 398 399
l 399 1949
l 1950 1948
l 1951 1950
l 1949 400
l 400 1952
l 1953 1951
l 1954 1953
l 1952 1955
l 1956 1954
l 1955 1957
l 1957 401
l 1958 1956
l 1959 1958
l 401 1960
l 1961 1959
l 1960 1962
l 1963 1961
l 1962 1964
l 1965 1963
l 1966 1965
l 1964 402
l 1967 1966
l 402 1968
l 1969 1967
l 1968 403
l 403 1970
l 1971 1969
l 1972 1971
l 1970 404
l 404 1973
l 1974 1972
l 1975 1974
l 1973 405
l 1976 1975
l 405 406
l 406 1977
l 1978 1976
l 1979 1978
l 1977 407
l 407 1980
l 1981 1979
l 1982 1981
l 1980 408
l 1983 1982
l 408 1984
l 410 1983
l 1984 411
l 388 386
l 239 236
l 104 102
l 102 99
l 210 207
l 241 239
l 374 371
l 105 104
l 3 2
l 243 241
l 207 205
l 371 369
l 107 105
l 98 95
l 369 367
l 246 244
l 205 204
l 8 5
l 248 246
l 109 107
l 204 203
l 10 8
l 367 365
l 94 92
l 12 10
l 203 201
l 112 110
l 365 363
l 252 250
l 14 12
l 91 89
l 363 361
l 201 198
l 114 112
l 16 14
l 361 358
l 89 86
l 255 254
l 116 114
l 198 197
l 86 85
l 18 16
l 357 355
l 258 255
l 21 18
l 85 82
l 197 196
l 119 117
l 196 194
l 260 258
l 24 22
l 355 352
l 82 80
l 121 119
l 261 260
l 26 24
l 194 191
l 352 350
l 262 261
l 29 26
l 80 78
l 191 189
l 124 121
l 31 29
l 264 262
l 78 76
l 350 347
l 189 187
l 266 264
l 347 344
l 34 32
l 127 126
l 344 343
l 187 185
l 268 267
l 74 72
l 36 34
l 129 127
l 343 340
l 270 268
l 185 182
l 130 129
l 40 38
l 340 338
l 182 180
l 42 40
l 273 270
l 180 178
l 275 273
l 44 42
l 134 132
l 178 175
l 336 333
l 68 65
l 277 275
l 46 44
l 333 332
l 175 172
l 48 46
l 137 136
l 65 64
l 332 330
l 171 169
l 279 277
l 50 48
l 64 62
l 330 328
l 52 50
l 141 139
l 169 166
l 62 61
l 282 280
l 328 325
l 54 52
l 142 141
l 166 164
l 283 282
l 55 54
l 164 161
l 145 143
l 57 55
l 325 323
l 285 283
l 58 56
l 147 145
l 322 320
l 161 158
l 287 285
l 59 57
l 149 147
l 56 53
l 318 316
l 151 149
l 53 51
l 292 290
l 156 155
l 63 60
l 155 153
l 314 312
l 154 152
l 295 292
l 49 47
l 66 63
l 312 311
l 153 150
l 47 45
l 298 297
l 157 154
l 311 309
l 150 148
l 67 66
l 299 298
l 148 146
l 309 308
l 69 67
l 45 43
l 308 306
l 160 159
l 146 144
l 71 70
l 306 305
l 162 160
l 43 41
l 303 301
l 73 71
l 305 302
l 163 162
l 41 39
l 144 140
l 75 73
l 165 163
l 140 138
l 307 304
l 77 75
l 167 165
l 37 35
l 79 77
l 138 135
l 300 296
l 35 33
l 170 168
l 310 307
l 81 79
l 296 294
l 135 133
l 83 81
l 173 170
l 174 173
l 133 131
l 313 310
l 30 28
l 87 84
l 293 291
l 88 87
l 177 176
l 291 289
l 27 25
l 315 313
l 131 128
l 90 88
l 179 177
l 317 315
l 288 286
l 93 90
l 25 23
l 181 179
l 128 125
l 319 317
l 96 93
l 23 20
l 125 123
l 286 284
l 97 96
l 20 19
l 123 122
l 284 281
l 184 183
l 122 120
l 324 321
l 100 97
l 281 278
l 17 15
l 326 324
l 120 118
l 188 186
l 103 101
l 15 13
l 118 115
l 276 274
l 329 327
l 106 103
l 190 188
l 13 11
l 274 272
l 115 113
l 11 9
l 113 111
l 192 190
l 331 329
l 108 106
l 272 271
l 111 108
l 193 192
l 271 269
l 334 331
l 195 193
l 7 6
l 335 334
l 269 265
l 337 335
l 4 1
l 265 263
l 339 337
l 1 408
l 341 339
l 263 259
l 200 199
l 408 407
l 345 342
l 259 257
l 407 406
l 346 345
l 202 200
l 348 346
l 405 404
l 256 253
l 351 349
l 403 402
l 251 249
l 353 351
l 402 401
l 354 353
l 208 206
l 247 245
l 356 354
l 209 208
l 245 242
l 401 400
l 359 356
l 242 240
l 400 399
l 212 209
l 240 238
l 362 360
l 398 397
l 237 234
l 216 213
l 397 396
l 234 233
l 366 364
l 396 395
l 233 231
l 220 218
l 368 366
l 394 393
l 370 368
l 231 228
l 392 391
l 372 370
l 225 223
l 391 390
l 226 224
l 227 225
l 375 373
l 224 222
l 376 375
l 389 387
l 221 219
l 229 227
l 377 376
l 379 377
l 385 382
l 219 217
l 232 230
l 217 215
l 383 381
l 380 378
l 235 232
l 214 211
l 386 384
# </edges>
